<svg width="264" height="200" viewBox="0 0 264 200" fill="none" xmlns="http://www.w3.org/2000/svg">
<g clip-path="url(#clip0_392_35871)">
<path d="M111.264 0L111.142 0.545733L210.756 0.667018C239.431 0.667018 262.677 23.9126 262.677 52.5878V113.727H263.344V7.56733C263.344 3.38801 259.956 0 255.777 0H111.264Z" fill="#E6E6E6"/>
<path d="M220.978 26.034C222.535 26.034 223.798 24.7432 223.798 23.1508C223.798 21.5584 222.535 20.2676 220.978 20.2676C219.42 20.2676 218.157 21.5584 218.157 23.1508C218.157 24.7432 219.42 26.034 220.978 26.034Z" fill="#3F3D56"/>
<path d="M211.235 26.034C212.792 26.034 214.055 24.7432 214.055 23.1508C214.055 21.5584 212.792 20.2676 211.235 20.2676C209.677 20.2676 208.414 21.5584 208.414 23.1508C208.414 24.7432 209.677 26.034 211.235 26.034Z" fill="#3F3D56"/>
<path d="M201.492 26.034C203.049 26.034 204.312 24.7432 204.312 23.1508C204.312 21.5584 203.049 20.2676 201.492 20.2676C199.934 20.2676 198.671 21.5584 198.671 23.1508C198.671 24.7432 199.934 26.034 201.492 26.034Z" fill="#3F3D56"/>
<path d="M178.412 66.7581H138.967C137.614 66.7581 136.513 65.6571 136.513 64.3038C136.513 62.9506 137.614 61.8496 138.967 61.8496H178.412C179.766 61.8496 180.867 62.9506 180.867 64.3038C180.867 65.6571 179.766 66.7581 178.412 66.7581Z" fill="#E6E6E6"/>
<path d="M209.196 75.0647H138.967C137.614 75.0647 136.513 73.9637 136.513 72.6105C136.513 71.2573 137.614 70.1562 138.967 70.1562H209.196C210.549 70.1562 211.65 71.2573 211.65 72.6105C211.65 73.9637 210.549 75.0647 209.196 75.0647Z" fill="#E6E6E6"/>
<path d="M222.485 87.9679H125.678C123.588 87.9679 121.887 86.2675 121.887 84.1775V52.7377C121.887 50.6477 123.588 48.9473 125.678 48.9473H222.485C224.575 48.9473 226.276 50.6477 226.276 52.7377V84.1775C226.276 86.2675 224.575 87.9679 222.485 87.9679ZM125.678 49.6143C123.955 49.6143 122.554 51.0154 122.554 52.7377V84.1775C122.554 85.8997 123.955 87.3009 125.678 87.3009H222.485C224.208 87.3009 225.609 85.8997 225.609 84.1775V52.7377C225.609 51.0154 224.208 49.6143 222.485 49.6143H125.678Z" fill="#3F3D56"/>
<path d="M224.323 96.3845C228.928 96.3845 232.661 92.6515 232.661 88.0467C232.661 83.4419 228.928 79.709 224.323 79.709C219.719 79.709 215.986 83.4419 215.986 88.0467C215.986 92.6515 219.719 96.3845 224.323 96.3845Z" fill="#A92428"/>
<path d="M226.366 85.3734C225.699 84.5688 224.586 84.0942 223.551 84.3965C222.604 84.6735 221.815 85.5708 221.903 86.5945C221.944 87.0697 222.138 87.5262 222.471 87.8711C222.847 88.2607 223.326 88.3953 223.852 88.4396C224.413 88.4869 224.894 88.5704 225.268 89.0326C225.592 89.4345 225.694 89.9677 225.508 90.4537C225.066 91.6089 223.501 91.7434 222.847 90.7046C222.59 90.297 221.941 90.6731 222.199 91.0834C222.732 91.9303 223.817 92.3966 224.791 92.0799C225.739 91.7719 226.435 90.7891 226.347 89.784C226.255 88.7402 225.424 87.8801 224.392 87.7387C223.848 87.6641 223.279 87.7237 222.911 87.2369C222.623 86.8565 222.561 86.3306 222.779 85.9042C223.044 85.384 223.621 85.0569 224.199 85.0558C224.855 85.0546 225.427 85.4119 225.835 85.904C226.144 86.2761 226.672 85.7427 226.366 85.3734Z" fill="white"/>
<path d="M223.446 82.8878L223.086 93.383C223.075 93.7049 223.575 93.7045 223.586 93.383L223.947 82.8878C223.958 82.5658 223.457 82.5662 223.446 82.8878Z" fill="white"/>
<path d="M224.613 82.8878L224.252 93.383C224.241 93.7049 224.742 93.7045 224.753 93.383L225.113 82.8878C225.124 82.5658 224.624 82.5662 224.613 82.8878Z" fill="white"/>
<path d="M32.2399 195.666L35.7824 195.666L37.4676 182.002L32.2392 182.002L32.2399 195.666Z" fill="#A0616A"/>
<path d="M32.1152 199.362L43.0089 199.362V199.224C43.0087 196.883 41.1104 194.984 38.7688 194.984H38.7685L36.7786 193.475L33.066 194.984L32.1151 194.984L32.1152 199.362H32.1152Z" fill="#2F2E41"/>
<path d="M53.8888 195.666L57.4313 195.666L59.1165 182.002L53.8881 182.002L53.8888 195.666Z" fill="#A0616A"/>
<path d="M53.7642 199.362L64.6578 199.362V199.224C64.6576 196.883 62.7593 194.984 60.4177 194.984H60.4174L58.4276 193.475L54.7149 194.984L53.764 194.984L53.7642 199.362H53.7642Z" fill="#2F2E41"/>
<path d="M29.1105 108.741L61.5066 107.84L61.2991 126.117L59.5899 147.481C59.5899 147.481 63.5779 163.148 60.1596 178.815L59.8748 190.779L50.7595 190.209C50.7595 190.209 49.1928 166.708 51.1867 157.878L45.2048 125.974L39.5077 157.023C39.5077 157.023 40.3623 174.969 38.0834 182.09V188.802H31.6383C31.6383 188.802 24.6953 165.284 29.8227 153.32L29.1105 108.741L29.1105 108.741Z" fill="#2F2E41"/>
<path d="M52.4116 55.6296C52.4116 55.6296 51.5374 53.4361 50.8847 52.457C46.3156 52.457 45.7351 52.7708 41.7466 52.457L30.6754 111.897C30.6754 111.897 24.5887 117.026 31.2724 117.026C37.9561 117.026 47.5931 115.161 50.2355 116.56C52.8779 117.959 61.2714 115.783 61.2714 115.783L52.4116 55.6296Z" fill="#A92428"/>
<path d="M41.929 52.3398L37.8303 56.7004L35.1235 56.7362C32.62 56.7693 30.6134 58.8185 30.6328 61.3221L31.4816 86.3006C31.4816 86.3006 23.8113 110.063 28.9406 110.996L28.008 114.571L37.8476 120.633C37.8476 120.633 40.8317 104.67 41.298 101.095C41.7643 97.52 44.0817 77.3728 44.0817 77.3728C44.0817 77.3728 43.6295 60.7994 43.3186 59.2641L41.929 52.3398H41.929Z" fill="#2F2E41"/>
<path d="M51.0127 52.5215L48.992 62.9356L54.1214 90.4476C54.1214 90.4476 52.8779 115.939 56.7638 118.426L62.8877 116.841L62.4214 111.867C62.4214 111.867 62.9812 110.654 62.6703 105.991C62.3594 101.328 60.5275 92.8276 60.5275 92.8276L63.2407 61.8476C63.2407 61.8476 56.4529 55.4747 53.4996 56.2519L51.0127 52.5215H51.0127Z" fill="#2F2E41"/>
<path d="M17.5181 111.074L18.1501 102.594L23.0446 102.279L22.0574 111.221C22.2156 111.445 22.3443 111.696 22.4347 111.971C22.9261 113.464 22.114 115.073 20.6209 115.564C19.1278 116.056 17.519 115.244 17.0276 113.751C16.7142 112.798 16.9326 111.8 17.5181 111.074L17.5181 111.074Z" fill="#A0616A"/>
<path d="M36.3651 56.8379L33.7867 56.8806C31.8808 56.9121 30.1965 58.1281 29.5667 59.9272L19.9043 87.528L18.9013 92.6746C18.9013 92.6746 14.2662 103.789 16.0041 105.47L16.8326 108.565L22.9788 108.464L22.9368 105.927C22.9368 105.927 24.8135 105.751 24.8046 103.517C24.8046 103.517 29.6686 95.1391 28.3815 92.5177L31.6951 86.0891L36.3651 56.8379Z" fill="#2F2E41"/>
<path d="M96.7343 100.305L90.4967 94.5254L86.6982 97.628L93.5103 103.503C93.5474 103.776 93.6241 104.047 93.7449 104.31C94.4018 105.738 96.0921 106.363 97.5201 105.706C98.9481 105.049 99.5732 103.359 98.9162 101.931C98.4973 101.02 97.6577 100.438 96.7343 100.305Z" fill="#A0616A"/>
<path d="M59.3003 58.7695L56.1717 70.855L67.1281 85.9123L70.6954 89.7553C70.6954 89.7553 86.0592 101.758 88.4416 101.345L91.4308 102.499L94.9701 97.4736L92.8963 96.0131C92.8963 96.0131 93.8598 94.393 92.0493 93.0836C92.0493 93.0836 79.0311 82.508 76.1547 82.0032L72.9132 75.538L63.0082 61.7397L59.3003 58.7695Z" fill="#2F2E41"/>
<path d="M51.8456 49.8474C51.8029 49.8816 51.7629 49.9073 51.7201 49.933C51.3892 50.1526 51.044 50.3494 50.6818 50.5177C50.6761 50.5234 50.6675 50.5263 50.6589 50.5291C50.0057 50.8372 49.3011 51.0683 48.5565 51.2052C47.7949 51.345 47.0389 51.3821 46.3029 51.3222C42.5118 51.0227 39.2484 48.2185 38.5238 44.3018C38.2813 42.9953 38.3498 41.7059 38.6721 40.505C39.508 37.4013 42.0554 34.8967 45.4272 34.2719C50.1027 33.4076 54.5927 36.497 55.4571 41.1725C56.0961 44.6299 54.5728 47.9874 51.8456 49.8474L51.8456 49.8474Z" fill="#A0616A"/>
<path d="M41.7469 49.6361L42.2663 47.2376C42.2663 47.2376 40.8525 46.0071 42.2663 44.8628L43.0357 44.363H44.2104L44.969 40.4965L49.8022 40.1743C49.8022 40.1743 54.6353 39.2076 55.2798 37.5966C55.2798 37.5966 53.6687 37.2744 53.9909 35.9855C53.9909 35.9855 50.1244 31.1523 46.58 32.4412C43.0357 33.73 41.7469 35.0189 41.7469 35.0189C41.7469 35.0189 35.947 34.0522 35.947 41.1409C35.947 48.2296 41.7469 49.6361 41.7469 49.6361V49.6361Z" fill="#2F2E41"/>
<path d="M94.7227 111.521H84.9854C83.9297 111.521 83.0709 110.662 83.0709 109.606V91.0004C83.0709 89.9448 83.9298 89.0859 84.9854 89.0859H94.7227C95.7783 89.0859 96.6372 89.9448 96.6372 91.0004V109.606C96.6372 110.662 95.7783 111.521 94.7227 111.521Z" fill="#3F3D56"/>
<path d="M96.6372 95.9297C96.5925 95.9297 96.5562 95.966 96.5562 96.0107V98.6024C96.5562 98.6471 96.5925 98.6834 96.6372 98.6834C96.6819 98.6834 96.7182 98.6471 96.7182 98.6024V96.0107C96.7182 95.966 96.6819 95.9297 96.6372 95.9297Z" fill="#3F3D56"/>
<path d="M96.455 91V109.606C96.455 110.525 95.7398 111.276 94.8355 111.334H94.8351C94.8218 111.335 94.8084 111.336 94.7946 111.336C94.7707 111.338 94.7468 111.338 94.7225 111.338C94.7225 111.338 94.6334 111.332 94.4706 111.319C94.3062 111.307 94.0669 111.289 93.7684 111.265C93.6789 111.258 93.5846 111.251 93.485 111.243C93.2865 111.226 93.0687 111.209 92.835 111.188C92.7419 111.181 92.6455 111.172 92.5471 111.164C92.0441 111.12 91.4808 111.07 90.8867 111.012C90.7863 111.003 90.6851 110.993 90.583 110.983C90.5563 110.98 90.5291 110.978 90.502 110.975C90.0784 110.933 89.6431 110.888 89.2061 110.84C89.179 110.838 89.1518 110.835 89.1251 110.832C88.3723 110.749 87.6166 110.659 86.9096 110.561C86.3657 110.487 85.8506 110.408 85.3881 110.327C85.2375 110.3 85.0925 110.273 84.954 110.246C84.9269 110.241 84.8997 110.236 84.873 110.23C83.8942 110.034 83.2532 109.823 83.2532 109.606V91C83.2532 90.0431 84.0287 89.2676 84.9856 89.2676H86.0199C86.1851 89.2676 86.3179 89.3964 86.3321 89.5612C86.3333 89.5721 86.3345 89.5831 86.3365 89.594C86.3665 89.7596 86.5184 89.875 86.6868 89.875H93.0213C93.1897 89.875 93.3416 89.7596 93.3716 89.594C93.3736 89.5831 93.3748 89.5721 93.376 89.5612C93.3902 89.3964 93.523 89.2676 93.6883 89.2676H94.7225C95.6795 89.2676 96.455 90.0431 96.455 91Z" fill="#A92428"/>
<path d="M83.0304 93.9863C82.9858 93.9863 82.9494 94.0227 82.9494 94.0673V94.7153C82.9494 94.7599 82.9858 94.7963 83.0304 94.7963C83.0751 94.7963 83.1114 94.7599 83.1114 94.7153V94.0673C83.1114 94.0227 83.0751 93.9863 83.0304 93.9863Z" fill="#3F3D56"/>
<path d="M83.0304 95.9297C82.9858 95.9297 82.9494 95.966 82.9494 96.0107V97.2661C82.9494 97.3107 82.9858 97.3471 83.0304 97.3471C83.0751 97.3471 83.1114 97.3107 83.1114 97.2661V96.0107C83.1114 95.966 83.0751 95.9297 83.0304 95.9297Z" fill="#3F3D56"/>
<path d="M83.0304 97.7109C82.9858 97.7109 82.9494 97.7473 82.9494 97.7919V99.0473C82.9494 99.092 82.9858 99.1283 83.0304 99.1283C83.0751 99.1283 83.1114 99.092 83.1114 99.0473V97.7919C83.1114 97.7473 83.0751 97.7109 83.0304 97.7109Z" fill="#3F3D56"/>
<path d="M85.9057 89.5508H84.5288C84.4729 89.5508 84.4276 89.5961 84.4276 89.652C84.4276 89.7079 84.4729 89.7533 84.5288 89.7533H85.9057C85.9616 89.7533 86.0069 89.7079 86.0069 89.652C86.0069 89.5961 85.9616 89.5508 85.9057 89.5508Z" fill="#3F3D56"/>
<path d="M93.9442 89.7537C94.0336 89.7537 94.1062 89.6811 94.1062 89.5917C94.1062 89.5022 94.0336 89.4297 93.9442 89.4297C93.8547 89.4297 93.7822 89.5022 93.7822 89.5917C93.7822 89.6811 93.8547 89.7537 93.9442 89.7537Z" fill="#3F3D56"/>
<path d="M94.3897 89.7537C94.4791 89.7537 94.5516 89.6811 94.5516 89.5917C94.5516 89.5022 94.4791 89.4297 94.3897 89.4297C94.3002 89.4297 94.2277 89.5022 94.2277 89.5917C94.2277 89.6811 94.3002 89.7537 94.3897 89.7537Z" fill="#3F3D56"/>
<path d="M94.8351 89.7537C94.9246 89.7537 94.9971 89.6811 94.9971 89.5917C94.9971 89.5022 94.9246 89.4297 94.8351 89.4297C94.7456 89.4297 94.6731 89.5022 94.6731 89.5917C94.6731 89.6811 94.7456 89.7537 94.8351 89.7537Z" fill="#3F3D56"/>
<path d="M90.0693 105.606C92.9011 105.606 95.1967 103.311 95.1967 100.479C95.1967 97.6472 92.9011 95.3516 90.0693 95.3516C87.2375 95.3516 84.9419 97.6472 84.9419 100.479C84.9419 103.311 87.2375 105.606 90.0693 105.606Z" fill="white"/>
<path d="M91.3255 98.835C90.9153 98.3402 90.2306 98.0483 89.5944 98.2342C89.0117 98.4045 88.5267 98.9563 88.5811 99.5859C88.6064 99.8781 88.7254 100.159 88.9301 100.371C89.1613 100.611 89.456 100.693 89.7793 100.721C90.1242 100.75 90.4203 100.801 90.65 101.085C90.8498 101.332 90.9121 101.66 90.7977 101.959C90.5257 102.67 89.5636 102.752 89.1614 102.113C89.0036 101.863 88.6041 102.094 88.763 102.346C89.0909 102.867 89.7577 103.154 90.357 102.959C90.9399 102.77 91.3679 102.165 91.3137 101.547C91.2574 100.905 90.7464 100.376 90.1114 100.289C89.7769 100.244 89.4269 100.28 89.2006 99.9809C89.0238 99.747 88.9858 99.4236 89.1195 99.1614C89.2826 98.8414 89.6375 98.6403 89.9927 98.6396C90.396 98.6389 90.7483 98.8586 90.9992 99.1612C91.1889 99.3901 91.5137 99.0621 91.3255 98.8349V98.835Z" fill="#A92428"/>
<path d="M89.53 97.3066L89.3082 103.761C89.3014 103.959 89.6091 103.958 89.6159 103.761L89.8376 97.3066C89.8444 97.1086 89.5368 97.1089 89.53 97.3066Z" fill="#A92428"/>
<path d="M90.2475 97.3066L90.0257 103.761C90.0189 103.959 90.3266 103.958 90.3334 103.761L90.5551 97.3066C90.5619 97.1086 90.2543 97.1089 90.2475 97.3066Z" fill="#A92428"/>
<path d="M18.3639 194.343C17.6896 194.386 17.317 193.548 17.8271 193.06L17.8779 192.858C17.8712 192.842 17.8645 192.826 17.8577 192.809C17.1759 191.184 14.865 191.195 14.189 192.823C13.5889 194.268 12.825 195.716 12.6369 197.244C12.5526 197.918 12.5905 198.606 12.7402 199.267C11.3342 196.196 10.5943 192.843 10.5943 189.47C10.5943 188.623 10.6407 187.775 10.7356 186.93C10.8136 186.239 10.9211 185.551 11.0602 184.87C11.8127 181.19 13.4421 177.685 15.7924 174.757C16.9223 174.139 17.8645 173.174 18.4336 172.017C18.6381 171.599 18.7983 171.15 18.8742 170.693C18.7456 170.71 18.3894 168.751 18.4863 168.631C18.3071 168.359 17.9864 168.224 17.7907 167.959C16.8174 166.639 15.4764 166.87 14.7764 168.663C13.2809 169.418 13.2665 170.669 14.1841 171.873C14.7679 172.639 14.8481 173.675 15.3603 174.495C15.3076 174.563 15.2528 174.628 15.2001 174.696C14.2337 175.935 13.3979 177.267 12.6933 178.667C12.8925 177.111 12.5985 175.238 12.0973 174.03C11.5267 172.653 10.4573 171.494 9.51561 170.304C8.38445 168.875 6.06491 169.499 5.86562 171.31C5.86369 171.328 5.86181 171.345 5.85997 171.363C5.99985 171.442 6.13688 171.526 6.27074 171.614C7.03425 172.119 6.77038 173.303 5.8657 173.442L5.84522 173.446C5.89581 173.949 5.98224 174.449 6.1087 174.94C4.90059 179.612 7.50881 181.314 11.233 181.39C11.3152 181.433 11.3953 181.475 11.4775 181.515C11.1002 182.577 10.7988 183.667 10.5754 184.771C10.3751 185.747 10.236 186.734 10.158 187.725C10.061 188.975 10.0695 190.231 10.1749 191.479L10.1685 191.435C9.90084 190.06 9.15463 188.776 8.07115 187.887C6.45711 186.561 4.17678 186.073 2.43551 185.007C1.59732 184.494 0.523233 185.157 0.66952 186.129L0.676641 186.175C0.93591 186.281 1.18885 186.403 1.43337 186.54C1.57325 186.619 1.71028 186.703 1.84414 186.791C2.60765 187.296 2.34378 188.48 1.43911 188.619L1.4186 188.623C1.40385 188.625 1.3912 188.627 1.37647 188.629C1.82124 189.685 2.44094 190.665 3.21665 191.51C3.97205 195.589 7.21651 195.976 10.6871 194.788H10.6892C11.0686 196.441 11.623 198.055 12.3355 199.594H18.2165C18.2376 199.529 18.2566 199.461 18.2755 199.396C17.7317 199.43 17.1836 199.398 16.6482 199.299C17.0846 198.764 17.5209 198.224 17.9572 197.689C17.9678 197.678 17.9762 197.668 17.9846 197.657C18.206 197.383 18.4294 197.111 18.6507 196.837L18.6508 196.837C18.6647 195.996 18.5639 195.157 18.3641 194.343L18.3639 194.343Z" fill="#F2F2F2"/>
<path d="M84.1418 199.611C84.1418 199.826 83.9689 199.999 83.7534 199.999H1.09015C0.874762 199.999 0.701782 199.826 0.701782 199.611C0.701782 199.396 0.874762 199.223 1.09015 199.223H83.7534C83.9689 199.223 84.1418 199.396 84.1418 199.611Z" fill="#CCCCCC"/>
</g>
<defs>
<clipPath id="clip0_392_35871">
<rect width="262.688" height="200" fill="white" transform="translate(0.656036)"/>
</clipPath>
</defs>
</svg>
