<svg width="247" height="200" viewBox="0 0 247 200" fill="none" xmlns="http://www.w3.org/2000/svg">
<g clip-path="url(#clip0_617_43447)">
<path d="M197.064 36.4307C195.783 50.5446 192.134 65.4269 186.411 79.7864C179.333 97.5438 169.663 113.185 158.446 125.017L157.824 124.475C168.986 112.699 178.612 97.127 185.66 79.4431C192.03 63.4624 195.819 46.8321 196.622 31.3574L197.417 31.4906C197.333 33.1249 197.215 34.7716 197.064 36.4307Z" fill="#F2F2F2"/>
<path d="M202.166 118.401C186.411 143.466 167.297 161.375 148.344 168.829L147.961 168.126C166.782 160.724 185.785 142.907 201.468 117.956L202.166 118.401Z" fill="#F2F2F2"/>
<path d="M196.682 54.003C195.401 68.1169 191.752 82.9992 186.028 97.3587C178.951 115.116 169.281 130.757 158.064 142.59L157.441 142.047C168.604 130.271 178.23 114.699 185.278 97.0153C191.648 81.0347 195.436 64.4044 196.239 48.9297L197.035 49.0629C196.95 50.6972 196.833 52.3439 196.682 54.003Z" fill="#F2F2F2"/>
<path d="M19.8122 90.2379H9.47499C9.25413 90.2384 9.03604 90.1888 8.83707 90.093C8.63809 89.9971 8.4634 89.8575 8.32611 89.6845C8.19047 89.5159 8.09478 89.3188 8.04621 89.1079C7.99764 88.8971 7.99745 88.678 8.04567 88.467C9.03018 84.1229 8.96833 79.6071 7.86522 75.2916C7.79545 75.0074 7.81232 74.7089 7.91366 74.4344C8.01501 74.1599 8.19618 73.9221 8.43387 73.7515C13.7493 69.9285 17.9353 70.0395 20.8758 74.0817C21.0084 74.266 21.0964 74.4784 21.1331 74.7024C21.9188 79.4258 21.9622 84.2428 21.2619 88.9795C21.2133 89.3291 21.0396 89.6492 20.773 89.8806C20.5065 90.1119 20.1651 90.2389 19.8122 90.2379Z" fill="#E6E6E6"/>
<path d="M16.6074 79.8862H13.0514C12.8547 79.8862 12.6661 79.8081 12.5271 79.669C12.388 79.53 12.3099 79.3414 12.3099 79.1447C12.3099 78.9481 12.388 78.7595 12.5271 78.6205C12.6661 78.4814 12.8547 78.4033 13.0514 78.4033H16.6074C16.8037 78.4037 16.9919 78.482 17.1306 78.621C17.2693 78.76 17.3472 78.9484 17.3472 79.1447C17.3472 79.3411 17.2693 79.5295 17.1306 79.6685C16.9919 79.8075 16.8037 79.8858 16.6074 79.8862Z" fill="white"/>
<path d="M16.6074 82.4858H13.0514C12.8547 82.4858 12.6661 82.4077 12.5271 82.2686C12.388 82.1296 12.3099 81.941 12.3099 81.7444C12.3099 81.5477 12.388 81.3591 12.5271 81.2201C12.6661 81.081 12.8547 81.0029 13.0514 81.0029H16.6074C16.8037 81.0033 16.9919 81.0816 17.1306 81.2206C17.2693 81.3596 17.3472 81.548 17.3472 81.7444C17.3472 81.9407 17.2693 82.1291 17.1306 82.2681C16.9919 82.4071 16.8037 82.4854 16.6074 82.4858Z" fill="white"/>
<path d="M16.6074 85.0864H13.0514C12.8547 85.0864 12.6661 85.0083 12.5271 84.8692C12.388 84.7302 12.3099 84.5416 12.3099 84.3449C12.3099 84.1483 12.388 83.9597 12.5271 83.8207C12.6661 83.6816 12.8547 83.6035 13.0514 83.6035H16.6074C16.8037 83.6039 16.9919 83.6822 17.1306 83.8212C17.2693 83.9602 17.3472 84.1486 17.3472 84.3449C17.3472 84.5413 17.2693 84.7297 17.1306 84.8687C16.9919 85.0077 16.8037 85.086 16.6074 85.0864Z" fill="white"/>
<path d="M207.68 136.392H197.343C197.122 136.393 196.904 136.343 196.705 136.247C196.506 136.151 196.331 136.012 196.194 135.839C196.058 135.67 195.963 135.473 195.914 135.262C195.865 135.051 195.865 134.832 195.913 134.621C196.898 130.277 196.836 125.761 195.733 121.446C195.663 121.162 195.68 120.863 195.781 120.589C195.883 120.314 196.064 120.076 196.302 119.906C201.617 116.083 205.803 116.194 208.744 120.236C208.876 120.42 208.964 120.633 209.001 120.857C209.787 125.58 209.83 130.397 209.13 135.134C209.081 135.483 208.907 135.804 208.641 136.035C208.374 136.266 208.033 136.393 207.68 136.392Z" fill="#E6E6E6"/>
<path d="M204.475 126.04H200.919C200.723 126.04 200.535 125.962 200.396 125.823C200.257 125.684 200.179 125.495 200.179 125.299C200.179 125.103 200.257 124.914 200.396 124.775C200.535 124.636 200.723 124.558 200.919 124.558H204.475C204.672 124.558 204.86 124.636 204.999 124.775C205.138 124.914 205.217 125.102 205.217 125.299C205.217 125.496 205.138 125.684 204.999 125.823C204.86 125.962 204.672 126.04 204.475 126.04Z" fill="white"/>
<path d="M204.475 128.64H200.919C200.723 128.64 200.535 128.561 200.396 128.422C200.257 128.283 200.179 128.095 200.179 127.899C200.179 127.702 200.257 127.514 200.396 127.375C200.535 127.236 200.723 127.158 200.919 127.157H204.475C204.672 127.157 204.86 127.235 204.999 127.374C205.138 127.513 205.217 127.702 205.217 127.899C205.217 128.095 205.138 128.284 204.999 128.423C204.86 128.562 204.672 128.64 204.475 128.64Z" fill="white"/>
<path d="M204.475 131.241H200.919C200.723 131.24 200.535 131.162 200.396 131.023C200.257 130.884 200.179 130.696 200.179 130.499C200.179 130.303 200.257 130.115 200.396 129.976C200.535 129.837 200.723 129.758 200.919 129.758H204.475C204.672 129.758 204.86 129.836 204.999 129.975C205.138 130.114 205.217 130.303 205.217 130.499C205.217 130.696 205.138 130.884 204.999 131.024C204.86 131.163 204.672 131.241 204.475 131.241Z" fill="white"/>
<path d="M246.796 199.613C246.796 199.664 246.786 199.715 246.766 199.762C246.747 199.809 246.719 199.851 246.683 199.887C246.647 199.923 246.604 199.952 246.557 199.971C246.51 199.99 246.46 200 246.409 200H0.591225C0.488642 200 0.390265 199.959 0.317729 199.887C0.245192 199.814 0.204437 199.716 0.204437 199.613C0.204437 199.511 0.245192 199.412 0.317729 199.34C0.390265 199.267 0.488642 199.227 0.591225 199.227H246.409C246.46 199.226 246.51 199.236 246.557 199.256C246.604 199.275 246.647 199.304 246.683 199.34C246.719 199.375 246.747 199.418 246.766 199.465C246.786 199.512 246.796 199.563 246.796 199.613Z" fill="#CCCCCC"/>
<path d="M65.0492 175.932L64.4045 166.965C60.1813 164.853 55.5065 163.805 50.7861 163.911C57.427 169.044 56.8951 179.303 61.4943 186.325C62.9455 188.503 64.8684 190.328 67.1206 191.663C69.3728 192.997 71.8964 193.808 74.5045 194.035L80.0314 197.214C80.6636 193.036 80.3824 188.77 79.2072 184.71C78.0319 180.651 75.9906 176.894 73.2238 173.7C71.6539 171.923 69.8665 170.351 67.9038 169.021C66.6957 172.489 65.0492 175.932 65.0492 175.932Z" fill="#F2F2F2"/>
<path d="M181.951 177.231L182.595 168.264C186.819 166.153 191.494 165.105 196.214 165.21C189.573 170.344 190.105 180.603 185.506 187.624C184.054 189.803 182.132 191.628 179.879 192.962C177.627 194.297 175.104 195.108 172.495 195.335L166.969 198.514C166.336 194.336 166.618 190.07 167.793 186.01C168.968 181.951 171.009 178.194 173.776 175C175.346 173.223 177.133 171.651 179.096 170.321C180.304 173.789 181.951 177.231 181.951 177.231Z" fill="#F2F2F2"/>
<path d="M120.575 76.0387C123.985 76.0387 126.75 73.2738 126.75 69.8631C126.75 66.4524 123.985 63.6875 120.575 63.6875C117.164 63.6875 114.399 66.4524 114.399 69.8631C114.399 73.2738 117.164 76.0387 120.575 76.0387Z" fill="#A92428"/>
<path d="M123.745 67.2894C123.652 67.2008 123.529 67.1514 123.4 67.1514C123.272 67.1514 123.148 67.2008 123.055 67.2894C121.745 68.3345 120.568 69.5367 119.551 70.8689C119.301 70.3858 119.052 69.9027 118.802 69.4195C118.514 68.8619 117.672 69.3545 117.96 69.9117C118.325 70.6184 118.69 71.325 119.056 72.0317C119.1 72.1038 119.162 72.1634 119.235 72.2048C119.309 72.2461 119.392 72.2679 119.477 72.2679C119.561 72.2679 119.644 72.2461 119.718 72.2048C119.792 72.1634 119.854 72.1038 119.898 72.0317C120.981 70.5052 122.277 69.1406 123.745 67.9789C123.836 67.8871 123.886 67.7633 123.886 67.6342C123.886 67.5051 123.836 67.3812 123.745 67.2894Z" fill="white"/>
<path d="M92.9421 87.3748L83.6295 72.7499L94.4133 66.9746L97.2437 78.1328L117.186 88.9091C117.973 88.6258 118.826 88.5777 119.64 88.7706C120.455 88.9635 121.195 89.3892 121.772 89.9957C122.348 90.6022 122.736 91.3633 122.887 92.1863C123.038 93.0092 122.947 93.8585 122.624 94.6304C122.301 95.4023 121.761 96.0637 121.068 96.5337C120.376 97.0037 119.562 97.2622 118.725 97.2776C117.889 97.2929 117.066 97.0646 116.357 96.6203C115.648 96.176 115.083 95.535 114.732 94.7754L92.9421 87.3748Z" fill="#A0616A"/>
<path d="M76.8256 55.2088C73.8996 59.5049 84.2981 75.121 84.2981 75.121C84.8046 74.0291 89.6471 86.291 90.4582 85.5667C92.7633 83.5081 96.3718 77.7736 98.3776 77.518C99.5247 77.3718 95.7172 69.2367 95.7172 69.2367C95.7172 69.2367 93.9772 64.433 91.6159 58.2966C90.9806 56.5494 89.9135 54.9913 88.514 53.7675C87.1145 52.5436 85.4281 51.6937 83.6117 51.2969C83.6117 51.2969 79.7517 50.9126 76.8256 55.2088Z" fill="#3F3D56"/>
<path d="M76.9686 195.178L81.3913 195.177L83.4952 178.118L76.9676 178.118L76.9686 195.178Z" fill="#A0616A"/>
<path d="M75.8402 193.734L77.0851 193.734L81.9453 191.758L84.5502 193.734H84.5506C86.0227 193.734 87.4345 194.319 88.4754 195.36C89.5164 196.401 90.1012 197.813 90.1013 199.285V199.465L75.8405 199.466L75.8402 193.734Z" fill="#2F2E41"/>
<path d="M97.5157 195.178L101.938 195.177L104.043 178.118L97.5151 178.118L97.5157 195.178Z" fill="#A0616A"/>
<path d="M96.3876 193.734L97.6324 193.734L102.493 191.758L105.098 193.734H105.098C106.57 193.734 107.982 194.319 109.023 195.36C110.064 196.401 110.649 197.813 110.649 199.285V199.465L96.3878 199.466L96.3876 193.734Z" fill="#2F2E41"/>
<path d="M99.4302 101.914L70.6626 102.633C65.199 105.601 65.1161 112.024 66.9062 119.649C66.9062 119.649 66.3019 124.182 67.5106 125.391C68.7192 126.599 69.3236 126.599 68.7192 128.714C68.1149 130.83 71.3079 134.284 70.92 134.672C70.5322 135.06 69.6257 137.175 69.6257 137.175L72.6474 154.399C72.6474 154.399 74.7626 184.313 75.3669 184.917C75.9712 185.522 76.5756 184.917 75.9712 186.428C75.3669 187.939 74.7626 187.335 75.3669 187.939C75.9022 188.516 76.4065 189.121 76.8777 189.752H84.1833C84.1833 189.752 84.7341 186.73 84.7341 186.428C84.7341 186.126 85.3384 184.313 85.3384 184.011C85.3384 183.709 84.8042 183.175 84.8042 183.175C84.6197 182.56 84.495 181.93 84.4319 181.291C84.4319 180.687 82.6189 157.42 82.6189 157.42L86.2449 127.204L95.0077 156.816C95.0077 156.816 95.0077 182.802 95.612 183.407C96.2164 184.011 96.2164 183.709 95.9142 184.917C95.612 186.126 94.4034 185.824 95.3099 186.73C96.2164 187.637 96.5185 186.126 96.2164 187.637L95.9142 189.148L104.979 189.277C104.979 189.277 106.188 186.73 105.584 185.824C104.979 184.917 105.015 185.165 105.753 183.681C106.49 182.198 106.792 181.896 106.49 181.594C106.188 181.291 106.188 179.684 106.188 179.684L104.677 150.773C104.677 150.773 104.375 120.254 104.375 119.347C104.352 118.881 104.438 118.415 104.626 117.988V116.757L103.468 112.397L99.4302 101.914Z" fill="#2F2E41"/>
<path d="M82.1491 42.0962C87.0855 42.0962 91.0873 38.0944 91.0873 33.158C91.0873 28.2215 87.0855 24.2197 82.1491 24.2197C77.2126 24.2197 73.2108 28.2215 73.2108 33.158C73.2108 38.0944 77.2126 42.0962 82.1491 42.0962Z" fill="#A0616A"/>
<path d="M86.6182 48.0034C88.5438 49.1482 89.6958 51.2516 90.357 53.392C91.5812 57.3547 92.3181 61.4518 92.5514 65.5927L93.2498 77.9898L101.9 104.387C94.4031 110.73 66.2246 105.828 66.2246 105.828C66.2246 105.828 65.3596 105.54 66.2246 104.675C67.0895 103.81 67.9316 104.576 67.0666 103.711C66.2017 102.846 66.7979 103.81 67.0863 102.945C67.3746 102.08 67.0863 102.657 66.798 102.368C66.5096 102.08 69.03 99.4852 69.03 99.4852L66.7234 84.333L63.8401 53.77C67.3001 49.4451 74.2585 46.8955 74.2585 46.8955L76.0565 43.6592L85.0464 44.3784L86.6182 48.0034Z" fill="#3F3D56"/>
<path d="M89.5173 28.4095C90.2119 28.9276 90.7266 29.6506 90.9888 30.4766C91.0895 29.1267 91.0959 27.7715 91.008 26.4207C90.9026 25.4715 90.2343 25.258 89.4605 25.0106C88.7617 24.787 87.9714 24.5346 87.7588 23.6131C84.9491 20.8798 80.0581 21.0176 76.7107 21.971C74.8689 22.4957 73.809 23.1697 73.7142 23.5646L73.6946 23.6459L73.6198 23.6833C72.2 24.3932 71.9236 26.6349 71.9419 28.3904C71.9765 31.6978 73.1185 35.4543 73.7618 35.7594C73.7959 35.7756 73.8045 35.7692 73.8192 35.757C74.7879 34.9828 75.9698 35.8158 76.4892 36.2686C76.7955 34.213 77.7818 32.3193 79.2907 30.89C80.7995 29.4607 82.7438 28.5782 84.813 28.3835C85.4888 28.3182 86.1591 28.2058 86.8192 28.0471C87.1541 27.9605 87.4983 27.9153 87.8441 27.9126C88.4395 27.9036 89.0233 28.077 89.5173 28.4095Z" fill="#2F2E41"/>
<path d="M145.005 109.036L162.199 91.576L166.729 77.6117L159.439 74.6631C155.828 78.3057 152.11 89.4568 152.11 89.4568L140.375 105.207C140.281 105.242 140.188 105.279 140.096 105.322C139.555 105.578 139.09 105.968 138.745 106.455C138.399 106.943 138.185 107.511 138.124 108.105C138.062 108.7 138.155 109.3 138.393 109.848C138.631 110.396 139.007 110.873 139.483 111.234C139.96 111.594 140.521 111.826 141.113 111.906C141.705 111.986 142.308 111.912 142.863 111.691C143.418 111.47 143.907 111.109 144.282 110.644C144.657 110.179 144.906 109.625 145.005 109.036Z" fill="#FFB8B8"/>
<path d="M157.45 76.2606L166.669 78.9275L166.704 78.9208C170.092 78.2629 172.773 72.6314 174.425 68.023C174.968 66.5031 174.914 64.8334 174.274 63.3517C173.633 61.87 172.454 60.6867 170.975 60.0411C169.88 59.5722 168.676 59.4188 167.499 59.5983C166.322 59.7778 165.218 60.283 164.313 61.0569L159.717 65.0148L157.45 76.2606Z" fill="#A92428"/>
<path d="M149.563 194.66L144.605 194.659L142.246 175.536L149.564 175.536L149.563 194.66Z" fill="#FFB8B8"/>
<path d="M150.828 193.041L149.432 193.041L143.984 190.825L141.064 193.041H141.063C139.413 193.041 137.83 193.696 136.664 194.863C135.497 196.03 134.841 197.613 134.841 199.263V199.465L150.827 199.466L150.828 193.041Z" fill="#2F2E41"/>
<path d="M171.562 194.66L166.604 194.659L164.246 175.536L171.563 175.536L171.562 194.66Z" fill="#FFB8B8"/>
<path d="M172.827 193.041L171.431 193.041L165.983 190.825L163.063 193.041H163.062C161.412 193.041 159.83 193.696 158.663 194.863C157.496 196.03 156.84 197.613 156.84 199.263V199.465L172.826 199.466L172.827 193.041Z" fill="#2F2E41"/>
<path d="M179.122 112.288C179.122 112.288 179.701 119.235 178.253 125.893C176.806 132.55 176.806 151.3 176.806 151.3L173.622 187.838L164.07 186.969L161.465 125.893L152.202 146.444L153.07 149.339L151.914 150.063C151.914 150.063 152.781 155.707 152.202 155.707C151.623 155.707 150.176 156.576 150.176 156.576L151.333 186.39L141.492 186.101L138.018 144.129L141.781 120.103L142.071 115.472L143.373 115.526L144.037 113.591L145.255 110.262L179.122 112.288Z" fill="#2F2E41"/>
<path d="M179.622 113.747L179.674 113.675C182.429 109.817 178.285 100.548 177.66 99.2045L180.293 98.3502L179.7 93.3114L179.419 91.0649L181.431 89.053L181.437 89.0028L182.594 78.8717L184.278 72.1426C184.912 69.5988 184.858 66.932 184.121 64.416C183.384 61.9 181.991 59.6254 180.085 57.8257L176.193 54.1567L171.464 47.1592H163.838L161.223 52.0984C158.688 52.6843 156.438 54.1411 154.867 56.2149C153.295 58.2887 152.501 60.8481 152.622 63.4473L153.215 76.4015L150.895 92.5305L150.894 95.4494L148.283 98.3511L148.853 101.202L146.866 102.053L145.988 106.148C145.625 106.627 143.229 109.822 143.229 110.696C143.229 110.827 143.325 110.954 143.533 111.095C145.166 112.201 154.194 114.455 158.19 112.857C162.446 111.155 179.364 113.708 179.534 113.734L179.622 113.747Z" fill="#A92428"/>
<path d="M166.666 44.9005C172.244 44.9005 176.766 40.3785 176.766 34.8004C176.766 29.2222 172.244 24.7002 166.666 24.7002C161.088 24.7002 156.566 29.2222 156.566 34.8004C156.566 40.3785 161.088 44.9005 166.666 44.9005Z" fill="#FFB8B8"/>
<path d="M165.698 45.0635C167.262 45.0476 168.822 44.898 170.361 44.6165C171.885 44.2655 175.246 41.6666 176.162 40.1312C176.842 38.9905 177.251 37.226 177.473 35.9468C177.774 34.2537 177.716 32.5164 177.303 30.8472C176.89 29.1781 176.131 27.6143 175.075 26.2571C174.668 25.6886 174.115 25.2406 173.474 24.9606C173.417 24.9401 173.359 24.9222 173.3 24.9071C172.372 24.6882 171.529 24.1967 170.882 23.4957C170.756 23.3537 170.621 23.221 170.476 23.0986C169.75 22.5171 168.896 22.1158 167.985 21.9274C166.513 21.5739 164.407 22.0168 161.727 23.2451C160.38 23.8621 158.886 23.69 157.734 23.4711C157.669 23.4603 157.603 23.4667 157.541 23.4895C157.48 23.5123 157.426 23.5508 157.384 23.6011C156.908 24.0713 156.272 24.344 155.604 24.3645C155.195 24.393 154.78 24.9711 154.28 25.7239C154.166 25.8947 154.034 26.0942 153.937 26.2159L153.918 25.9873L153.693 26.2486C153.34 26.6594 153.095 27.1529 152.984 27.6834C152.872 28.2138 152.897 28.7639 153.055 29.2823C153.213 29.8008 153.5 30.2708 153.889 30.6485C154.277 31.0263 154.755 31.2996 155.278 31.4428C155.693 31.5418 156.117 31.5982 156.543 31.611C156.801 31.6276 157.068 31.6447 157.325 31.6824C158.15 31.8292 158.922 32.1872 159.567 32.7216C160.211 33.2559 160.707 33.9484 161.004 34.7312C161.074 34.9122 161.185 35.0745 161.328 35.2058C161.471 35.3371 161.642 35.4338 161.828 35.4884C162.014 35.5431 162.211 35.5542 162.402 35.5209C162.593 35.4877 162.774 35.4109 162.931 35.2966C163.192 35.0824 163.5 34.9346 163.831 34.8655C164.161 34.7965 164.503 34.8085 164.828 34.9003C165.11 35.0479 165.333 35.2881 165.46 35.5807C165.612 35.9063 165.859 36.1791 166.167 36.3641C167.219 36.8724 167.351 39.2408 167.03 41.2263C166.72 43.1402 166.045 44.5363 165.389 44.6214C164.884 44.6869 164.827 44.7243 164.793 44.8148L164.762 44.8958L164.821 44.9693C165.103 45.0634 165.403 45.0956 165.698 45.0635Z" fill="#2F2E41"/>
<path d="M157.319 77.3412L152.464 71.1553C147.519 72.517 138.744 80.3383 138.744 80.3383L120.724 88.1583C120.122 88.0572 119.505 88.1164 118.933 88.3298C118.362 88.5433 117.857 88.9034 117.469 89.3741C117.081 89.8447 116.824 90.4093 116.724 91.0108C116.624 91.6124 116.684 92.2298 116.898 92.8009C117.112 93.3719 117.473 93.8765 117.944 94.2638C118.415 94.6511 118.98 94.9075 119.581 95.0071C120.183 95.1067 120.8 95.0461 121.371 94.8313C121.942 94.6165 122.446 94.2551 122.833 93.7835L146.439 87.1979L157.319 77.3412Z" fill="#FFB8B8"/>
<path d="M156.155 78.7551L163.815 70.2157L164.241 64.165C164.32 62.9768 164.065 61.7901 163.505 60.7391C162.945 59.6881 162.103 58.8147 161.073 58.2175C159.671 57.4173 158.017 57.1793 156.446 57.5516C154.876 57.924 153.505 58.8789 152.611 60.2233C149.905 64.3026 146.993 69.818 148.491 72.9277L148.506 72.9592L156.155 78.7551Z" fill="#A92428"/>
<path d="M85.5508 110.852L65.6412 100.655C64.2251 99.9298 63.756 98.006 64.5955 96.3667L77.577 71.0196C78.4166 69.3802 80.2518 68.6366 81.6679 69.3619L101.577 79.5585C102.994 80.2838 103.463 82.2076 102.623 83.8469L89.6417 109.194C88.8022 110.833 86.967 111.577 85.5508 110.852Z" fill="#E6E6E6"/>
<path d="M82.149 106.164L68.6222 99.2365C67.2959 98.5573 66.8565 96.7556 67.6428 95.2203L78.4276 74.1623C79.2139 72.627 80.9327 71.9306 82.259 72.6099L98.5966 80.9772C99.923 81.6565 100.362 83.458 99.5759 84.9934L93.7171 96.4332C90.2146 103.272 88.057 109.19 82.149 106.164Z" fill="white"/>
<path d="M88.837 94.6646L76.8559 88.5286C76.7094 88.4242 76.6054 88.2706 76.5627 88.0958C76.5201 87.9211 76.5418 87.7368 76.6238 87.5767C76.7058 87.4166 76.8426 87.2913 77.0093 87.2238C77.1761 87.1562 77.3615 87.1509 77.5318 87.2088L89.5129 93.3449C89.6594 93.4493 89.7635 93.6029 89.8061 93.7776C89.8487 93.9524 89.827 94.1366 89.745 94.2967C89.663 94.4568 89.5262 94.5821 89.3595 94.6496C89.1928 94.7172 89.0073 94.7225 88.837 94.6646Z" fill="#A92428"/>
<path d="M78.2547 92.5363L75.5205 91.136C75.374 91.0316 75.2699 90.878 75.2273 90.7033C75.1847 90.5285 75.2064 90.3443 75.2884 90.1842C75.3704 90.024 75.5072 89.8988 75.6739 89.8312C75.8406 89.7637 76.0261 89.7583 76.1964 89.8162L78.9306 91.2165C79.0771 91.3209 79.1812 91.4745 79.2238 91.6493C79.2664 91.824 79.2447 92.0083 79.1627 92.1684C79.0807 92.3285 78.9439 92.4538 78.7772 92.5213C78.6104 92.5889 78.425 92.5942 78.2547 92.5363Z" fill="#A92428"/>
<path d="M81.7618 97.6239L74.185 93.7435C74.0385 93.6391 73.9345 93.4855 73.8919 93.3107C73.8492 93.1359 73.8709 92.9517 73.9529 92.7916C74.0349 92.6315 74.1718 92.5062 74.3385 92.4386C74.5052 92.3711 74.6907 92.3658 74.861 92.4236L82.4378 96.3041C82.5843 96.4085 82.6884 96.5621 82.731 96.7368C82.7736 96.9116 82.7519 97.0958 82.6699 97.256C82.5879 97.4161 82.4511 97.5413 82.2843 97.6089C82.1176 97.6764 81.9322 97.6818 81.7618 97.6239V97.6239Z" fill="#A92428"/>
<path d="M93.5782 85.4068L81.5971 79.2707C81.4506 79.1664 81.3465 79.0128 81.3039 78.838C81.2613 78.6632 81.283 78.479 81.365 78.3189C81.447 78.1588 81.5838 78.0335 81.7505 77.966C81.9173 77.8984 82.1027 77.8931 82.273 77.951L94.2541 84.0871C94.4006 84.1914 94.5047 84.345 94.5473 84.5198C94.5899 84.6945 94.5682 84.8788 94.4862 85.0389C94.4042 85.199 94.2674 85.3243 94.1007 85.3918C93.934 85.4594 93.7485 85.4647 93.5782 85.4068Z" fill="#A92428"/>
<path d="M82.9959 83.2785L80.2617 81.8782C80.1152 81.7738 80.0111 81.6202 79.9685 81.4455C79.9259 81.2707 79.9476 81.0864 80.0296 80.9263C80.1116 80.7662 80.2484 80.641 80.4151 80.5734C80.5819 80.5059 80.7673 80.5005 80.9376 80.5584L83.6718 81.9587C83.8183 82.0631 83.9224 82.2167 83.965 82.3915C84.0076 82.5662 83.9859 82.7505 83.9039 82.9106C83.8219 83.0707 83.6851 83.196 83.5184 83.2635C83.3517 83.3311 83.1662 83.3364 82.9959 83.2785Z" fill="#A92428"/>
<path d="M86.5031 88.3661L78.9262 84.4856C78.7798 84.3813 78.6757 84.2276 78.6331 84.0529C78.5905 83.8781 78.6121 83.6939 78.6941 83.5338C78.7761 83.3736 78.913 83.2484 79.0797 83.1808C79.2464 83.1133 79.4319 83.1079 79.6022 83.1658L87.179 87.0463C87.3255 87.1507 87.4296 87.3043 87.4722 87.479C87.5148 87.6538 87.4931 87.838 87.4111 87.9981C87.3291 88.1582 87.1923 88.2835 87.0256 88.3511C86.8588 88.4186 86.6734 88.424 86.5031 88.3661L86.5031 88.3661Z" fill="#A92428"/>
<path d="M69.0526 88.7846L64.5547 72.0399L76.5742 69.7646L75.9278 81.2581L91.7204 97.5192C92.5564 97.485 93.3844 97.6948 94.1032 98.1231C94.8221 98.5513 95.4009 99.1795 95.7689 99.931C96.137 100.682 96.2784 101.525 96.176 102.355C96.0736 103.186 95.7318 103.968 95.1922 104.608C94.6527 105.248 93.9387 105.716 93.1373 105.957C92.3359 106.198 91.4818 106.2 90.6791 105.964C89.8764 105.728 89.1597 105.263 88.6165 104.627C88.0734 103.99 87.7271 103.209 87.62 102.379L69.0526 88.7846Z" fill="#A0616A"/>
<path d="M63.3248 53.2659C59.245 56.4868 64.4815 74.5027 64.4815 74.5027C65.2922 73.6129 66.2343 86.7627 67.2253 86.315C70.0417 85.0424 75.2039 80.6542 77.194 81.0119C78.3321 81.2164 77.1397 72.3139 77.1397 72.3139C77.1397 72.3139 76.9204 67.2094 76.5082 60.6474C76.4261 58.7901 75.8754 56.9837 74.9073 55.3964C73.9393 53.8092 72.5854 52.4926 70.9717 51.5694C70.9717 51.5694 67.4046 50.0451 63.3248 53.2659Z" fill="#3F3D56"/>
<path d="M131.209 125.951L120.345 120.821C120.112 120.711 119.908 120.551 119.746 120.352C119.585 120.152 119.47 119.919 119.412 119.669C119.353 119.424 119.35 119.17 119.404 118.924C119.458 118.678 119.566 118.448 119.721 118.25C122.869 114.228 125.03 109.524 126.031 104.516C126.107 104.133 126.313 103.787 126.615 103.539C126.917 103.291 127.296 103.155 127.686 103.154C133.227 103.173 137.369 105.196 139.995 109.167C140.133 109.374 140.225 109.608 140.264 109.854C140.302 110.099 140.287 110.35 140.218 110.589C138.698 115.83 136.384 120.807 133.358 125.348C133.133 125.691 132.792 125.941 132.397 126.052C132.002 126.163 131.58 126.127 131.209 125.951Z" fill="#E6E6E6"/>
<path d="M134.405 118.755L126.098 114.832C125.892 114.735 125.732 114.559 125.655 114.344C125.578 114.129 125.589 113.892 125.687 113.685C125.785 113.479 125.96 113.319 126.175 113.242C126.391 113.165 126.628 113.176 126.834 113.274L135.141 117.197C135.244 117.245 135.336 117.313 135.412 117.397C135.488 117.481 135.546 117.579 135.585 117.685C135.623 117.792 135.64 117.905 135.634 118.018C135.629 118.131 135.601 118.242 135.553 118.344C135.504 118.446 135.436 118.538 135.353 118.614C135.269 118.69 135.171 118.749 135.064 118.787C134.958 118.825 134.845 118.842 134.732 118.837C134.619 118.831 134.508 118.803 134.405 118.755H134.405Z" fill="white"/>
<path d="M135.696 116.023L127.389 112.1C127.182 112.002 127.023 111.827 126.946 111.612C126.868 111.396 126.88 111.159 126.977 110.953C127.075 110.746 127.251 110.587 127.466 110.51C127.681 110.432 127.918 110.444 128.125 110.541L136.432 114.464C136.639 114.562 136.798 114.738 136.875 114.953C136.952 115.168 136.941 115.405 136.843 115.611C136.746 115.818 136.57 115.978 136.355 116.055C136.14 116.132 135.903 116.12 135.696 116.023V116.023Z" fill="white"/>
<path d="M124.596 30.2328L123.822 30.3175C120.375 16.7688 113.692 7.38238 104.496 3.17285C92.805 -2.1782 78.349 1.41513 63.7907 13.2911C49.1583 25.2276 36.2048 44.0822 27.3166 66.3825L26.5663 66.0391C35.4935 43.6414 48.5135 24.6957 63.2279 12.6928C78.016 0.629247 92.767 -2.99043 104.763 2.50073C114.223 6.83087 121.081 16.4205 124.596 30.2328Z" fill="#F2F2F2"/>
<path d="M39.2835 47.8784C37.2613 52.1385 35.3379 56.5519 33.5665 60.996C23.3734 86.5702 18.208 112.688 18.6301 136.528L17.8334 136.443C17.4109 112.515 22.5912 86.3066 32.8162 60.6527C34.5926 56.196 36.5216 51.7701 38.5496 47.498L39.2835 47.8784Z" fill="#F2F2F2"/>
<path d="M38.9012 65.4507C36.879 69.7108 34.9555 74.1242 33.1842 78.5683C22.991 104.142 17.8256 130.26 18.2477 154.1L17.4511 154.015C17.0285 130.087 22.2088 103.879 32.4339 78.2249C34.2103 73.7683 36.1392 69.3424 38.1673 65.0703L38.9012 65.4507Z" fill="#F2F2F2"/>
<path d="M17.4893 71.8415C18.37 70.5179 17.8487 68.623 16.3251 67.6094C14.8015 66.5957 12.8524 66.847 11.9718 68.1706C11.0911 69.4943 11.6123 71.3891 13.136 72.4028C14.6596 73.4165 16.6087 73.1652 17.4893 71.8415Z" fill="#CCCCCC"/>
<path d="M205.013 119.643C205.894 118.32 205.373 116.425 203.849 115.411C202.325 114.397 200.376 114.649 199.496 115.972C198.615 117.296 199.136 119.191 200.66 120.205C202.184 121.218 204.133 120.967 205.013 119.643Z" fill="#CCCCCC"/>
</g>
<defs>
<clipPath id="clip0_617_43447">
<rect width="246.591" height="200" fill="white" transform="translate(0.204437)"/>
</clipPath>
</defs>
</svg>
