<svg width="24" height="20" viewBox="0 0 24 20" fill="none" xmlns="http://www.w3.org/2000/svg">
<g clip-path="url(#clip0_657_12809)">
<path d="M10.2 11.25H7.8C7.64087 11.25 7.48826 11.1842 7.37574 11.0669C7.26321 10.9497 7.2 10.7908 7.2 10.625V8.125C7.2 7.95924 7.26321 7.80027 7.37574 7.68306C7.48826 7.56585 7.64087 7.5 7.8 7.5H10.2C10.3591 7.5 10.5117 7.56585 10.6243 7.68306C10.7368 7.80027 10.8 7.95924 10.8 8.125V9.575C11.2166 9.07187 11.8125 8.75 12.48 8.75H17.6152L17.8646 8.45586C17.9459 8.35039 17.9932 8.22098 18 8.08594C17.9915 7.92969 17.9281 7.78216 17.8219 7.67148L15.6 5.625V1.875C15.6 1.70924 15.5368 1.55027 15.4243 1.43306C15.3117 1.31585 15.1591 1.25 15 1.25H13.8C13.6409 1.25 13.4883 1.31585 13.3757 1.43306C13.2632 1.55027 13.2 1.70924 13.2 1.875V3.41016L9.88125 0.348437C9.675 0.15625 9.27938 0 9.00188 0C8.72438 0 8.3295 0.15625 8.12175 0.348437L0.17925 7.67266C0.0723873 7.78251 0.00850618 7.9298 0 8.08594C0.00647762 8.21969 0.0530344 8.34797 0.133125 8.45273L0.83775 9.28516C0.94411 9.39696 1.08661 9.46352 1.2375 9.47188C1.36491 9.46523 1.48723 9.41775 1.58775 9.33594L2.4 8.58906V15C2.4 15.3315 2.52643 15.6495 2.75147 15.8839C2.97652 16.1183 3.28174 16.25 3.6 16.25H10.2V11.25ZM23.5999 17.5H22.2V11.25C22.2 10.5598 21.7166 10 21.12 10H12.48C11.8834 10 11.4 10.5598 11.4 11.25V17.5H10.0001C9.89401 17.5 9.79223 17.5439 9.71719 17.6221C9.64216 17.7002 9.6 17.8063 9.6 17.9168V18.3332C9.60148 18.7743 9.77018 19.197 10.0694 19.5091C10.3686 19.8213 10.774 19.9977 11.1975 20H22.4025C22.826 19.9977 23.2314 19.8213 23.5306 19.5091C23.8298 19.197 23.9985 18.7743 24 18.3332V17.9168C24 17.8063 23.9578 17.7002 23.8828 17.6221C23.8078 17.5439 23.706 17.5 23.5999 17.5ZM20.4 17.5H13.2V11.875H20.4V17.5Z" fill="white"/>
</g>
<defs>
<clipPath id="clip0_657_12809">
<rect width="24" height="20" fill="white"/>
</clipPath>
</defs>
</svg>
