<svg width="267" height="236" viewBox="0 0 267 236" fill="none" xmlns="http://www.w3.org/2000/svg">
<g clip-path="url(#clip0_303_25251)">
<path d="M254.374 234.987L254.02 234.854C253.942 234.825 246.198 231.858 242.571 225.131C238.943 218.403 240.719 210.302 240.738 210.221L240.821 209.853L241.175 209.985C241.253 210.015 248.997 212.982 252.625 219.709C256.252 226.437 254.476 234.537 254.458 234.618L254.374 234.987ZM243.152 224.817C246.219 230.506 252.338 233.421 253.889 234.087C254.183 232.425 255.108 225.705 252.044 220.022C248.98 214.34 242.858 211.42 241.307 210.753C241.012 212.416 240.087 219.135 243.152 224.817Z" fill="#3F3D56"/>
<path d="M245.343 222.771C251.862 226.693 254.373 234.484 254.373 234.484C254.373 234.484 246.314 235.915 239.795 231.993C233.275 228.071 230.764 220.28 230.764 220.28C230.764 220.28 238.824 218.849 245.343 222.771Z" fill="#A92428"/>
<path d="M140.386 126.18C140.702 125.692 141.118 125.275 141.606 124.959C142.094 124.642 142.644 124.432 143.219 124.342C143.794 124.252 144.381 124.285 144.943 124.439C145.504 124.592 146.027 124.862 146.476 125.231C146.618 125.349 146.752 125.476 146.876 125.612L163.111 123.249L164.015 111.04C164.084 110.103 164.523 109.233 165.234 108.619C165.945 108.006 166.871 107.7 167.807 107.769C168.744 107.839 169.615 108.277 170.228 108.988C170.841 109.699 171.147 110.625 171.078 111.562C171.076 111.583 171.075 111.605 171.073 111.627L169.49 128.758L169.482 128.796C169.276 129.455 168.864 130.029 168.305 130.434C167.747 130.84 167.073 131.054 166.383 131.046L147.286 130.717C147.212 130.83 147.132 130.939 147.047 131.044C146.677 131.493 146.217 131.86 145.696 132.119C145.175 132.379 144.605 132.525 144.024 132.549C143.442 132.573 142.862 132.473 142.322 132.257C141.782 132.041 141.293 131.714 140.888 131.296C140.806 131.212 140.728 131.125 140.654 131.035C140.104 130.357 139.782 129.523 139.734 128.651C139.685 127.779 139.914 126.915 140.386 126.18Z" fill="#FFB7B7"/>
<path d="M173.119 230.274L168.488 230.273L166.285 212.413L173.12 212.413L173.119 230.274Z" fill="#FFB7B7"/>
<path d="M174.3 234.763L159.369 234.762V234.573C159.369 233.032 159.981 231.554 161.071 230.464C162.161 229.374 163.639 228.762 165.18 228.762H165.181L174.3 228.762L174.3 234.763Z" fill="#2F2E41"/>
<path d="M205.476 226.076L201.093 227.57L193.242 211.377L199.711 209.171L205.476 226.076Z" fill="#FFB7B7"/>
<path d="M208.043 229.943L193.911 234.763L193.85 234.584C193.353 233.125 193.455 231.529 194.135 230.145C194.814 228.762 196.016 227.705 197.474 227.208L197.475 227.207L206.106 224.264L208.043 229.943Z" fill="#2F2E41"/>
<path d="M178.218 74.1068C178.218 74.1068 173.609 72.5847 170.646 78.6731C167.683 84.7616 163.074 91.4588 163.074 91.4588L165.708 92.0677C165.708 92.0677 166.366 87.8058 168.012 87.1969L167.354 92.6765C167.354 92.6765 187.106 99.0694 195.995 92.0677L195.666 89.9367C195.666 89.9367 196.983 90.2412 196.983 92.0677L197.97 91.1544C197.97 91.1544 196.983 89.3279 194.02 86.8925C192.075 85.2941 191.407 82.253 191.177 80.3516C190.995 78.7419 190.305 77.2321 189.207 76.0412C187.238 73.9311 183.65 71.6883 178.218 74.1068Z" fill="#2F2E41"/>
<path d="M179.917 95.3783C184.566 95.3783 188.335 91.6095 188.335 86.9604C188.335 82.3113 184.566 78.5425 179.917 78.5425C175.268 78.5425 171.499 82.3113 171.499 86.9604C171.499 91.6095 175.268 95.3783 179.917 95.3783Z" fill="#FFB7B7"/>
<path d="M168.693 102.31L167.162 101.8C167.162 101.8 164.101 103.075 164.101 105.371C164.101 107.667 163.591 116.85 163.591 116.85L170.478 117.615L168.693 102.31Z" fill="#CBCBCB"/>
<path d="M196.087 152.485C195.452 151.774 195.093 150.859 195.077 149.905C195.06 148.952 195.386 148.024 195.995 147.291L191.699 111.308C191.657 110.46 191.953 109.629 192.523 108.999C193.092 108.368 193.889 107.99 194.737 107.946C195.586 107.902 196.417 108.197 197.048 108.766C197.68 109.334 198.06 110.13 198.105 110.978C198.106 110.99 198.106 111.002 198.107 111.013L201.951 147.035C202.09 147.174 202.218 147.325 202.335 147.484C202.643 147.911 202.864 148.394 202.986 148.906C203.108 149.417 203.127 149.948 203.044 150.468C202.961 150.987 202.776 151.485 202.5 151.933C202.224 152.381 201.862 152.77 201.436 153.079C201.392 153.111 201.347 153.142 201.302 153.172C200.808 153.498 200.248 153.712 199.662 153.796C199.077 153.881 198.479 153.835 197.913 153.662C197.207 153.448 196.574 153.04 196.087 152.485Z" fill="#FFB7B7"/>
<path d="M192.151 116.85L199.039 116.085C199.039 116.085 198.529 106.902 198.529 104.606C198.529 102.31 195.468 101.035 195.468 101.035L193.937 101.545L192.151 116.85Z" fill="#CBCBCB"/>
<path d="M169.713 129.592C169.713 129.592 163.846 140.319 163.846 153.328C163.846 166.338 163.336 226.028 163.336 226.028C163.336 226.028 170.989 229.6 175.58 225.263L179.662 159.195L195.732 223.988C195.732 223.988 203.385 225.518 206.956 222.967L200.069 177.817C200.069 177.817 197.263 135.472 189.61 132.411C181.957 129.35 169.713 129.592 169.713 129.592Z" fill="#2F2E41"/>
<path d="M170.82 87.014C173.8 84.8574 176.213 82.3733 177.808 79.4184C177.808 79.4184 183.277 85.4949 186.619 85.7987C189.961 86.1025 186.923 78.5069 186.923 78.5069L180.847 76.9878L175.074 77.5954L170.517 80.6337L170.82 87.014Z" fill="#2F2E41"/>
<path d="M188.335 99.504C188.335 99.504 188.578 99.3736 174.05 99.9027L167.97 101.577L167.162 101.8C167.162 101.8 167.928 117.105 169.968 119.911C172.009 122.717 171.499 124.248 170.989 124.503C170.478 124.758 169.203 124.248 169.968 125.523C170.733 126.798 171.754 126.033 170.733 126.798C169.713 127.564 169.203 130.37 169.203 130.37L191.651 133.431C191.651 133.431 192.416 123.482 194.457 118.38C196.497 113.279 197.008 111.238 197.008 111.238L195.477 101.034L188.335 99.504Z" fill="#CBCBCB"/>
<path d="M145.657 55.9934H144.366V20.6306C144.366 15.2024 142.21 9.99656 138.371 6.15824C134.533 2.31993 129.327 0.163583 123.899 0.163574L48.9781 0.163574C43.5499 0.163559 38.344 2.31988 34.5057 6.15818C30.6674 9.99648 28.511 15.2023 28.511 20.6305V214.634C28.511 220.062 30.6673 225.268 34.5056 229.106C38.3439 232.944 43.5498 235.101 48.978 235.101H123.899C126.587 235.101 129.248 234.571 131.731 233.543C134.214 232.514 136.471 231.007 138.371 229.106C140.272 227.205 141.779 224.949 142.808 222.466C143.837 219.983 144.366 217.321 144.366 214.634V81.1652H145.657L145.657 55.9934Z" fill="#3F3D56"/>
<path d="M140.01 20.7743V214.492C140.012 216.497 139.619 218.484 138.853 220.337C138.087 222.191 136.964 223.875 135.547 225.295C134.13 226.714 132.447 227.84 130.595 228.609C128.743 229.379 126.758 229.775 124.752 229.777H49.4443C45.3933 229.78 41.5071 228.173 38.6406 225.311C35.7741 222.449 34.1621 218.565 34.1592 214.514V20.7743C34.1578 18.7685 34.5515 16.782 35.3178 14.9283C36.0841 13.0746 37.208 11.39 38.6254 9.97062C40.0427 8.55127 41.7257 7.42498 43.5784 6.65607C45.431 5.88716 47.4169 5.49068 49.4228 5.48926H58.5764C58.1267 6.59185 57.955 7.78813 58.0766 8.97269C58.1981 10.1573 58.6092 11.2937 59.2734 12.282C59.9377 13.2703 60.8349 14.08 61.8859 14.6399C62.9368 15.1997 64.1094 15.4925 65.3001 15.4924H108.222C109.413 15.4925 110.586 15.1997 111.637 14.6399C112.688 14.08 113.585 13.2703 114.249 12.282C114.913 11.2937 115.324 10.1573 115.446 8.97269C115.568 7.78813 115.396 6.59185 114.946 5.48926H124.725C128.775 5.48563 132.661 7.09109 135.527 9.95246C138.394 12.8138 140.006 16.6967 140.01 20.7469V20.7743L140.01 20.7743Z" fill="white"/>
<path d="M140.01 49.4343V42.836H130.023V6.43287C128.327 5.80645 126.533 5.48694 124.725 5.48927H123.425V42.836H88.7836V15.4924H82.1853V42.836H53.1525V5.4893H49.4443C48.4744 5.48779 47.5066 5.57949 46.5542 5.76314V42.836H34.1592V49.4343H46.5542V64.6965L34.1594 71.8523V79.4734L46.5542 72.3176V117.727H34.1592V124.326H46.5542V189.979H34.1592V196.578H46.5542V229.503C47.5066 229.687 48.4744 229.779 49.4443 229.777H53.1525V196.577H82.1853V229.777H88.7836V196.577H123.425V229.777H124.725C126.533 229.779 128.327 229.46 130.023 228.834V196.578H140.01V189.979H130.023V161.276H139.921V154.678H130.023V124.326H140.01V117.727H130.023V77.4773H140.01V70.879H130.023V49.4343L140.01 49.4343ZM72.9907 49.4343L72.9906 49.4344L53.1527 60.8891L53.1525 60.8892V49.4343H72.9907ZM53.1525 68.507L53.1527 68.507L82.1853 51.7439V117.727H53.1525V68.507ZM53.1525 189.979V124.326H82.1853V189.979H53.1525ZM123.425 189.979H88.7836V161.276H123.425V189.979ZM123.425 154.678H88.7836V124.326H123.425V154.678ZM123.425 117.727H88.7836V77.4773H123.425V117.727ZM123.425 70.879H88.7836V49.4343H123.425V70.879Z" fill="#E5E5E5"/>
<path d="M145.529 71.0011C145.529 91.955 107.589 138.634 107.589 138.634C107.589 138.634 69.6485 91.955 69.6485 71.0011C69.6485 60.9386 73.6457 51.2883 80.761 44.1731C87.8762 37.0578 97.5265 33.0605 107.589 33.0605C117.651 33.0605 127.302 37.0578 134.417 44.1731C141.532 51.2883 145.529 60.9386 145.529 71.0011Z" fill="#A92428"/>
<path d="M130.024 69.3514C130.024 73.7885 128.708 78.1259 126.243 81.8153C123.778 85.5046 120.274 88.38 116.175 90.078C112.075 91.7761 107.565 92.2203 103.213 91.3547C98.8608 90.4891 94.8634 88.3524 91.7259 85.2149C88.5884 82.0774 86.4517 78.08 85.5861 73.7281C84.7204 69.3763 85.1647 64.8655 86.8627 60.7661C88.5607 56.6668 91.4362 53.163 95.1255 50.6979C98.8148 48.2327 103.152 46.917 107.589 46.917C110.534 46.9156 113.45 47.4943 116.172 48.62C118.893 49.7456 121.365 51.3963 123.449 53.4776C125.532 55.5589 127.185 58.0301 128.313 60.7502C129.441 63.4703 130.022 66.386 130.024 69.3308V69.3514Z" fill="white"/>
<path d="M107.511 78.2075C112.127 78.2075 115.869 74.4656 115.869 69.8496C115.869 65.2337 112.127 61.4917 107.511 61.4917C102.895 61.4917 99.1534 65.2337 99.1534 69.8496C99.1534 74.4656 102.895 78.2075 107.511 78.2075Z" fill="#A92428"/>
<path d="M119.641 88.9385C116.038 91.2295 111.857 92.4461 107.587 92.4455C103.318 92.4449 99.1365 91.2272 95.5342 88.9352C96.2834 86.3163 97.8651 84.0127 100.04 82.3729C102.215 80.7331 104.865 79.8463 107.589 79.8467C110.313 79.8471 112.963 80.7346 115.137 82.375C117.312 84.0154 118.893 86.3194 119.641 88.9385Z" fill="#A92428"/>
<path d="M107.589 166.017C113.237 166.017 117.816 161.438 117.816 155.79C117.816 150.141 113.237 145.562 107.589 145.562C101.941 145.562 97.3615 150.141 97.3615 155.79C97.3615 161.438 101.941 166.017 107.589 166.017Z" fill="#A92428"/>
<path d="M265.824 235.3H0.570037C0.482538 235.3 0.398622 235.265 0.336751 235.203C0.274879 235.141 0.24012 235.058 0.24012 234.97C0.24012 234.883 0.274879 234.799 0.336751 234.737C0.398622 234.675 0.482538 234.64 0.570037 234.64H265.824C265.911 234.64 265.995 234.675 266.057 234.737C266.119 234.799 266.154 234.883 266.154 234.97C266.154 235.058 266.119 235.141 266.057 235.203C265.995 235.265 265.911 235.3 265.824 235.3Z" fill="#CBCBCB"/>
</g>
<defs>
<clipPath id="clip0_303_25251">
<rect width="265.914" height="235.136" fill="white" transform="translate(0.240112 0.163574)"/>
</clipPath>
</defs>
</svg>
