<svg width="245" height="200" viewBox="0 0 245 200" fill="none" xmlns="http://www.w3.org/2000/svg">
<g clip-path="url(#clip0_440_38821)">
<path d="M125.635 47.4768H124.538V17.4048C124.538 12.7887 122.705 8.36176 119.441 5.09774C116.177 1.83371 111.75 2.27036e-09 107.134 2.27036e-09H43.4206C41.135 -3.69136e-05 38.8717 0.450114 36.7601 1.32475C34.6484 2.19939 32.7297 3.48138 31.1135 5.09754C29.4973 6.71369 28.2152 8.63236 27.3405 10.744C26.4658 12.8556 26.0156 15.1189 26.0156 17.4045V182.382C26.0156 184.668 26.4658 186.931 27.3404 189.042C28.2151 191.154 29.4971 193.073 31.1133 194.689C32.7295 196.305 34.6482 197.587 36.7598 198.462C38.8715 199.336 41.1347 199.787 43.4203 199.787H107.133C111.749 199.787 116.176 197.953 119.44 194.689C122.704 191.425 124.538 186.998 124.538 182.382V68.8825H125.634L125.635 47.4768Z" fill="#3F3D56"/>
<path d="M120.989 16.2393V183.547C120.988 187.047 119.598 190.404 117.123 192.879C114.649 195.354 111.293 196.745 107.793 196.746H42.7729C39.2718 196.746 35.9138 195.356 33.4375 192.881C30.9612 190.406 29.5695 187.049 29.5685 183.547V16.2393C29.5695 12.7382 30.9612 9.38096 33.4373 6.90586C35.9134 4.43077 39.2713 3.04057 42.7724 3.04102H50.6597C50.2724 3.9934 50.125 5.02634 50.2304 6.04904C50.3359 7.07174 50.6909 8.05289 51.2643 8.90625C51.8377 9.7596 52.612 10.459 53.519 10.9431C54.4261 11.4271 55.4381 11.681 56.4662 11.6823H93.5353C94.5634 11.681 95.5755 11.4271 96.4825 10.9431C97.3896 10.459 98.1638 9.7596 98.7373 8.90625C99.3107 8.05289 99.6657 7.07174 99.7711 6.04904C99.8765 5.02634 99.7291 3.9934 99.3419 3.04102H107.791C111.29 3.04161 114.647 4.43198 117.122 6.90646C119.597 9.38094 120.988 12.737 120.989 16.2368V16.2393Z" fill="white"/>
<path d="M105.895 160.853H45.8471C43.6874 160.851 41.6169 159.992 40.0898 158.465C38.5627 156.938 37.7037 154.867 37.7013 152.707V68.2335C37.7013 47.7233 54.3874 31.0371 74.8975 31.0371H105.895C108.055 31.0395 110.125 31.8985 111.652 33.4256C113.179 34.9527 114.038 37.0232 114.041 39.1828V152.707C114.038 154.867 113.179 156.938 111.652 158.465C110.125 159.992 108.055 160.851 105.895 160.853Z" fill="#E6E6E6"/>
<path d="M42.2501 181.187C44.6377 181.187 46.5732 179.252 46.5732 176.864C46.5732 174.477 44.6377 172.541 42.2501 172.541C39.8626 172.541 37.9271 174.477 37.9271 176.864C37.9271 179.252 39.8626 181.187 42.2501 181.187Z" fill="#E6E6E6"/>
<path d="M109.577 181.187C111.965 181.187 113.9 179.252 113.9 176.864C113.9 174.477 111.965 172.541 109.577 172.541C107.19 172.541 105.254 174.477 105.254 176.864C105.254 179.252 107.19 181.187 109.577 181.187Z" fill="#E6E6E6"/>
<path d="M110.163 160.686L107.483 163.607L94.9431 154.66L98.8985 150.35L110.163 160.686Z" fill="#FFB6B6"/>
<path d="M113.678 162.539L105.036 171.956L104.917 171.847C103.945 170.955 103.367 169.713 103.311 168.395C103.254 167.077 103.723 165.79 104.615 164.818L104.615 164.818L104.889 161.9L109.139 159.888L109.893 159.066L113.678 162.539Z" fill="#2F2E41"/>
<path d="M111.915 193.277L107.952 193.277L106.066 177.988L111.916 177.989L111.915 193.277Z" fill="#FFB6B6"/>
<path d="M112.926 197.121L100.145 197.12V196.959C100.145 195.639 100.67 194.374 101.603 193.441C102.535 192.508 103.801 191.984 105.12 191.984H105.12L107.455 190.213L111.811 191.984L112.926 191.984L112.926 197.121Z" fill="#2F2E41"/>
<path d="M92.7741 116.098C92.7741 116.098 68.5601 139.477 83.8678 146.713H88.5991C88.5991 146.713 90.0209 141.662 93.2759 137.402C93.723 136.817 95.3976 136.936 95.8626 136.366C98.7022 132.885 101.781 129.895 103.907 130.014L105.298 146.156L104.612 150.888C104.18 153.866 104.293 156.899 104.948 159.836L104.463 178.72L112.953 178.725C112.953 178.725 113.296 174.299 113.583 168.764C113.66 167.281 114.298 166.248 114.359 164.669C114.506 160.885 114.02 156.481 113.926 153.393L120.328 119.437L92.7741 116.098Z" fill="#2F2E41"/>
<path d="M103.958 66.5625L100.01 71.8441L90.5469 77.4101L96.1128 91.8826L96.3239 102.651L95.8059 103.95L96.3911 106.077C96.3911 106.077 96.1211 108.567 94.6815 110.415C92.1645 113.647 88.3212 117.16 92.2164 118.045C98.3395 119.437 120.049 122.498 121.162 119.993C121.547 119.127 121.499 115.463 121.272 111.041C121.229 110.214 120.316 109.314 120.262 108.447C120.222 107.797 121.044 107.186 121 106.526C120.503 99.1766 119.77 91.6046 119.77 91.6046L121.949 71.3413L113.235 69.0925L112.256 66.5984L103.958 66.5625Z" fill="#A92428"/>
<path d="M82.7051 145.325L83.9993 146.96C83.9993 146.96 95.9027 155.288 96.3114 156.066L98.1926 157.846L102.744 152.981L100.377 150.014C98.483 147.639 96.0356 145.766 93.2492 144.556L89.6215 141.338L82.7051 145.325Z" fill="#2F2E41"/>
<path d="M90.2686 121.95L92.4363 100.969L93.0084 92.3334L86.9412 91.2363C86.9412 91.2363 86.0327 97.1727 85.2379 100.656C84.4535 104.094 86.2828 121.49 86.3312 121.948C85.8857 122.347 85.5716 122.871 85.4305 123.452C85.2894 124.033 85.3279 124.643 85.541 125.201C85.7542 125.76 86.1318 126.24 86.624 126.58C87.1162 126.919 87.6997 127.1 88.2975 127.101C88.8952 127.101 89.4789 126.92 89.9715 126.581C90.464 126.242 90.8421 125.762 91.0557 125.204C91.2694 124.646 91.3085 124.036 91.168 123.455C91.0274 122.874 90.7138 122.349 90.2686 121.95Z" fill="#FFB9B9"/>
<path d="M82.4297 104.495L92.9034 107.153L92.8307 104.213L93.6256 103.37L95.2138 95.0502L97.4925 90.1764L96.9002 73.5098L91.1126 76.5793L91.1055 76.5848C90.0949 77.6966 89.2496 78.9482 88.5958 80.301C86.414 84.7365 84.3181 94.5062 83.2209 100.181C83.1833 100.3 83.1105 100.405 83.0122 100.481C82.468 100.981 82.1128 101.653 82.0067 102.384C81.9005 103.115 82.0499 103.861 82.4297 104.495L82.4297 104.495Z" fill="#A92428"/>
<path d="M144.628 109.85C144.628 109.85 131.877 96.4076 131.758 96.1542C130.867 89.3904 128.306 86.4069 127.922 86.7308L121.31 89.0214C121.31 89.0214 123.277 95.2492 124.608 98.9485C125.88 102.483 140.545 111.117 140.79 111.543C140.527 112.123 140.446 112.77 140.559 113.396C140.671 114.023 140.972 114.601 141.42 115.054C141.868 115.506 142.443 115.812 143.068 115.931C143.694 116.049 144.341 115.975 144.924 115.718C145.506 115.461 145.997 115.033 146.332 114.491C146.666 113.949 146.828 113.318 146.795 112.682C146.763 112.046 146.539 111.435 146.152 110.929C145.765 110.424 145.233 110.047 144.628 109.85H144.628Z" fill="#FFB9B9"/>
<path d="M115.971 71.8039C115.971 71.8039 122.461 68.6229 124.979 74.8705C126.359 78.3975 129.888 86.9575 131.647 92.2269C131.659 92.2604 131.675 92.2922 131.695 92.3214C132.166 93.0204 132.42 93.8427 132.425 94.6853C132.424 94.7466 132.431 94.8078 132.444 94.8677C132.444 94.8677 125.312 96.2573 123.19 99.9959L122.349 99.0828L122.199 98.443L116.046 82.0234L115.971 71.8039Z" fill="#A92428"/>
<path d="M221.966 97.3034H145.976C145.299 97.3026 144.65 97.0333 144.171 96.5545C143.693 96.0758 143.423 95.4266 143.423 94.7495V83.6203C143.423 82.9432 143.693 82.294 144.171 81.8153C144.65 81.3365 145.299 81.0672 145.976 81.0664H221.966C222.643 81.0672 223.292 81.3365 223.771 81.8153C224.25 82.294 224.519 82.9432 224.52 83.6203V94.7495C224.519 95.4266 224.25 96.0758 223.771 96.5545C223.292 97.0333 222.643 97.3026 221.966 97.3034Z" fill="#E6E6E6"/>
<path d="M214.583 95.5814H147.699C147.022 95.5806 146.373 95.3113 145.894 94.8325C145.416 94.3538 145.146 93.7046 145.146 93.0276V85.3449C145.146 84.6678 145.416 84.0187 145.894 83.5399C146.373 83.0611 147.022 82.7918 147.699 82.791H220.243C220.92 82.7918 221.57 83.0611 222.048 83.5399C222.527 84.0187 222.796 84.6678 222.797 85.3449V87.3669C222.795 89.5447 221.929 91.6327 220.389 93.1727C218.849 94.7127 216.761 95.579 214.583 95.5814Z" fill="white"/>
<path d="M191.512 88.3934H160.97C160.795 88.3934 160.628 88.3241 160.504 88.2005C160.381 88.077 160.311 87.9095 160.311 87.7348C160.311 87.5601 160.381 87.3926 160.504 87.2691C160.628 87.1456 160.795 87.0762 160.97 87.0762H191.512C191.686 87.0762 191.854 87.1456 191.978 87.2691C192.101 87.3926 192.17 87.5601 192.17 87.7348C192.17 87.9095 192.101 88.077 191.978 88.2005C191.854 88.3241 191.686 88.3934 191.512 88.3934Z" fill="#A92428"/>
<path d="M206.973 91.0868H160.97C160.795 91.0868 160.628 91.0174 160.504 90.8939C160.381 90.7704 160.311 90.6028 160.311 90.4282C160.311 90.2535 160.381 90.086 160.504 89.9624C160.628 89.8389 160.795 89.7695 160.97 89.7695H206.973C207.147 89.7695 207.315 89.8389 207.438 89.9624C207.562 90.086 207.631 90.2535 207.631 90.4282C207.631 90.6028 207.562 90.7704 207.438 90.8939C207.315 91.0174 207.147 91.0868 206.973 91.0868Z" fill="#E6E6E6"/>
<path d="M221.966 120.917H145.976C145.299 120.916 144.65 120.647 144.171 120.168C143.693 119.689 143.423 119.04 143.423 118.363V107.234C143.423 106.556 143.693 105.907 144.171 105.429C144.65 104.95 145.299 104.68 145.976 104.68H221.966C222.643 104.68 223.292 104.95 223.771 105.429C224.25 105.907 224.519 106.556 224.52 107.234V118.363C224.519 119.04 224.25 119.689 223.771 120.168C223.292 120.647 222.643 120.916 221.966 120.917Z" fill="#E6E6E6"/>
<path d="M214.583 119.193H147.699C147.022 119.192 146.373 118.923 145.894 118.444C145.416 117.965 145.146 117.316 145.146 116.639V108.956C145.146 108.279 145.416 107.63 145.894 107.151C146.373 106.672 147.022 106.403 147.699 106.402H220.243C220.92 106.403 221.57 106.672 222.048 107.151C222.527 107.63 222.796 108.279 222.797 108.956V110.978C222.795 113.156 221.929 115.244 220.389 116.784C218.849 118.324 216.761 119.19 214.583 119.193Z" fill="white"/>
<path d="M191.512 112.007H160.97C160.883 112.007 160.798 111.99 160.718 111.957C160.638 111.923 160.565 111.875 160.504 111.814C160.443 111.753 160.394 111.68 160.361 111.6C160.328 111.52 160.311 111.435 160.311 111.348C160.311 111.262 160.328 111.176 160.361 111.096C160.394 111.016 160.443 110.944 160.504 110.882C160.565 110.821 160.638 110.773 160.718 110.74C160.798 110.706 160.883 110.689 160.97 110.689H191.512C191.686 110.689 191.854 110.759 191.978 110.882C192.101 111.006 192.17 111.173 192.17 111.348C192.17 111.523 192.101 111.69 191.978 111.814C191.854 111.937 191.686 112.007 191.512 112.007Z" fill="#A92428"/>
<path d="M206.973 114.7H160.97C160.883 114.7 160.798 114.683 160.718 114.65C160.638 114.617 160.565 114.568 160.504 114.507C160.443 114.446 160.394 114.373 160.361 114.293C160.328 114.214 160.311 114.128 160.311 114.041C160.311 113.955 160.328 113.869 160.361 113.789C160.394 113.709 160.443 113.637 160.504 113.576C160.565 113.515 160.638 113.466 160.718 113.433C160.798 113.4 160.883 113.383 160.97 113.383H206.973C207.147 113.383 207.315 113.452 207.438 113.576C207.562 113.699 207.631 113.867 207.631 114.041C207.631 114.216 207.562 114.384 207.438 114.507C207.315 114.631 207.147 114.7 206.973 114.7Z" fill="#E6E6E6"/>
<path d="M221.966 144.53H145.976C145.299 144.529 144.65 144.26 144.171 143.781C143.693 143.302 143.423 142.653 143.423 141.976V130.847C143.423 130.17 143.693 129.521 144.171 129.042C144.65 128.563 145.299 128.294 145.976 128.293H221.966C222.643 128.294 223.292 128.563 223.771 129.042C224.25 129.521 224.519 130.17 224.52 130.847V141.976C224.519 142.653 224.25 143.302 223.771 143.781C223.292 144.26 222.643 144.529 221.966 144.53Z" fill="#E6E6E6"/>
<path d="M214.583 142.806H147.699C147.022 142.805 146.373 142.536 145.894 142.057C145.416 141.578 145.146 140.929 145.146 140.252V132.569C145.146 131.892 145.416 131.243 145.894 130.764C146.373 130.286 147.022 130.016 147.699 130.016H220.243C220.92 130.016 221.57 130.286 222.048 130.764C222.527 131.243 222.796 131.892 222.797 132.569V134.591C222.795 136.769 221.929 138.857 220.389 140.397C218.849 141.937 216.761 142.804 214.583 142.806Z" fill="white"/>
<path d="M191.512 135.62H160.97C160.795 135.62 160.628 135.551 160.504 135.427C160.381 135.304 160.311 135.136 160.311 134.961C160.311 134.787 160.381 134.619 160.504 134.496C160.628 134.372 160.795 134.303 160.97 134.303H191.512C191.686 134.303 191.854 134.372 191.978 134.496C192.101 134.619 192.17 134.787 192.17 134.961C192.17 135.136 192.101 135.304 191.978 135.427C191.854 135.551 191.686 135.62 191.512 135.62Z" fill="#A92428"/>
<path d="M206.973 138.313H160.97C160.795 138.313 160.628 138.244 160.504 138.12C160.381 137.997 160.311 137.829 160.311 137.655C160.311 137.48 160.381 137.313 160.504 137.189C160.628 137.065 160.795 136.996 160.97 136.996H206.973C207.147 136.996 207.315 137.065 207.438 137.189C207.562 137.313 207.631 137.48 207.631 137.655C207.631 137.829 207.562 137.997 207.438 138.12C207.315 138.244 207.147 138.313 206.973 138.313Z" fill="#E6E6E6"/>
<path d="M108.118 64.8676C112.508 64.8676 116.066 61.3094 116.066 56.9201C116.066 52.5309 112.508 48.9727 108.118 48.9727C103.729 48.9727 100.171 52.5309 100.171 56.9201C100.171 61.3094 103.729 64.8676 108.118 64.8676Z" fill="#FFB9B9"/>
<path d="M102.275 62.0317C102.179 62.0321 102.085 62.0168 101.994 61.9865C101.64 61.831 101.343 61.5675 101.147 61.2334C99.7788 59.2654 99.1181 56.6416 99.1836 53.4346C99.2113 52.0779 99.3649 50.3432 100.315 48.9605C101.114 47.7978 102.73 46.8751 104.237 47.3383C104.219 47.0371 104.286 46.737 104.43 46.4716C104.573 46.2062 104.788 45.9859 105.049 45.8352C105.619 45.4858 106.306 45.4214 106.912 45.3645C108.442 45.2211 110.023 45.0729 111.572 45.3664C113.309 45.6959 114.73 46.5911 115.469 47.8226L115.484 47.8613L115.634 48.5911C115.654 48.6892 115.696 48.7817 115.755 48.8624C115.814 48.943 115.891 49.0098 115.978 49.0582C116.066 49.1066 116.163 49.1354 116.263 49.1426C116.363 49.1498 116.463 49.1353 116.557 49.1C116.659 49.0615 116.77 49.0504 116.878 49.0676C116.986 49.0849 117.087 49.13 117.173 49.1986C117.258 49.2671 117.324 49.3566 117.364 49.4584C117.404 49.5601 117.416 49.6706 117.401 49.7788L117.359 50.069L117.796 49.9873C117.905 49.9669 118.018 49.9759 118.123 50.0133C118.227 50.0506 118.32 50.1151 118.392 50.2001C118.464 50.2851 118.511 50.3876 118.531 50.4971C118.55 50.6066 118.54 50.7193 118.501 50.8236L118.378 51.1574C118.468 51.1579 118.557 51.177 118.64 51.2135C118.723 51.2499 118.797 51.3029 118.859 51.3692C118.947 51.4642 119.003 51.585 119.018 51.7139C119.033 51.8428 119.006 51.9731 118.941 52.0857C118.453 52.9207 117.76 53.6176 116.928 54.1109C116.474 54.3844 115.977 54.58 115.457 54.6894C112.088 55.4165 108.615 55.5209 105.208 54.9976C105.41 55.6695 105.488 56.3725 105.437 57.0722C105.328 57.9472 104.815 58.6692 104.129 58.9116C103.972 58.9624 103.813 59.0009 103.65 59.0269C103.495 59.051 103.343 59.0882 103.194 59.1379C102.973 59.2189 102.778 59.3567 102.627 59.5373C102.477 59.7179 102.377 59.935 102.337 60.1666C102.298 60.3983 102.32 60.6363 102.401 60.8566C102.483 61.077 102.621 61.2719 102.802 61.4218L103.141 61.0692L103.031 61.5174C103.008 61.6047 102.967 61.6861 102.91 61.7564C102.854 61.8268 102.783 61.8844 102.703 61.9257C102.571 61.9959 102.424 62.0324 102.275 62.0317Z" fill="#2F2E41"/>
<path d="M212.832 182.032L213.154 174.802C216.506 173.01 220.245 172.064 224.045 172.045C218.815 176.322 219.468 184.566 215.922 190.317C214.802 192.102 213.295 193.612 211.512 194.736C209.729 195.86 207.716 196.567 205.622 196.807L201.245 199.488C200.644 196.139 200.776 192.7 201.633 189.407C202.489 186.115 204.049 183.047 206.205 180.416C207.43 178.951 208.833 177.647 210.383 176.534C211.432 179.298 212.832 182.032 212.832 182.032Z" fill="#F2F2F2"/>
<path d="M244.173 199.665C244.173 199.709 244.165 199.752 244.148 199.793C244.131 199.833 244.107 199.87 244.075 199.901C244.044 199.933 244.007 199.957 243.967 199.974C243.926 199.991 243.883 199.999 243.839 199.999H1.16142C1.0727 199.999 0.98762 199.964 0.924886 199.901C0.862152 199.838 0.826904 199.753 0.826904 199.665C0.826904 199.576 0.862152 199.491 0.924886 199.428C0.98762 199.365 1.0727 199.33 1.16142 199.33H243.839C243.883 199.33 243.926 199.339 243.967 199.355C244.007 199.372 244.044 199.397 244.075 199.428C244.107 199.459 244.131 199.496 244.148 199.536C244.165 199.577 244.173 199.621 244.173 199.665Z" fill="#CCCCCC"/>
</g>
<defs>
<clipPath id="clip0_440_38821">
<rect width="243.346" height="200" fill="white" transform="translate(0.826904)"/>
</clipPath>
</defs>
</svg>
