<svg width="254" height="200" viewBox="0 0 254 200" fill="none" xmlns="http://www.w3.org/2000/svg">
<g clip-path="url(#clip0_303_24843)">
<path d="M70.4404 195.591L74.9669 195.077L75.1397 177.374L68.4592 178.132L70.4404 195.591Z" fill="#FFB8B8"/>
<path d="M84.1731 198.289L69.9474 199.904L69.3237 194.407L78.0531 193.417C79.5109 193.251 80.9746 193.672 82.1223 194.586C83.27 195.499 84.0077 196.832 84.1731 198.289H84.1731Z" fill="#2F2E41"/>
<path d="M23.8897 195.308H28.4452L30.6122 177.736L23.8889 177.737L23.8897 195.308Z" fill="#FFB8B8"/>
<path d="M37.2308 199.537L22.9138 199.538L22.9135 194.006L31.6989 194.006C33.166 194.006 34.573 194.589 35.6104 195.626C36.6478 196.663 37.2307 198.07 37.2308 199.537Z" fill="#2F2E41"/>
<path d="M56.5739 116.732L59.1749 125.192L73.2947 155.747L77.0104 184.73L68.4642 185.101L63.2622 158.348L45.4267 139.026L29.8206 189.56L22.7607 188.817C22.7607 188.817 28.7058 123.42 36.8805 116.732C36.8805 116.732 50.2571 110.415 56.5739 116.732Z" fill="#2F2E41"/>
<path d="M45.0361 80.2262C50.0764 80.2262 54.1623 76.1403 54.1623 71.1C54.1623 66.0597 50.0764 61.9738 45.0361 61.9738C39.9958 61.9738 35.9099 66.0597 35.9099 71.1C35.9099 76.1403 39.9958 80.2262 45.0361 80.2262Z" fill="#FFB8B8"/>
<path d="M57.5028 118.404C57.5028 118.404 58.6175 80.5035 43.0114 83.1046C27.4054 85.7056 33.9079 122.306 33.9079 122.306C33.9079 122.306 37.2521 128.994 45.4267 121.562C53.6013 114.131 57.5028 118.404 57.5028 118.404Z" fill="#CCCCCC"/>
<path opacity="0.2" d="M35.9517 99.0824L39.624 113.159L45.2188 118.754L37.438 116.175L35.9517 99.0824Z" fill="black"/>
<path d="M57.6181 134.433C57.1046 134.247 56.6381 133.95 56.2516 133.564C55.8651 133.178 55.5678 132.712 55.3809 132.199C55.194 131.686 55.1218 131.138 55.1696 130.594C55.2173 130.049 55.3838 129.522 55.6573 129.05L46.9778 119.001L53.8201 118.11L61.0133 127.789C61.7772 128.301 62.3267 129.076 62.5577 129.966C62.7887 130.856 62.6852 131.8 62.2667 132.619C61.8482 133.438 61.1438 134.075 60.2871 134.409C59.4303 134.744 58.4807 134.752 57.6181 134.433H57.6181Z" fill="#FFB8B8"/>
<path d="M47.0504 90.8242L48.0277 110.044L59.5464 124.907L54.716 128.622L39.1099 113.016C39.1099 113.016 33.5363 94.0659 37.6236 88.4923C39.1563 86.4022 40.8458 85.8275 42.359 85.9254C43.604 86.0291 44.7681 86.5844 45.6322 87.4866C46.4963 88.3889 47.0007 89.5759 47.0504 90.8242Z" fill="#CCCCCC"/>
<path d="M43.9507 80.6893C43.9943 80.6502 44.0281 80.6015 44.0496 80.5471C44.0711 80.4926 44.0796 80.4339 44.0744 80.3756C44.0693 80.3173 44.0506 80.261 44.0199 80.2112C43.9892 80.1614 43.9472 80.1194 43.8975 80.0886C43.087 79.5867 42.4268 78.8758 41.986 78.0306C41.5452 77.1854 41.3402 76.237 41.3925 75.2852C41.4448 74.3334 41.7525 73.4133 42.2833 72.6215C42.814 71.8296 43.5482 71.1954 44.4088 70.7853C47.0919 69.506 50.7278 70.5013 52.7113 68.043C53.1147 67.517 53.3999 66.9103 53.5476 66.2641C53.6952 65.6179 53.7018 64.9475 53.5669 64.2985C53.1389 61.9767 51.3934 60.2524 49.4386 59.0707C47.0373 57.619 44.2774 56.869 41.4716 56.9054C38.6659 56.9419 35.9264 57.7635 33.5637 59.2771C31.2009 60.7908 29.3093 62.9359 28.1032 65.4694C26.8971 68.003 26.4247 70.8237 26.7395 73.612C26.9918 75.8467 27.6814 78.3524 26.3526 80.1668C25.1831 81.7636 22.9757 82.063 21.0366 82.4598C16.8775 83.3108 12.8651 85.2741 10.0426 88.4452C7.22022 91.6163 5.71453 96.0655 6.5655 100.225C7.41647 104.384 10.8304 108.039 15.0265 108.683C18.4418 109.208 21.9684 107.758 24.4765 105.381C26.9846 103.004 28.5699 99.7941 29.5699 96.4865C30.7567 92.5606 31.2249 88.3303 33.3677 84.8332C35.4645 81.4111 39.9831 78.958 43.5246 80.7402C43.5925 80.7757 43.6695 80.7898 43.7455 80.7807C43.8216 80.7716 43.8931 80.7397 43.9507 80.6892V80.6893Z" fill="#2F2E41"/>
<path d="M114.709 200H0.635856C0.537308 200 0.442791 199.961 0.373108 199.891C0.303424 199.821 0.264282 199.727 0.264282 199.628C0.264282 199.53 0.303424 199.435 0.373108 199.366C0.442791 199.296 0.537308 199.257 0.635856 199.257H114.709C114.808 199.257 114.902 199.296 114.972 199.366C115.041 199.435 115.081 199.53 115.081 199.628C115.081 199.727 115.041 199.821 114.972 199.891C114.902 199.961 114.808 200 114.709 200Z" fill="#3F3D56"/>
<path d="M229.945 73.4898C229.924 84.0151 225.967 94.1519 218.851 101.907C211.736 109.663 201.976 114.476 191.492 115.401C181.007 116.326 170.556 113.295 162.192 106.904C153.829 100.514 148.159 91.2262 146.296 80.867C144.434 70.5078 146.514 59.8266 152.127 50.9232C157.741 42.0198 166.482 35.5383 176.632 32.753C186.782 29.9676 197.607 31.0799 206.978 35.8712C216.35 40.6624 223.59 48.786 227.276 58.6449C227.368 58.8924 227.457 59.14 227.545 59.3899V59.3923C227.934 60.491 228.276 61.6102 228.573 62.7498C229.487 66.2566 229.948 69.8659 229.945 73.4898Z" fill="#3F3D56"/>
<path d="M182.86 44.8554C180.953 43.824 178.836 43.2418 176.669 43.1531C174.503 43.0645 172.344 43.4718 170.359 44.3439C168.611 45.1046 166.771 46.4692 166.188 48.9334C168.546 47.5416 171.599 49.7406 172.206 53.2682L172.064 53.3073C171.743 55.7507 172.459 58.4109 173.844 59.9259C173.947 59.2423 174.201 58.5902 174.588 58.017C174.974 57.4438 175.483 56.9638 176.079 56.6121C177.096 55.943 178.222 55.457 178.999 54.307C179.92 52.9436 180.154 50.951 180.52 49.1333C180.886 47.3156 181.58 45.3619 182.86 44.8554Z" fill="#A92428"/>
<path d="M169.66 65.6476C169.007 66.6285 168.134 67.2439 167.351 68.0102C166.448 68.8322 165.855 69.9405 165.673 71.1484C165.574 72.002 165.727 72.8696 165.706 73.7326C165.684 74.5956 165.397 75.567 164.81 75.7816C163.883 76.1164 163.176 74.3952 162.223 74.2749C161.466 74.1806 160.785 75.3713 161.004 76.404C161.223 77.4368 162.254 77.8942 162.846 77.2199C163.381 78.1182 163.004 79.7475 162.2 80.0233C162.115 80.5892 162.03 81.1527 161.947 81.7186C159.915 80.2968 157.861 78.8515 156.133 76.7695C154.211 74.4736 153.018 71.6557 152.709 68.6774C152.485 66.2842 152.818 63.5468 151.719 61.7053C150.839 60.2317 149.33 59.9063 147.972 59.9982C147.725 60.0147 147.475 60.043 147.227 60.0737C148.028 57.6681 149.045 55.34 150.266 53.118C150.543 52.9994 150.8 52.8396 151.028 52.6441C152.292 51.5713 152.853 49.3997 153.879 47.8978C153.945 47.8011 154.013 47.7068 154.084 47.6148C155.133 46.2449 156.538 45.5399 157.896 44.8844C160.903 43.4249 163.996 41.9466 167.17 42.1493L166.267 42.2366C165.213 45.1886 164.158 48.1406 163.102 51.0927C162.942 51.5453 162.78 51.9988 162.617 52.4531C162.018 54.1319 161.4 55.9191 161.492 57.7983C161.546 58.9112 161.933 60.0996 162.669 60.4816C163.355 60.8352 164.105 60.4014 164.767 59.9722C165.048 59.7931 165.326 59.6138 165.606 59.4323C166.613 58.7839 167.729 58.119 168.792 58.5528C169.766 58.9489 170.485 60.2717 170.622 61.6982C170.747 63.0848 170.409 64.4739 169.66 65.6476Z" fill="#A92428"/>
<path d="M175.648 85.8018C172.707 83.9913 169.767 82.1808 166.826 80.3704L166.876 80.2418C165.048 80.9382 164.289 84.1879 164.591 86.8456C164.893 89.5032 165.918 91.879 166.435 94.4685C167.133 98.0122 166.87 101.678 165.672 105.086C169.539 100.747 172.961 96.032 175.887 91.0109C176.295 90.378 176.607 89.6875 176.81 88.9622C177.026 88.1893 176.949 87.3639 176.594 86.6441C176.354 86.289 176.028 85.9995 175.648 85.8018Z" fill="#A92428"/>
<path d="M164.043 52.8639C163.697 53.6053 163.644 54.4495 163.894 55.2284C164.184 55.8559 164.71 56.3434 165.358 56.5846L166.983 57.39C167.523 57.6579 168.106 57.9285 168.657 57.7081C169.321 57.4422 169.782 56.4003 169.663 55.433C169.536 54.4037 168.887 53.6957 168.287 53.0928C167.448 52.249 166.608 51.4053 165.768 50.5615L165.295 51.1412C164.783 51.6404 164.36 52.2229 164.043 52.8639Z" fill="#A92428"/>
<path d="M221.235 63.8674C221.966 64.0396 222.697 64.2117 223.428 64.3838C223.3 66.8525 222.077 69.1372 220.436 69.9648C219.752 70.309 218.99 70.4363 218.424 71.0801C217.913 71.6648 217.653 72.5749 217.415 73.4449C216.998 74.9634 216.581 76.4818 216.163 78.0003C215.715 79.6366 215.14 81.4545 213.975 82.044C212.976 82.5509 211.832 81.9308 211.063 80.891C210.295 79.8512 209.825 78.453 209.37 77.0902C209.399 78.5756 208.708 80.0328 207.729 80.5491C206.748 81.0655 205.555 80.5986 204.9 79.4457C204.428 78.6181 204.233 77.5264 203.771 76.687C203.308 75.8476 202.339 75.3666 201.835 76.1541C201.502 76.6776 201.545 77.4792 201.38 78.1441C201.297 78.5856 201.078 78.9902 200.754 79.3016C200.431 79.613 200.018 79.8159 199.574 79.8819C199.165 79.8725 198.763 79.7801 198.391 79.6102C198.019 79.4404 197.686 79.1967 197.411 78.8939C195.968 77.4169 195.028 75.5213 194.726 73.478C194.521 72.4983 194.547 71.4845 194.801 70.5165C195.091 69.5994 195.792 68.8921 196.487 69.0665C196.945 68.0997 196.042 66.8171 195.228 66.9303C194.412 67.0435 193.773 67.9182 193.104 68.5902C192.436 69.2622 191.503 69.7502 190.831 69.083C190.846 69.327 190.763 69.5671 190.601 69.7503C190.439 69.9335 190.211 70.0449 189.967 70.0599C189.943 70.0614 189.919 70.0619 189.895 70.0615C189.448 69.9332 189.033 69.7132 188.676 69.4154C187.136 68.4558 185.181 69.0924 184.087 70.9079C184.771 67.9984 185.773 64.6597 187.874 63.9759C188.732 63.6953 189.668 63.9263 190.479 63.4406C191.915 62.5801 192.205 59.3286 190.965 57.987C191.123 59.2555 191.092 60.7362 190.423 61.6039C189.753 62.4716 188.348 61.9057 188.433 60.6231C188.414 60.8035 188.338 60.9732 188.217 61.108C188.095 61.2427 187.934 61.3356 187.757 61.3733C187.579 61.411 187.395 61.3915 187.229 61.3178C187.063 61.244 186.925 61.1196 186.834 60.9626C186.389 60.2835 186.426 59.173 186.742 58.3619C187.068 57.6273 187.535 56.9639 188.117 56.4096C189.237 55.2095 190.373 53.9952 191.67 53.2407C192.969 52.4862 194.469 52.2315 195.77 52.9813C196.457 53.3774 197.06 54.0376 197.76 54.3866C197.925 54.4887 198.108 54.5574 198.299 54.5887C198.49 54.6201 198.686 54.6135 198.874 54.5694C199.063 54.5252 199.241 54.4443 199.398 54.3314C199.555 54.2184 199.689 54.0756 199.791 53.911L199.791 53.911C199.799 53.8983 199.807 53.8855 199.814 53.8725C200.335 52.9577 200.09 51.5996 200.283 50.4561C200.63 48.4354 202.651 47.4899 203.771 48.8244C202.934 48.6099 202.068 49.6002 201.964 50.8003C201.858 52.0004 202.464 53.2124 203.275 53.5755C204.638 54.1791 205.973 52.6606 207.003 51.2554C208.078 49.7841 209.155 48.3136 210.233 46.8439C210.406 46.5936 210.599 46.3586 210.811 46.1412C211.149 45.812 211.599 45.6235 212.071 45.6139C212.542 45.6043 213 45.7743 213.35 46.0894C214.44 46.9783 214.951 48.8009 215.845 50.0552C217.142 51.8778 219.082 52.3211 220.888 52.6748C222.235 52.9365 223.582 53.1998 224.93 53.4647C225.828 55.1362 226.612 56.867 227.276 58.6449C224.804 59.772 222.708 61.5845 221.235 63.8674Z" fill="#A92428"/>
<path d="M225.588 92.2369C224.577 94.2881 223.403 96.2539 222.074 98.115C221.226 97.7519 220.313 98.4003 219.519 99.0086C218.689 99.6453 217.691 100.265 216.84 99.6853C215.97 99.0912 215.689 97.4289 215.965 96.1108C216.282 94.895 216.837 93.7539 217.597 92.7533C218.304 91.697 219.061 90.6006 220.044 90.1903C221.03 89.78 222.296 90.3601 222.584 91.7606L223.282 91.737C222.89 91.1995 223.095 90.0866 223.621 89.8909C224.227 89.6622 224.753 90.4944 225.111 91.2301C225.272 91.5626 225.434 91.8974 225.588 92.2369Z" fill="#A92428"/>
<path d="M198.858 82.2777C197.358 82.372 196.169 80.5253 195.38 78.7085C194.59 76.8917 193.87 74.8141 192.516 73.8894C191.743 73.3609 190.861 73.2885 190.022 73.0324C189.546 72.9122 189.106 72.6804 188.738 72.3561C188.369 72.0318 188.083 71.6244 187.904 71.1676L186.952 70.7832C185.621 71.4486 184.402 72.3178 183.339 73.3594C182.125 74.6495 181.368 76.3033 181.187 78.0659C181.005 79.9706 181.676 82.0945 182.93 82.81C183.921 83.3754 185.075 83.0191 186.079 83.5366C187.333 84.1833 188.078 86.0618 188.36 87.9166C188.642 89.7714 188.57 91.6989 188.772 93.5748C188.974 95.4506 189.529 97.4025 190.68 98.3638C192.119 99.5667 194.231 98.5671 194.877 96.3773C195.194 95.3032 195.183 94.0912 195.42 92.9762C195.837 91.0127 196.963 89.5559 197.856 87.9452C198.749 86.3345 199.452 84.147 198.858 82.2777Z" fill="#A92428"/>
<path d="M184.034 62.9831C184.174 63.1119 184.305 63.2505 184.425 63.3978C184.549 63.6123 184.613 63.8567 184.609 64.1046C184.604 64.3526 184.533 64.5946 184.401 64.8048C184.582 64.7945 184.758 64.7468 184.92 64.6648C185.081 64.5828 185.224 64.4683 185.338 64.3283C185.612 64.0165 185.853 63.6772 186.057 63.3159C186.153 63.1922 186.222 63.0494 186.258 62.8972C186.295 62.7449 186.298 62.5866 186.269 62.4328C186.198 62.2305 186.031 62.1443 185.913 61.9922C185.75 61.6948 185.639 61.3719 185.584 61.0373C185.519 60.7236 185.368 60.4344 185.147 60.202C184.927 59.9697 184.646 59.8034 184.336 59.7219L184.411 59.7363C184.283 59.8122 184.182 59.9263 184.122 60.0625C184.063 60.1987 184.047 60.3503 184.077 60.4959C184.123 60.7901 184.312 61.0344 184.293 61.3345C184.266 61.766 183.835 61.9685 183.808 62.4001C183.804 62.6166 183.885 62.826 184.034 62.9831Z" fill="#A92428"/>
<path d="M181.464 55.6502L181.471 55.6489C181.517 55.6069 181.56 55.5613 181.599 55.5126L181.464 55.6502Z" fill="#A92428"/>
<path d="M181.914 57.6757C182.094 57.5176 182.227 57.313 182.299 57.0843C182.371 56.8556 182.379 56.6116 182.321 56.3788C182.212 55.8882 181.827 55.5583 181.471 55.6489C181.368 55.7535 181.239 55.8302 181.098 55.8717C180.957 55.9132 180.808 55.9182 180.665 55.8862C180.445 55.8296 180.203 55.6837 180.013 55.8495C179.903 55.9732 179.827 56.1224 179.79 56.2832C179.72 56.5 179.649 56.7167 179.579 56.9334C179.545 57.011 179.536 57.0971 179.554 57.1798C179.567 57.213 179.589 57.2421 179.617 57.2644C179.645 57.2867 179.678 57.3014 179.714 57.3071L180.985 57.6818C181.13 57.749 181.289 57.7833 181.45 57.7822C181.611 57.7812 181.769 57.7448 181.914 57.6757Z" fill="#A92428"/>
<path d="M213.896 85.6394C213.7 85.3188 213.504 84.9982 213.309 84.6776C213.116 84.3063 212.853 83.9761 212.534 83.7055C212.395 83.5887 212.215 83.5321 212.034 83.5481C211.852 83.5641 211.685 83.6514 211.568 83.7909L211.568 83.7909L211.558 83.8034L211.582 83.9865C212.106 84.5486 212.463 85.2458 212.614 85.9998C212.658 86.3274 212.643 86.6666 212.682 86.9957C212.686 87.1483 212.72 87.2985 212.782 87.4379C212.845 87.5773 212.934 87.703 213.045 87.8079C213.353 88.0139 213.715 87.7102 213.935 87.3396C214.131 87.0351 214.219 86.6736 214.184 86.313C214.135 86.0711 214.037 85.8418 213.896 85.6394Z" fill="#A92428"/>
<path d="M216.968 86.0566C217.005 85.7564 216.981 85.4518 216.896 85.1614C216.882 84.7685 216.987 84.3805 217.195 84.0474C217.403 83.7332 217.56 83.3885 217.661 83.0259C217.704 82.8607 217.696 82.6864 217.639 82.5257C217.574 82.38 217.417 82.3136 217.327 82.4289L217.52 82.5531C217.26 82.5066 216.992 82.5196 216.738 82.5909C216.593 82.6465 216.463 82.7363 216.36 82.8526C216.256 82.9689 216.183 83.1083 216.145 83.2591C216.113 83.4943 216.061 83.7262 215.989 83.9524C215.874 84.1888 215.652 84.2673 215.512 84.4748C215.417 84.6586 215.369 84.8633 215.372 85.0704C215.376 85.2775 215.43 85.4805 215.532 85.6611C215.707 85.9565 215.987 86.1761 216.315 86.2771C216.55 86.3616 216.86 86.366 216.968 86.0566Z" fill="#A92428"/>
<path d="M222.439 87.7072C222.524 87.9286 222.638 88.1378 222.778 88.3294C223.04 88.5932 223.396 88.431 223.713 88.3669C224.002 88.3214 224.297 88.3547 224.568 88.4634C224.839 88.5721 225.075 88.752 225.252 88.9842C225.129 88.3696 224.86 87.7936 224.468 87.3046C224.076 86.8155 223.572 86.4277 222.999 86.1736C222.255 85.9159 221.47 85.7932 220.683 85.8113L220.548 85.8458C220.891 86.8438 221.968 86.8215 222.439 87.7072Z" fill="#A92428"/>
<path d="M199.268 89.7485L199.27 89.7529L199.309 89.6775L199.268 89.7485Z" fill="#A92428"/>
<path d="M198.438 91.3549C198.257 91.6835 198.102 92.0254 197.973 92.3777C197.802 92.9483 197.689 93.5346 197.635 94.1278C197.593 94.4651 197.58 94.8958 197.791 95.0602C197.852 95.1005 197.925 95.1173 197.997 95.1075C198.07 95.0977 198.136 95.0619 198.183 95.0069C198.301 94.8827 198.397 94.74 198.468 94.5844C198.883 93.8691 199.206 93.1038 199.427 92.3069C199.659 91.4616 199.604 90.5634 199.27 89.7528C198.993 90.2869 198.716 90.8209 198.438 91.3549Z" fill="#A92428"/>
<path d="M190.432 48.5564C190.564 48.6853 190.73 48.7728 190.911 48.8081C191.092 48.8434 191.28 48.825 191.45 48.7552C191.803 48.6007 192.128 48.3866 192.408 48.1223C192.641 47.9503 192.838 47.7352 192.989 47.4887C193.072 47.3414 193.126 47.1791 193.146 47.0111C193.167 46.8431 193.154 46.6727 193.108 46.5098C193.043 46.3537 192.939 46.2167 192.807 46.1118C192.674 46.0069 192.517 45.9375 192.35 45.9103C191.88 45.7708 191.41 45.6314 190.939 45.492L191.28 45.1854C190.93 44.9976 190.542 45.3461 190.324 45.7777C190.183 46.0595 190.086 46.3605 190.033 46.671C189.959 46.9953 189.956 47.332 190.025 47.6576C190.094 47.9832 190.233 48.2899 190.432 48.5564Z" fill="#A92428"/>
<path d="M198.734 45.7695C198.866 45.9156 199.049 46.0058 199.246 46.0218C199.443 46.0378 199.638 45.9784 199.792 45.8556C199.925 45.7558 200.036 45.6291 200.116 45.4838C200.197 45.3385 200.246 45.1778 200.261 45.0122C200.294 44.6423 200.111 44.2312 199.85 44.1993L199.91 43.8529C199.407 43.7621 198.787 43.7439 198.518 44.3549C198.427 44.589 198.399 44.8428 198.437 45.0911C198.475 45.3393 198.577 45.5732 198.734 45.7695Z" fill="#A92428"/>
<path d="M164.527 70.6814C166.26 70.6814 167.665 68.797 167.665 66.4724C167.665 64.1479 166.26 62.2634 164.527 62.2634C162.793 62.2634 161.388 64.1479 161.388 66.4724C161.388 68.797 162.793 70.6814 164.527 70.6814Z" fill="#E6E6E6"/>
<path d="M221.886 122.8C223.385 122.401 224.374 121.232 224.097 120.19C223.819 119.147 222.379 118.626 220.881 119.025C219.382 119.424 218.392 120.593 218.67 121.635C218.948 122.677 220.388 123.199 221.886 122.8Z" fill="#E6E6E6"/>
<path d="M203.532 123.139C205.031 122.74 206.021 121.572 205.743 120.529C205.465 119.487 204.026 118.965 202.527 119.364C201.029 119.763 200.039 120.932 200.316 121.974C200.594 123.017 202.034 123.538 203.532 123.139Z" fill="#E6E6E6"/>
<path d="M225.147 107.529C226.645 107.13 227.635 105.962 227.357 104.919C227.08 103.877 225.64 103.355 224.141 103.754C222.643 104.153 221.653 105.322 221.931 106.364C222.208 107.407 223.648 107.928 225.147 107.529Z" fill="#E6E6E6"/>
<path d="M230.56 101.038C231.237 100.954 231.687 100.098 231.567 99.1251C231.446 98.1525 230.8 97.4321 230.123 97.516C229.447 97.5998 228.996 98.4563 229.117 99.4289C229.237 100.402 229.884 101.122 230.56 101.038Z" fill="#E6E6E6"/>
<path d="M231.931 89.5174C232.607 89.4335 233.058 88.577 232.937 87.6044C232.817 86.6318 232.171 85.9113 231.494 85.9952C230.817 86.0791 230.367 86.9355 230.487 87.9082C230.608 88.8808 231.254 89.6012 231.931 89.5174Z" fill="#E6E6E6"/>
<path d="M213.429 111.664C214.106 111.581 214.556 110.724 214.436 109.751C214.315 108.779 213.669 108.058 212.992 108.142C212.316 108.226 211.865 109.083 211.986 110.055C212.106 111.028 212.752 111.748 213.429 111.664Z" fill="#E6E6E6"/>
<path d="M222.709 115.023C223.385 114.939 223.836 114.083 223.715 113.11C223.595 112.138 222.948 111.417 222.272 111.501C221.595 111.585 221.144 112.441 221.265 113.414C221.386 114.387 222.032 115.107 222.709 115.023Z" fill="#E6E6E6"/>
<path d="M211.442 124.536C212.118 124.453 212.569 123.596 212.448 122.623C212.328 121.651 211.681 120.93 211.005 121.014C210.328 121.098 209.878 121.955 209.998 122.927C210.119 123.9 210.765 124.62 211.442 124.536Z" fill="#E6E6E6"/>
<path d="M130.654 107.387C132.152 106.987 133.142 105.819 132.864 104.776C132.587 103.734 131.147 103.212 129.648 103.612C128.15 104.011 127.16 105.179 127.438 106.222C127.715 107.264 129.155 107.786 130.654 107.387Z" fill="#E6E6E6"/>
<path d="M112.299 107.726C113.798 107.327 114.788 106.159 114.51 105.116C114.232 104.074 112.792 103.552 111.294 103.951C109.795 104.351 108.806 105.519 109.083 106.562C109.361 107.604 110.801 108.126 112.299 107.726Z" fill="#E6E6E6"/>
<path d="M133.915 92.1154C135.414 91.7163 136.403 90.5477 136.126 89.5053C135.848 88.4628 134.408 87.9413 132.91 88.3404C131.411 88.7395 130.422 89.9081 130.699 90.9505C130.977 91.9929 132.417 92.5145 133.915 92.1154Z" fill="#E6E6E6"/>
<path d="M139.328 85.6247C140.004 85.5408 140.455 84.6843 140.335 83.7117C140.214 82.7391 139.568 82.0186 138.891 82.1025C138.215 82.1864 137.764 83.0429 137.884 84.0155C138.005 84.9881 138.651 85.7085 139.328 85.6247Z" fill="#E6E6E6"/>
<path d="M140.698 74.1039C141.375 74.02 141.826 73.1635 141.705 72.1909C141.584 71.2183 140.938 70.4979 140.262 70.5818C139.585 70.6656 139.134 71.5221 139.255 72.4947C139.375 73.4673 140.022 74.1878 140.698 74.1039Z" fill="#E6E6E6"/>
<path d="M122.197 96.251C122.873 96.1671 123.324 95.3107 123.204 94.338C123.083 93.3654 122.437 92.645 121.76 92.7288C121.084 92.8127 120.633 93.6692 120.753 94.6418C120.874 95.6144 121.52 96.3349 122.197 96.251Z" fill="#E6E6E6"/>
<path d="M131.476 99.6098C132.153 99.5259 132.604 98.6694 132.483 97.6968C132.362 96.7242 131.716 96.0037 131.04 96.0876C130.363 96.1715 129.912 97.028 130.033 98.0006C130.153 98.9732 130.8 99.6937 131.476 99.6098Z" fill="#E6E6E6"/>
<path d="M120.209 109.123C120.886 109.039 121.337 108.183 121.216 107.21C121.095 106.237 120.449 105.517 119.773 105.601C119.096 105.685 118.645 106.541 118.766 107.514C118.886 108.486 119.533 109.207 120.209 109.123Z" fill="#E6E6E6"/>
<path d="M242.165 36.8114C243.664 36.4124 244.653 35.2438 244.376 34.2013C244.098 33.1589 242.658 32.6374 241.16 33.0364C239.661 33.4355 238.672 34.6041 238.949 35.6465C239.227 36.689 240.667 37.2105 242.165 36.8114Z" fill="#E6E6E6"/>
<path d="M223.811 37.1515C225.309 36.7524 226.299 35.5839 226.021 34.5414C225.744 33.499 224.304 32.9774 222.805 33.3765C221.307 33.7756 220.317 34.9442 220.595 35.9866C220.872 37.029 222.312 37.5506 223.811 37.1515Z" fill="#E6E6E6"/>
<path d="M245.426 21.54C246.925 21.1409 247.915 19.9723 247.637 18.9298C247.359 17.8874 245.92 17.3659 244.421 17.7649C242.923 18.164 241.933 19.3326 242.21 20.3751C242.488 21.4175 243.928 21.939 245.426 21.54Z" fill="#E6E6E6"/>
<path d="M250.839 15.0496C251.516 14.9657 251.967 14.1092 251.846 13.1366C251.725 12.164 251.079 11.4435 250.403 11.5274C249.726 11.6113 249.275 12.4678 249.396 13.4404C249.516 14.413 250.163 15.1335 250.839 15.0496Z" fill="#E6E6E6"/>
<path d="M252.21 3.52884C252.886 3.44495 253.337 2.58848 253.216 1.61586C253.096 0.643244 252.45 -0.0772128 251.773 0.00667528C251.096 0.0905634 250.646 0.947029 250.766 1.91965C250.887 2.89227 251.533 3.61273 252.21 3.52884Z" fill="#E6E6E6"/>
<path d="M233.708 25.6759C234.385 25.592 234.836 24.7356 234.715 23.763C234.594 22.7903 233.948 22.0699 233.272 22.1538C232.595 22.2377 232.144 23.0941 232.265 24.0667C232.385 25.0394 233.032 25.7598 233.708 25.6759Z" fill="#E6E6E6"/>
<path d="M242.988 29.0347C243.664 28.9508 244.115 28.0943 243.994 27.1217C243.874 26.1491 243.228 25.4286 242.551 25.5125C241.874 25.5964 241.424 26.4529 241.544 27.4255C241.665 28.3981 242.311 29.1186 242.988 29.0347Z" fill="#E6E6E6"/>
<path d="M231.721 38.548C232.397 38.4641 232.848 37.6076 232.727 36.635C232.607 35.6624 231.961 34.942 231.284 35.0258C230.607 35.1097 230.157 35.9662 230.277 36.9388C230.398 37.9114 231.044 38.6319 231.721 38.548Z" fill="#E6E6E6"/>
<path d="M125.139 109.998C122.136 109.998 120.184 109.251 119.32 107.768C117.616 104.843 120.47 99.7103 127.802 92.5129L128.418 93.1403C121.607 99.8262 118.646 104.864 120.079 107.326C120.987 108.883 123.687 109.441 127.889 108.939C132.062 108.441 137.591 106.956 144.323 104.526C158.183 99.5243 175.572 91.0868 193.286 80.768C211 70.4495 226.917 59.4856 238.106 49.8964C240.255 48.0542 242.206 46.282 243.903 44.6294C246.131 42.5129 248.187 40.2218 250.051 37.778C252.56 34.3703 253.407 31.7461 252.5 30.1888C250.985 27.5878 244.62 27.8324 234.576 30.8784L234.321 30.037C245.097 26.7694 251.469 26.6714 253.26 29.7463C254.373 31.6568 253.531 34.5345 250.759 38.2994C248.867 40.782 246.779 43.1094 244.516 45.2594C242.806 46.925 240.841 48.7097 238.678 50.564C227.451 60.1869 211.487 71.1834 193.729 81.5276C175.97 91.8724 158.53 100.334 144.621 105.354C137.826 107.806 132.232 109.306 127.994 109.812C127.047 109.93 126.093 109.992 125.139 109.998Z" fill="#3F3D56"/>
</g>
<defs>
<clipPath id="clip0_303_24843">
<rect width="253.471" height="200" fill="white" transform="translate(0.264282)"/>
</clipPath>
</defs>
</svg>
