<svg width="250" height="250" viewBox="0 0 250 250" fill="none" xmlns="http://www.w3.org/2000/svg">
<g clip-path="url(#clip0_5679_32375)">
<path d="M45.75 138.491C45.75 138.491 40.7888 139.8 44.9867 150.49C49.1301 161.181 52.2376 166.58 52.2376 166.58C52.2376 166.58 52.9464 169.035 50.8747 169.199C48.8575 169.362 44.5506 168.217 43.4057 170.562C42.2608 173.017 43.8419 175.58 47.331 178.034C50.8202 180.489 58.2892 186.161 58.9979 186.707C59.6521 187.198 60.2518 188.398 58.8889 188.725C57.5259 189.052 47.6036 189.107 47.8762 193.797C48.2033 198.543 59.0524 203.779 60.2518 204.379C61.4512 204.979 61.6693 205.524 61.5057 206.179C61.3422 206.833 58.0166 206.56 55.1816 206.67C52.3467 206.779 49.0756 207.433 49.5117 210.16C49.8934 212.887 56.0539 219.105 72.1368 222.323L79.7148 223.305L84.4579 217.305C93.8895 203.888 94.0531 195.106 92.4721 192.87C90.891 190.634 88.1106 192.434 85.9844 194.288C83.8582 196.143 81.6229 198.652 81.0778 198.324C80.4781 197.943 80.3145 197.397 80.7506 196.143C81.1868 194.888 85.4392 183.598 82.4407 179.943C79.3877 176.344 72.1913 183.162 70.9919 183.871C69.7925 184.58 69.4109 183.325 69.5199 182.507C69.6289 181.689 71.1555 172.417 71.9732 168.217C72.791 164.017 72.1913 161.072 69.6835 160.09C67.2301 159.163 64.9404 162.981 63.3594 164.235C61.7783 165.49 60.5789 163.253 60.5789 163.253C60.5789 163.253 59.1069 157.199 54.7455 146.618C50.384 135.982 45.8045 138.545 45.8045 138.545" fill="#EBEBEB"/>
<path d="M79.8777 225.106C76.7156 217.306 71.3183 203.343 66.6298 191.344C61.9412 179.399 57.6888 168.545 54.5267 160.745C52.9457 156.818 51.6918 153.654 50.8195 151.473C50.3834 150.382 50.0562 149.564 49.7837 148.964C49.6746 148.691 49.5656 148.473 49.5111 148.309C49.4565 148.146 49.4565 148.091 49.4565 148.091C49.4565 148.091 49.5111 148.146 49.5656 148.309C49.6201 148.473 49.7291 148.691 49.8382 148.964C50.0562 149.564 50.4379 150.382 50.874 151.473C51.8008 153.654 53.0547 156.818 54.6358 160.69C57.7978 168.49 62.1048 179.344 66.7933 191.289C71.4819 203.234 76.8792 217.252 79.9867 225.051" fill="#E0E0E0"/>
<path d="M49.4028 172.416C49.4028 172.416 49.5664 172.47 49.8935 172.634C50.2206 172.797 50.6568 173.015 51.2565 173.288C52.4013 173.834 53.9278 174.652 55.6724 175.579C57.3625 176.506 58.8345 177.324 60.0339 177.924C60.5791 178.197 61.0152 178.415 61.3423 178.633C61.6694 178.797 61.833 178.906 61.833 178.906C61.833 178.906 61.6694 178.852 61.3423 178.688C61.0152 178.524 60.5791 178.306 59.9794 178.033C58.8345 177.488 57.308 176.67 55.6179 175.743C53.9278 174.87 52.4013 174.052 51.2565 173.397C50.7113 173.125 50.2751 172.906 49.948 172.688C49.5664 172.525 49.4028 172.416 49.4028 172.416Z" fill="#E0E0E0"/>
<path d="M62.3784 178.471C62.3239 178.417 63.8504 175.144 65.7585 171.163C67.6666 167.127 69.3022 163.909 69.3567 163.963C69.4112 164.018 67.8847 167.29 65.9766 171.272C64.0139 175.253 62.4329 178.471 62.3784 178.471Z" fill="#E0E0E0"/>
<path d="M68.7563 197.18C68.7563 197.18 68.8654 197.016 69.138 196.743C69.4106 196.416 69.7377 196.034 70.1738 195.598C71.0461 194.616 72.191 193.307 73.4449 191.78C74.6988 190.253 75.7892 188.834 76.5524 187.798C76.9341 187.307 77.2067 186.925 77.4793 186.598C77.6973 186.326 77.8064 186.162 77.8609 186.162C77.8609 186.162 77.7518 186.325 77.5883 186.653C77.3702 186.98 77.0976 187.416 76.716 187.907C75.9528 188.944 74.9169 190.416 73.663 191.943C72.4091 193.471 71.2097 194.78 70.2829 195.707C69.8467 196.198 69.4651 196.525 69.1925 196.798C68.9199 197.016 68.7563 197.18 68.7563 197.18Z" fill="#E0E0E0"/>
<path d="M55.8345 194.288C55.8345 194.288 55.998 194.288 56.3251 194.343C56.7068 194.397 57.1429 194.507 57.7426 194.616C58.942 194.834 60.523 195.161 62.3221 195.543C64.1212 195.925 65.7023 196.252 66.9017 196.525C67.4468 196.634 67.883 196.743 68.2646 196.852C68.5917 196.961 68.7553 196.961 68.7553 197.015C68.7553 197.07 68.5917 197.015 68.2646 196.961C67.883 196.906 67.4468 196.797 66.8471 196.688C65.6477 196.47 64.0667 196.143 62.2676 195.761C60.4685 195.379 58.8875 195.052 57.6881 194.779C57.1429 194.67 56.7068 194.561 56.3251 194.452C55.998 194.343 55.8345 194.288 55.8345 194.288Z" fill="#E0E0E0"/>
<path d="M59.3794 211.524C59.3794 211.524 59.5975 211.524 60.0336 211.633C60.5243 211.742 61.124 211.797 61.8327 211.961C63.3592 212.233 65.4309 212.615 67.7207 213.106C70.0104 213.542 72.0821 213.979 73.5541 214.306C74.2629 214.469 74.8626 214.579 75.2987 214.688C75.7348 214.797 75.9529 214.851 75.9529 214.851C75.9529 214.851 75.7348 214.851 75.2987 214.742C74.808 214.633 74.2083 214.579 73.4996 214.415C71.9731 214.142 69.9014 213.76 67.6116 213.27C65.3219 212.833 63.2502 212.397 61.7782 212.07C61.0695 211.906 60.4698 211.797 60.0336 211.688C59.5975 211.579 59.3794 211.524 59.3794 211.524Z" fill="#E0E0E0"/>
<path d="M75.5703 214.631C75.5703 214.631 75.7339 214.413 76.0065 214.086C76.3336 213.704 76.7697 213.213 77.2604 212.613C78.2962 211.359 79.7682 209.614 81.2947 207.65C82.8212 205.686 84.1842 203.886 85.1655 202.523C85.6562 201.868 86.0378 201.378 86.3104 200.941C86.583 200.559 86.7465 200.396 86.7465 200.396C86.7465 200.396 86.6375 200.614 86.3649 200.996C86.0923 201.378 85.7652 201.923 85.2745 202.632C84.3477 203.996 83.0393 205.796 81.4583 207.814C79.9318 209.777 78.4598 211.523 77.3694 212.777C76.8242 213.377 76.3881 213.868 76.061 214.195C75.7339 214.468 75.5703 214.631 75.5703 214.631Z" fill="#E0E0E0"/>
<path d="M194.855 240.268L157.019 177.598C155.82 175.635 156.474 173.126 158.436 171.926L196.708 148.8C198.671 147.6 201.179 148.254 202.378 150.218L240.214 212.887C241.413 214.851 240.759 217.36 238.796 218.56L200.524 241.686C198.507 242.832 195.999 242.177 194.855 240.268Z" fill="#EBEBEB"/>
<path d="M225.549 212.506C222.878 214.087 219.443 213.269 217.808 210.597C216.227 207.924 217.044 204.488 219.716 202.851C222.387 201.27 225.822 202.088 227.457 204.76C229.038 207.433 228.166 210.869 225.549 212.506Z" fill="white"/>
<path d="M226.148 219.378C225.658 219.378 225.222 219.323 224.731 219.214C223.204 218.832 221.896 217.905 221.078 216.542C219.388 213.76 220.315 210.106 223.095 208.469C225.876 206.778 229.529 207.706 231.164 210.487C232.854 213.269 231.927 216.923 229.147 218.56C228.22 219.105 227.184 219.378 226.148 219.378ZM226.094 208.142C225.113 208.142 224.186 208.415 223.314 208.906C222.114 209.669 221.242 210.815 220.86 212.178C220.533 213.542 220.751 215.014 221.46 216.214C222.986 218.723 226.257 219.541 228.82 218.014C231.328 216.487 232.145 213.215 230.619 210.651C229.856 209.451 228.711 208.578 227.348 208.197C226.966 208.197 226.53 208.142 226.094 208.142Z" fill="white"/>
<path d="M174.956 170.399L171.085 172.744L170.867 172.362L174.356 170.235L173.811 169.308L174.138 169.09L174.956 170.399Z" fill="white"/>
<path d="M173.81 176.507L173.483 176.725L171.848 173.998L172.12 173.834L174.683 174.489C175.391 174.653 175.664 174.598 175.937 174.434C176.373 174.162 176.482 173.671 176.1 173.071C175.827 172.635 175.5 172.362 175.01 172.253L175.064 171.816C175.609 171.925 176.1 172.253 176.427 172.853C176.918 173.616 176.809 174.38 176.155 174.762C175.773 174.98 175.391 175.089 174.574 174.871L172.502 174.325L173.81 176.507Z" fill="white"/>
<path d="M176.918 180.162L176.427 179.398L175.392 179.998L175.173 179.616L176.209 179.016L174.901 176.835L175.173 176.671L178.99 177.162L179.262 177.598L175.555 177.107L176.591 178.798L177.463 178.253L177.681 178.635L176.809 179.18L177.3 179.944L176.918 180.162Z" fill="white"/>
<path d="M180.517 186.107L180.026 185.343L178.99 185.943L178.772 185.561L179.808 184.961L178.5 182.78L178.772 182.616L182.588 183.107L182.861 183.543L179.154 183.052L180.19 184.743L181.062 184.198L181.28 184.58L180.408 185.125L180.898 185.889L180.517 186.107Z" fill="white"/>
<path d="M182.697 189.434C182.043 189.816 181.225 189.707 180.68 188.725C180.353 188.18 180.189 187.525 180.353 187.034H180.789C180.68 187.416 180.734 188.016 181.061 188.507C181.443 189.161 181.988 189.325 182.479 189.052C182.97 188.725 183.079 188.234 182.479 187.252L181.988 186.434L184.06 185.452L185.314 187.58L184.987 187.798L183.896 186.052L182.588 186.652L182.915 187.143C183.569 188.289 183.351 188.998 182.697 189.434Z" fill="white"/>
<path d="M185.041 193.252C184.333 193.688 183.515 193.415 183.079 192.652C182.479 191.616 182.806 190.634 184.06 189.87C185.368 189.052 186.513 189.379 187.113 190.416C187.331 190.743 187.44 191.125 187.44 191.452L187.004 191.506C187.004 191.234 186.895 190.907 186.731 190.634C186.241 189.816 185.368 189.597 184.333 190.197C184.224 190.252 184.114 190.307 184.005 190.416C184.551 190.361 185.041 190.688 185.368 191.179C185.859 191.997 185.75 192.816 185.041 193.252ZM184.769 192.87C185.259 192.543 185.368 191.997 185.041 191.397C184.66 190.797 184.06 190.634 183.569 190.907C183.133 191.179 182.97 191.779 183.351 192.434C183.678 192.979 184.278 193.143 184.769 192.87Z" fill="white"/>
<path d="M188.149 198.542C187.495 198.924 186.732 198.761 186.132 197.833C185.805 197.288 185.641 196.633 185.805 196.143H186.241C186.132 196.524 186.241 197.124 186.514 197.615C186.895 198.27 187.386 198.433 187.877 198.161C188.367 197.888 188.422 197.397 188.04 196.633L187.877 196.361L188.149 196.197L190.166 196.47L188.967 194.506L189.294 194.288L190.821 196.797L190.548 196.961L188.531 196.688C188.967 197.506 188.803 198.161 188.149 198.542Z" fill="white"/>
<path d="M190.548 202.415C189.839 202.852 189.021 202.579 188.585 201.815C187.985 200.779 188.312 199.797 189.566 199.034C190.875 198.215 192.02 198.543 192.619 199.579C192.837 199.906 192.946 200.288 192.946 200.615L192.51 200.67C192.51 200.397 192.401 200.07 192.238 199.797C191.747 198.979 190.875 198.761 189.839 199.361C189.73 199.415 189.621 199.47 189.512 199.579C190.057 199.524 190.548 199.852 190.875 200.343C191.42 201.161 191.256 201.979 190.548 202.415ZM190.33 202.033C190.82 201.706 190.929 201.161 190.602 200.561C190.221 199.961 189.621 199.797 189.13 200.07C188.694 200.343 188.53 200.943 188.912 201.597C189.239 202.142 189.784 202.361 190.33 202.033Z" fill="white"/>
<path d="M195.4 204.324L195.128 204.488L190.548 205.033L190.275 204.597L194.746 204.051L193.546 202.088L192.838 202.524L192.62 202.142L193.71 201.488L195.4 204.324Z" fill="white"/>
<path d="M198.78 209.887L198.507 210.051L193.928 210.597L193.655 210.16L198.126 209.615L196.926 207.651L196.218 208.088L196 207.706L197.09 207.051L198.78 209.887Z" fill="white"/>
<path d="M198.289 215.343C197.58 215.779 196.817 215.452 196.272 214.524C195.727 213.597 195.781 212.779 196.49 212.343C196.981 212.07 197.417 212.124 197.908 212.506C197.799 212.015 197.962 211.634 198.398 211.361C199.052 210.979 199.761 211.306 200.252 212.124C200.743 212.943 200.688 213.706 200.034 214.088C199.652 214.306 199.216 214.306 198.834 213.979C198.889 214.633 198.725 215.07 198.289 215.343ZM198.017 214.961C198.507 214.688 198.562 214.088 198.126 213.379C197.689 212.67 197.144 212.452 196.708 212.779C196.217 213.052 196.163 213.652 196.599 214.361C196.981 215.015 197.526 215.233 198.017 214.961ZM198.453 213.215C198.834 213.815 199.325 214.033 199.707 213.761C200.143 213.488 200.197 212.943 199.816 212.397C199.489 211.797 198.998 211.579 198.562 211.852C198.126 212.07 198.071 212.615 198.453 213.215Z" fill="white"/>
<path d="M201.451 218.56C200.143 219.378 198.998 219.051 198.398 218.014C198.18 217.687 198.071 217.305 198.071 216.978L198.507 216.923C198.507 217.196 198.616 217.523 198.78 217.796C199.271 218.614 200.143 218.832 201.179 218.233C201.288 218.178 201.397 218.123 201.506 218.014C200.961 218.069 200.47 217.742 200.143 217.251C199.652 216.487 199.816 215.669 200.525 215.233C201.233 214.796 202.051 215.069 202.487 215.833C203.032 216.869 202.651 217.851 201.451 218.56ZM201.888 217.578C202.324 217.305 202.487 216.705 202.106 216.051C201.779 215.505 201.233 215.287 200.688 215.614C200.198 215.942 200.088 216.487 200.416 217.087C200.797 217.687 201.397 217.851 201.888 217.578Z" fill="white"/>
<path d="M205.704 221.341L201.833 223.687L201.615 223.305L205.104 221.178L204.559 220.251L204.886 220.032L205.704 221.341Z" fill="white"/>
<path d="M204.614 227.451L204.286 227.669L202.651 224.942L202.923 224.778L205.486 225.433C206.195 225.596 206.467 225.542 206.74 225.378C207.176 225.105 207.285 224.614 206.903 224.014C206.631 223.578 206.304 223.305 205.813 223.196L205.867 222.76C206.413 222.869 206.903 223.196 207.23 223.796C207.721 224.56 207.612 225.324 206.958 225.705C206.576 225.923 206.195 226.033 205.377 225.814L203.305 225.269L204.614 227.451Z" fill="white"/>
<path d="M207.448 230.45C206.794 230.832 206.031 230.668 205.431 229.741C205.104 229.196 204.941 228.541 205.104 228.05H205.54C205.431 228.432 205.54 229.032 205.813 229.523C206.195 230.177 206.685 230.341 207.176 230.068C207.667 229.796 207.721 229.305 207.339 228.541L207.176 228.268L207.448 228.105L209.466 228.378L208.266 226.414L208.593 226.196L210.12 228.705L209.847 228.868L207.83 228.596C208.266 229.414 208.048 230.123 207.448 230.45Z" fill="white"/>
<path d="M185.512 203.092L183.832 204.107L202.555 235.105L204.235 234.089L185.512 203.092Z" fill="white"/>
<path d="M191.293 220.25L189.613 221.265L199.228 237.184L200.908 236.169L191.293 220.25Z" fill="white"/>
<path d="M183.296 176.671L178.226 168.271C177.463 167.017 177.844 165.326 179.153 164.562L184.223 161.508C185.477 160.744 187.167 161.126 187.93 162.435L193 170.835C193.764 172.089 193.382 173.78 192.074 174.544L187.003 177.598C185.695 178.362 184.059 177.98 183.296 176.671Z" fill="#E0E0E0"/>
<path d="M179.48 164.344L180.08 163.963L184.115 170.671C184.605 171.435 185.587 171.708 186.35 171.217C187.113 170.726 187.386 169.744 186.895 168.98L182.861 162.272L183.46 161.89L187.495 168.599C188.149 169.69 187.822 171.162 186.677 171.871C185.587 172.526 184.115 172.199 183.406 171.053L179.48 164.344Z" fill="#EBEBEB"/>
<path d="M186.94 171.354L186.333 171.72L189.092 176.297L189.699 175.931L186.94 171.354Z" fill="#EBEBEB"/>
<path d="M215.678 190.314L195.465 156.843L192.572 158.591L212.785 192.063L215.678 190.314Z" fill="white"/>
<path d="M102.012 6.7688C101.576 12.6594 102.012 23.6226 99.8859 29.1314C97.7597 34.6402 94.8702 40.3127 89.5275 42.7671C82.9308 45.8215 75.1347 44.5125 68.1018 46.3124C57.0346 49.0941 49.075 59.2391 45.6403 70.0932C42.2057 80.9472 42.5873 92.6194 43.0235 104.019L99.3953 111.873C99.3953 111.873 99.6678 88.965 104.629 82.6926C109.536 76.4201 132.924 70.8022 140.611 53.6757C147.535 38.2401 149.661 13.8048 149.661 13.8048L102.012 6.7688Z" fill="#F5F5F5"/>
<path d="M115.805 22.2596L115.096 20.896C114.987 20.896 114.878 20.896 114.769 20.896L113.733 20.787L113.57 21.9869L113.188 21.9324L113.679 18.0598L115.096 18.2234C116.077 18.3325 116.623 18.9325 116.514 19.7506C116.459 20.3506 116.077 20.7324 115.478 20.8415L116.241 22.2596H115.805ZM116.077 19.7506C116.132 19.1507 115.805 18.7143 115.042 18.6598L114.006 18.5507L113.788 20.4597L114.824 20.5688C115.532 20.6233 116.023 20.3506 116.077 19.7506Z" fill="#E0E0E0"/>
<path d="M119.894 22.4231L119.839 22.7503L117.113 22.4231L117.604 18.5505L120.221 18.8778L120.166 19.2051L117.931 18.9323L117.768 20.2959L119.785 20.5686L119.73 20.8959L117.713 20.6232L117.549 22.0413L119.894 22.4231Z" fill="#E0E0E0"/>
<path d="M120.712 20.8961C120.875 19.7507 121.802 19.0416 122.947 19.2053C123.492 19.2598 123.983 19.5325 124.31 19.9143L124.038 20.1325C123.765 19.7507 123.383 19.5871 122.947 19.5325C122.02 19.4234 121.257 20.0234 121.148 20.9506C121.039 21.8779 121.639 22.6415 122.566 22.7506C123.002 22.8051 123.383 22.696 123.765 22.4233L123.983 22.696C123.601 23.0233 123.056 23.1324 122.511 23.0778C121.312 22.9687 120.548 22.0415 120.712 20.8961Z" fill="#E0E0E0"/>
<path d="M127.526 23.3506L127.472 23.6778L124.746 23.3506L125.236 19.478L127.853 19.8053L127.799 20.1325L125.563 19.8598L125.4 21.2234L127.417 21.4961L127.362 21.8234L125.345 21.5507L125.182 22.9688L127.526 23.3506Z" fill="#E0E0E0"/>
<path d="M128.89 19.969L129.271 20.0235L128.781 23.8961L128.399 23.8415L128.89 19.969Z" fill="#E0E0E0"/>
<path d="M133.414 21.8778C133.305 22.696 132.651 23.1323 131.67 23.0232L130.634 22.9142L130.47 24.1141L130.089 24.0596L130.58 20.187L131.997 20.3506C132.978 20.4597 133.524 21.0597 133.414 21.8778ZM132.978 21.8233C133.033 21.2233 132.706 20.787 131.942 20.7324L130.907 20.6234L130.689 22.5324L131.724 22.6414C132.488 22.7505 132.924 22.4233 132.978 21.8233Z" fill="#E0E0E0"/>
<path d="M135.049 21.0597L133.687 20.8961L133.741 20.5688L136.849 20.9506L136.794 21.2779L135.431 21.1143L134.995 24.605L134.613 24.5505L135.049 21.0597Z" fill="#E0E0E0"/>
<path d="M128.944 31.6402C128.944 31.6948 123.819 31.0948 117.495 30.2221C111.171 29.3494 106.046 28.5858 106.046 28.5313C106.046 28.4767 111.171 29.0767 117.495 29.9494C123.819 30.8221 128.944 31.5857 128.944 31.6402Z" fill="#E0E0E0"/>
<path d="M128.344 36.2769C128.344 36.3315 123.219 35.7315 116.895 34.8588C110.571 33.9861 105.446 33.2225 105.446 33.168C105.446 33.1134 110.571 33.7134 116.895 34.5861C123.219 35.4042 128.344 36.1678 128.344 36.2769Z" fill="#E0E0E0"/>
<path d="M126.218 40.9127C126.218 40.9672 121.093 40.3672 114.769 39.4946C108.445 38.6219 103.32 37.8583 103.32 37.8037C103.32 37.7492 108.445 38.3492 114.769 39.2218C121.093 40.0945 126.218 40.8581 126.218 40.9127Z" fill="#E0E0E0"/>
<path d="M122.402 45.6576C122.402 45.7121 117.277 45.1121 110.953 44.2394C104.629 43.3667 99.5044 42.6031 99.5044 42.5486C99.5044 42.4941 104.629 43.094 110.953 43.9667C117.277 44.8394 122.402 45.603 122.402 45.6576Z" fill="#E0E0E0"/>
<path d="M116.296 50.4032C116.296 50.4577 111.171 49.8577 104.847 48.985C98.5227 48.1124 93.3979 47.3488 93.3979 47.2942C93.3979 47.2397 98.5227 47.8396 104.847 48.7123C111.225 49.5305 116.296 50.2941 116.296 50.4032Z" fill="#E0E0E0"/>
<path d="M139.193 33.1679C139.193 33.2225 137.939 33.1134 136.358 32.8407C134.832 32.5679 133.578 32.2952 133.578 32.2407C133.578 32.1861 134.832 32.2952 136.413 32.5679C137.994 32.8407 139.248 33.1134 139.193 33.1679Z" fill="#E0E0E0"/>
<path d="M139.029 37.3124C139.029 37.367 137.776 37.2579 136.194 36.9852C134.668 36.7125 133.414 36.4398 133.414 36.3852C133.414 36.3307 134.668 36.4398 136.249 36.7125C137.776 36.9306 139.029 37.2034 139.029 37.3124Z" fill="#E0E0E0"/>
<path d="M137.612 42.9304C137.612 42.9849 136.358 42.8758 134.777 42.6031C133.251 42.3304 131.997 42.0577 131.997 42.0032C131.997 41.8941 133.25 42.0577 134.832 42.3304C136.413 42.6031 137.612 42.8759 137.612 42.9304Z" fill="#E0E0E0"/>
<path d="M135.596 47.7302C135.596 47.7847 134.342 47.6757 132.761 47.4029C131.234 47.1302 129.98 46.8575 129.98 46.803C129.98 46.6939 131.234 46.8575 132.815 47.1302C134.396 47.4029 135.65 47.6757 135.596 47.7302Z" fill="#E0E0E0"/>
<path d="M131.288 52.3122C131.288 52.3668 130.034 52.2577 128.453 51.985C126.926 51.7123 125.672 51.4395 125.672 51.385C125.672 51.2759 126.926 51.4395 128.507 51.7123C130.088 51.9304 131.288 52.2031 131.288 52.3122Z" fill="#E0E0E0"/>
<path d="M111.117 56.1304C111.117 56.185 103.375 55.2032 93.889 53.8396C84.4029 52.476 76.7158 51.3306 76.7158 51.2761C76.7158 51.2215 84.4574 52.2033 93.9436 53.5669C103.43 54.9305 111.117 56.0759 111.117 56.1304Z" fill="#E0E0E0"/>
<path d="M107.137 60.9839C107.137 60.9839 107.028 60.9839 106.755 60.9293C106.482 60.8748 106.101 60.8202 105.665 60.7657C104.683 60.6021 103.32 60.4384 101.685 60.1657C98.3047 59.6203 93.6707 58.9112 88.5459 58.1476C83.4212 57.3295 78.7872 56.5659 75.4616 56.0204C73.826 55.7477 72.4631 55.5296 71.4818 55.3114C70.9911 55.2023 70.664 55.1478 70.3914 55.0932C70.1188 55.0387 70.0098 54.9841 70.0098 54.9841C70.0098 54.9841 70.1188 54.9841 70.3914 55.0387C70.664 55.0932 71.0456 55.1478 71.4818 55.2023C72.4631 55.3659 73.826 55.5296 75.4616 55.8023C78.8417 56.3477 83.4758 57.0568 88.6005 57.8204C93.7252 58.6385 98.3047 59.4021 101.685 59.9475C103.32 60.2203 104.683 60.4384 105.665 60.6021C106.101 60.6566 106.482 60.7657 106.755 60.8202C106.973 60.9293 107.137 60.9293 107.137 60.9839Z" fill="#E0E0E0"/>
<path d="M99.9398 65.3485C99.9943 65.403 99.4491 65.3485 98.5223 65.2394C97.5955 65.1303 96.2871 64.9121 94.597 64.694C91.2714 64.2031 86.7464 63.5486 81.7307 62.7304C76.7151 61.9668 72.1355 61.2032 68.8644 60.6578C67.2289 60.3851 65.9205 60.1669 64.9936 60.0033C64.5575 59.9487 64.2304 59.8397 63.9578 59.7851C63.7397 59.7306 63.5762 59.7306 63.5762 59.676C63.5762 59.676 63.6852 59.676 63.9578 59.7306C64.2304 59.7851 64.5575 59.8397 65.0482 59.8942C66.0295 60.0578 67.3379 60.2215 68.9735 60.4396C72.2991 60.9305 76.8241 61.6396 81.8398 62.4032C86.8554 63.2213 91.3804 63.9304 94.7061 64.4213C97.65 65.0212 99.2311 65.2394 99.9398 65.3485Z" fill="#E0E0E0"/>
<path d="M124.091 58.8032C124.091 58.8577 122.838 58.7487 121.257 58.4759C119.73 58.2032 118.476 57.9305 118.476 57.876C118.476 57.7669 119.73 57.9305 121.311 58.2032C122.892 58.4214 124.091 58.6941 124.091 58.8032Z" fill="#E0E0E0"/>
<path d="M118.531 61.8571C118.531 61.9117 117.277 61.8026 115.696 61.5299C114.17 61.2572 112.916 60.9845 112.916 60.9299C112.916 60.8208 114.17 60.9845 115.751 61.2572C117.332 61.5299 118.531 61.8026 118.531 61.8571Z" fill="#E0E0E0"/>
<path d="M111.062 67.0935C111.062 67.148 109.808 67.0389 108.227 66.7662C106.7 66.4935 105.446 66.2208 105.446 66.1662C105.446 66.0572 106.7 66.2208 108.281 66.4935C109.808 66.7662 111.062 67.0389 111.062 67.0935Z" fill="#E0E0E0"/>
<path d="M96.7776 75.3294C96.7776 75.384 87.2369 74.0204 75.5155 72.2205C63.7941 70.4206 54.2534 68.8934 54.2534 68.7843C54.2534 68.7298 63.7941 70.0933 75.5155 71.8932C87.2369 73.6932 96.7776 75.2204 96.7776 75.3294Z" fill="#E0E0E0"/>
<path d="M91.0535 85.6381C91.0535 85.6926 87.8914 85.2563 84.0752 84.6563C80.2589 84.0563 77.1514 83.4564 77.1514 83.4018C77.1514 83.3473 80.3134 83.7836 84.1297 84.3836C87.946 84.9836 91.0535 85.5835 91.0535 85.6381Z" fill="#E0E0E0"/>
<path d="M241.633 241.358C241.633 241.413 189.023 241.522 124.201 241.522C59.3246 241.522 6.76904 241.467 6.76904 241.358C6.76904 241.249 59.3246 241.194 124.201 241.194C189.078 241.249 241.633 241.303 241.633 241.358Z" fill="#263238"/>
<path d="M233.673 133.799L179.155 141.489C177.138 141.762 175.284 140.344 174.957 138.326L167.706 86.9464C167.434 84.9283 168.851 83.0739 170.868 82.7466L225.387 75.056C227.404 74.7833 229.257 76.2014 229.585 78.2195L236.835 129.599C237.108 131.672 235.691 133.526 233.673 133.799Z" fill="#A92428"/>
<path d="M213.885 115.69C213.885 115.69 213.721 115.744 213.448 115.799C213.176 115.853 212.74 115.908 212.249 116.017C211.159 116.18 209.687 116.399 207.833 116.671C204.071 117.217 198.838 117.98 192.95 118.853H192.841L192.786 118.744C192.568 117.98 192.35 117.162 192.077 116.344C190.06 109.253 188.261 102.927 187.062 98.8358L187.171 98.8903C185.481 99.1085 184.172 99.2721 183.191 99.4358C182.755 99.4903 182.373 99.5449 182.155 99.5449C181.937 99.5449 181.773 99.5994 181.773 99.5994C181.773 99.5994 181.882 99.5449 182.155 99.5449C182.428 99.4903 182.755 99.4358 183.191 99.3812C184.118 99.2176 185.481 99.054 187.171 98.7812H187.225V98.8358C188.425 102.981 190.278 109.253 192.35 116.344C192.568 117.162 192.841 117.98 193.059 118.744L192.895 118.635C198.783 117.817 204.017 117.053 207.779 116.562C209.632 116.29 211.159 116.126 212.195 115.962C212.685 115.908 213.121 115.853 213.394 115.799C213.721 115.69 213.885 115.69 213.885 115.69Z" fill="#EBEBEB"/>
<path d="M191.696 114.435C191.696 114.435 191.751 114.435 191.805 114.435C191.914 114.435 191.969 114.381 192.132 114.381C192.405 114.326 192.841 114.272 193.332 114.163C194.422 113.999 195.894 113.781 197.802 113.454C201.618 112.908 207.016 112.09 213.231 111.163L213.122 111.272C213.231 108.599 213.285 105.708 213.394 102.763C213.449 101.236 213.503 99.7087 213.558 98.2906L213.721 98.4542C206.47 99.4905 200.092 100.363 195.512 101.018C193.223 101.345 191.423 101.563 190.115 101.727C189.515 101.781 189.025 101.89 188.643 101.89C188.479 101.89 188.37 101.945 188.261 101.945C188.152 101.945 188.152 101.945 188.152 101.945C188.152 101.945 188.207 101.945 188.261 101.89C188.37 101.89 188.479 101.836 188.643 101.836C188.97 101.781 189.461 101.727 190.115 101.618C191.423 101.4 193.223 101.127 195.512 100.8C200.092 100.145 206.47 99.2178 213.721 98.127H213.885V98.2906C213.83 99.7087 213.776 101.236 213.721 102.763C213.612 105.763 213.503 108.654 213.449 111.272V111.381H213.34C207.125 112.254 201.727 113.017 197.911 113.563C196.003 113.835 194.476 113.999 193.441 114.163C192.95 114.217 192.514 114.272 192.241 114.326C192.132 114.326 192.023 114.326 191.914 114.381C191.751 114.435 191.696 114.435 191.696 114.435Z" fill="#EBEBEB"/>
<path d="M199 123.599C199 123.599 198.946 123.435 198.837 123.108C198.728 122.835 198.401 122.399 197.91 122.126C197.419 121.853 196.656 121.744 196.002 122.126C195.348 122.453 194.857 123.271 194.966 124.144C195.075 125.017 195.784 125.671 196.493 125.78C197.256 125.944 197.91 125.671 198.346 125.235C198.782 124.853 198.891 124.362 198.946 124.035C199 123.817 198.946 123.653 199 123.599C199 123.599 199.055 123.762 199.055 124.144C199.055 124.471 198.891 125.017 198.455 125.453C198.019 125.889 197.256 126.271 196.438 126.108C195.62 125.944 194.802 125.235 194.639 124.253C194.475 123.271 195.075 122.344 195.838 121.962C196.602 121.581 197.419 121.69 197.965 122.017C198.51 122.344 198.782 122.78 198.891 123.108C199 123.435 199 123.599 199 123.599Z" fill="#EBEBEB"/>
<path d="M212.467 121.69C212.467 121.69 212.413 121.526 212.304 121.199C212.195 120.926 211.867 120.49 211.377 120.217C210.886 119.945 210.123 119.835 209.469 120.217C208.814 120.545 208.324 121.363 208.433 122.235C208.542 123.108 209.251 123.763 209.959 123.872C210.723 124.035 211.377 123.763 211.813 123.326C212.249 122.944 212.358 122.454 212.413 122.126C212.467 121.854 212.467 121.69 212.467 121.69C212.467 121.69 212.522 121.854 212.522 122.235C212.522 122.563 212.358 123.108 211.922 123.544C211.486 123.981 210.723 124.363 209.905 124.199C209.087 124.035 208.269 123.326 208.106 122.344C207.942 121.363 208.542 120.435 209.305 120.054C210.068 119.672 210.886 119.781 211.431 120.108C211.976 120.435 212.249 120.872 212.358 121.199C212.467 121.472 212.467 121.69 212.467 121.69Z" fill="#EBEBEB"/>
<path d="M217.284 99.6895C219.127 96.9005 218.362 93.1445 215.574 91.3001C212.787 89.4557 209.032 90.2215 207.189 93.0104C205.345 95.7994 206.11 99.5555 208.898 101.4C211.686 103.244 215.44 102.478 217.284 99.6895Z" fill="#FAFAFA"/>
<path d="M215.137 93.6543C215.192 93.6543 214.919 94.0906 214.483 94.7452C214.047 95.3997 213.447 96.2724 212.793 97.1996C212.52 97.5814 212.302 97.9086 212.084 98.2359L212.03 98.345L211.921 98.2904C210.449 97.3087 209.413 96.5996 209.467 96.5451C209.522 96.4905 210.612 97.145 212.084 98.0723L211.921 98.1268C212.139 97.7996 212.411 97.4723 212.629 97.0905C213.284 96.1087 213.938 95.2906 214.374 94.6361C214.81 94.0361 215.137 93.6543 215.137 93.6543Z" fill="#A92428"/>
<path d="M72.027 199.579L30.1025 188.997C28.1399 188.506 26.9405 186.488 27.4311 184.525L37.3535 145.145C37.8441 143.181 39.8613 141.981 41.8239 142.472L83.7484 153.054C85.7111 153.544 86.9105 155.563 86.4198 157.526L76.552 196.852C76.0614 198.87 74.0442 200.07 72.027 199.579Z" fill="#455A64"/>
<path d="M45.6943 164.344L46.076 174.762L65.1573 179.561L70.5001 170.998C70.5001 170.998 68.6465 169.853 67.2835 169.798L69.5188 159.38C69.7368 158.344 68.8646 157.471 67.8287 157.635L65.757 157.962L54.9624 155.235L53.8721 154.308C53.0543 153.599 51.8004 154.035 51.5278 155.072L49.0199 165.326C49.1835 165.38 47.6025 164.453 45.6943 164.344Z" fill="#FAFAFA"/>
<path d="M51.0371 171.053C51.8004 172.471 53.0543 173.616 54.4718 174.325C55.9437 175.034 57.5248 175.362 59.1603 175.416C60.0326 175.471 61.0139 175.362 61.6136 174.762C62.2679 174.107 62.3224 173.125 62.3224 172.198C62.3224 171.053 62.3769 169.853 62.0498 168.707C61.7227 167.562 61.0685 166.526 60.0326 165.98C58.6151 165.271 56.9251 165.762 55.5076 166.526C53.7085 167.562 52.182 169.035 51.1461 170.835" fill="#E0E0E0"/>
<path d="M47.0631 175.033L46.0586 174.78L43.8325 183.612L44.837 183.866L47.0631 175.033Z" fill="#263238"/>
<path d="M50.6085 175.942L49.604 175.689L48.4714 180.184L49.4759 180.438L50.6085 175.942Z" fill="#263238"/>
<path d="M60.7593 178.457L59.7549 178.204L58.6223 182.7L59.6268 182.953L60.7593 178.457Z" fill="#263238"/>
<path d="M65.2208 179.617L64.2163 179.363L61.9912 188.196L62.9956 188.449L65.2208 179.617Z" fill="#263238"/>
<path d="M51.5286 170.18C51.4741 170.18 52.2374 166.853 53.2732 162.762C54.3091 158.672 55.1813 155.399 55.2904 155.399C55.3449 155.399 54.5816 158.726 53.5458 162.817C52.51 166.908 51.5831 170.18 51.5286 170.18Z" fill="#263238"/>
<path d="M62.3226 172.906C62.2681 172.906 63.0313 169.579 64.0672 165.489C65.103 161.398 65.9753 158.125 66.0843 158.125C66.1388 158.125 65.3756 161.452 64.3397 165.543C63.3039 169.634 62.3771 172.906 62.3226 172.906Z" fill="#263238"/>
<path d="M67.3386 169.852C67.3386 169.852 67.175 169.852 66.7934 169.852C66.6843 169.852 66.6298 169.852 66.5208 169.852C66.4117 169.852 66.3027 169.852 66.1937 169.907C66.0846 169.907 65.9211 169.961 65.812 169.961C65.6485 170.016 65.5395 170.016 65.3759 170.07C64.7762 170.234 64.0675 170.561 63.4678 171.216C62.8681 171.816 62.4319 172.743 62.2684 173.779V173.943L62.1593 173.888C60.6328 173.507 58.8882 173.07 57.0346 172.634C54.9629 172.088 53.0003 171.598 51.3102 171.161L51.2012 171.107L51.2557 170.998C51.4738 170.07 51.4192 169.143 51.2012 168.38C50.9831 167.616 50.656 167.016 50.3289 166.525C49.6747 165.598 49.0204 165.271 49.075 165.216C49.075 165.216 49.2385 165.271 49.5111 165.489C49.7837 165.652 50.1108 165.98 50.4924 166.471C50.8741 166.961 51.2012 167.561 51.4192 168.38C51.6373 169.143 51.7464 170.125 51.5283 171.107L51.4192 170.943C53.1093 171.379 55.072 171.87 57.1437 172.361C58.9428 172.852 60.6873 173.288 62.2684 173.67L62.1048 173.779C62.2684 172.688 62.759 171.761 63.4132 171.107C64.0675 170.452 64.7762 170.125 65.4304 169.961C65.594 169.907 65.7575 169.907 65.8666 169.852C66.0301 169.852 66.1392 169.852 66.2482 169.798C66.3572 169.798 66.4663 169.798 66.5753 169.798C66.6843 169.798 66.7934 169.798 66.8479 169.798C67.175 169.798 67.3386 169.852 67.3386 169.852Z" fill="#263238"/>
<path d="M51.0917 171.053C51.0917 171.107 50.7101 171.053 50.1104 171.162C49.5107 171.271 48.7474 171.544 48.0387 172.089C47.33 172.634 46.8938 173.398 46.6758 173.943C46.4577 174.489 46.4032 174.871 46.3486 174.871C46.2941 174.871 46.2941 174.489 46.5122 173.889C46.6758 173.289 47.1119 172.525 47.8752 171.871C48.6384 171.271 49.5107 170.998 50.1104 170.944C50.7101 170.944 51.0917 170.998 51.0917 171.053Z" fill="#263238"/>
<path d="M64.9386 179.724C64.8841 179.724 64.9931 179.288 64.9931 178.634C64.9931 177.979 64.8841 177.052 64.3934 176.125C63.9573 175.197 63.2485 174.543 62.7579 174.161C62.2127 173.779 61.8311 173.616 61.8311 173.561C61.8311 173.506 62.2672 173.616 62.8669 173.997C63.4666 174.379 64.1753 175.034 64.666 176.015C65.1567 176.943 65.2657 177.979 65.2112 178.634C65.1567 179.343 64.9931 179.779 64.9386 179.724Z" fill="#263238"/>
<path d="M162.746 242.123L94.1623 241.796C85.93 241.741 79.2788 235.033 79.2788 226.797L79.9875 54.7136C80.0421 46.4776 86.7478 39.7688 94.98 39.8233L163.564 40.1506C171.796 40.2051 178.447 46.9139 178.447 55.1499L177.739 227.233C177.739 235.469 170.978 242.178 162.746 242.123Z" fill="#263238"/>
<path d="M162.964 45.0048L149.661 44.9503C147.862 44.9503 146.445 46.4229 146.445 48.3319V50.7318C146.445 52.5863 144.973 54.1135 143.228 54.1135L117.278 54.0044C115.479 54.0044 114.061 52.4772 114.061 50.6227V48.2228C114.061 46.3684 112.644 44.8412 110.844 44.8412H106.156L94.489 44.7866C88.7101 44.7866 84.0216 49.4228 83.967 55.2043L83.2583 223.142C83.2583 228.924 87.8923 233.614 93.6713 233.669L162.146 233.996C167.925 233.996 172.614 229.36 172.668 223.578L173.377 55.6407C173.377 49.6955 168.743 45.0048 162.964 45.0048Z" fill="#FAFAFA"/>
<path d="M92.8524 62.8388C92.7979 62.8388 92.6888 62.7842 92.6343 62.7297L91.5985 61.6388C91.5439 61.5843 91.5439 61.5298 91.5439 61.4207C91.5439 61.3661 91.5985 61.257 91.653 61.2025L92.6888 60.2207C92.7979 60.1116 92.9614 60.1116 93.0705 60.2207C93.1795 60.3298 93.1795 60.4934 93.0705 60.6025L92.1982 61.4207L93.0705 62.2934C93.1795 62.4025 93.1795 62.5661 93.0705 62.6752C92.9614 62.7842 92.9069 62.8388 92.8524 62.8388Z" fill="#263238"/>
<path d="M157.457 223.904H100.867C96.0152 223.904 92.0898 219.977 92.0898 215.123V213.541C92.0898 208.687 96.0152 204.76 100.867 204.76H157.457C162.309 204.76 166.235 208.687 166.235 213.541V215.123C166.289 219.977 162.309 223.904 157.457 223.904Z" fill="#A92428"/>
<path d="M120.331 212.123H122.076C123.439 212.123 124.365 212.996 124.365 214.25C124.365 215.505 123.439 216.378 122.076 216.378H120.331V212.123ZM122.076 215.996C123.221 215.996 123.929 215.287 123.929 214.25C123.929 213.214 123.221 212.505 122.076 212.505H120.822V215.941H122.076V215.996Z" fill="#FAFAFA"/>
<path d="M124.965 214.25C124.965 212.996 125.892 212.123 127.2 212.123C128.454 212.123 129.435 213.051 129.435 214.25C129.435 215.505 128.509 216.378 127.2 216.378C125.892 216.378 124.965 215.45 124.965 214.25ZM128.999 214.25C128.999 213.214 128.236 212.505 127.255 212.505C126.219 212.505 125.456 213.269 125.456 214.25C125.456 215.287 126.219 215.996 127.255 215.996C128.236 215.996 128.999 215.232 128.999 214.25Z" fill="#FAFAFA"/>
<path d="M133.961 212.123V216.378H133.579L130.853 212.941V216.378H130.417V212.123H130.799L133.525 215.559V212.123H133.961Z" fill="#FAFAFA"/>
<path d="M138.322 215.996V216.378H135.323V212.123H138.213V212.505H135.759V214.032H137.94V214.414H135.759V215.996H138.322Z" fill="#FAFAFA"/>
<path d="M100.976 147.162C100.976 147.926 100.431 148.416 99.5041 148.416H98.5227V149.562H98.1411V145.907H99.5041C100.431 145.907 100.976 146.344 100.976 147.162ZM100.594 147.162C100.594 146.562 100.213 146.235 99.5041 146.235H98.5227V148.035H99.5041C100.213 148.035 100.594 147.707 100.594 147.162Z" fill="#263238"/>
<path d="M104.247 146.781V149.508H103.92V149.017C103.702 149.345 103.375 149.563 102.939 149.563C102.23 149.563 101.794 149.181 101.794 148.418V146.836H102.176V148.363C102.176 148.963 102.503 149.236 102.993 149.236C103.539 149.236 103.92 148.854 103.92 148.254V146.836H104.247V146.781Z" fill="#263238"/>
<path d="M106.646 146.781V147.163C106.591 147.163 106.591 147.163 106.537 147.163C105.992 147.163 105.61 147.545 105.61 148.145V149.508H105.229V146.781H105.556V147.327C105.828 146.999 106.155 146.781 106.646 146.781Z" fill="#263238"/>
<path d="M107.028 148.145C107.028 147.327 107.628 146.781 108.445 146.781C108.881 146.781 109.318 146.945 109.536 147.327L109.263 147.49C109.1 147.218 108.772 147.108 108.445 147.108C107.846 147.108 107.409 147.545 107.409 148.145C107.409 148.799 107.846 149.181 108.445 149.181C108.772 149.181 109.045 149.072 109.263 148.799L109.536 148.963C109.318 149.29 108.936 149.508 108.445 149.508C107.628 149.563 107.028 148.963 107.028 148.145Z" fill="#263238"/>
<path d="M112.698 147.926V149.508H112.316V147.981C112.316 147.381 111.989 147.108 111.498 147.108C110.899 147.108 110.572 147.49 110.572 148.09V149.508H110.19V145.635H110.572V147.217C110.79 146.89 111.117 146.726 111.607 146.726C112.207 146.781 112.698 147.162 112.698 147.926Z" fill="#263238"/>
<path d="M115.75 147.818V149.508H115.423V149.127C115.26 149.399 114.933 149.563 114.496 149.563C113.897 149.563 113.515 149.236 113.515 148.745C113.515 148.308 113.788 147.981 114.551 147.981H115.423V147.818C115.423 147.327 115.151 147.108 114.66 147.108C114.333 147.108 113.951 147.218 113.733 147.436L113.57 147.163C113.842 146.945 114.224 146.781 114.66 146.781C115.314 146.781 115.75 147.163 115.75 147.818ZM115.369 148.69V148.254H114.496C113.951 148.254 113.788 148.472 113.788 148.745C113.788 149.072 114.06 149.236 114.496 149.236C114.933 149.29 115.205 149.072 115.369 148.69Z" fill="#263238"/>
<path d="M116.351 149.235L116.514 148.962C116.732 149.126 117.114 149.289 117.495 149.289C118.041 149.289 118.204 149.126 118.204 148.853C118.204 148.144 116.46 148.689 116.46 147.599C116.46 147.162 116.841 146.835 117.55 146.835C117.877 146.835 118.259 146.944 118.531 147.108L118.368 147.38C118.15 147.217 117.823 147.162 117.55 147.162C117.059 147.162 116.841 147.38 116.841 147.599C116.841 148.362 118.586 147.762 118.586 148.853C118.586 149.344 118.15 149.617 117.441 149.617C117.005 149.562 116.569 149.398 116.351 149.235Z" fill="#263238"/>
<path d="M121.638 148.308H119.349C119.403 148.854 119.839 149.236 120.439 149.236C120.766 149.236 121.093 149.127 121.257 148.854L121.475 149.072C121.257 149.345 120.875 149.508 120.439 149.508C119.567 149.508 119.021 148.908 119.021 148.145C119.021 147.327 119.567 146.781 120.33 146.781C121.093 146.781 121.638 147.327 121.638 148.145C121.638 148.199 121.638 148.254 121.638 148.308ZM119.349 148.036H121.257C121.202 147.49 120.821 147.108 120.275 147.108C119.785 147.108 119.403 147.49 119.349 148.036Z" fill="#263238"/>
<path d="M127.744 146.781L126.709 149.508H126.381L125.509 147.272L124.637 149.508H124.31L123.274 146.781H123.601L124.473 149.072L125.346 146.781H125.673L126.545 149.072L127.417 146.781H127.744Z" fill="#263238"/>
<path d="M130.307 147.818V149.508H129.98V149.127C129.816 149.399 129.489 149.563 129.053 149.563C128.453 149.563 128.072 149.236 128.072 148.745C128.072 148.308 128.344 147.981 129.108 147.981H129.98V147.818C129.98 147.327 129.707 147.108 129.217 147.108C128.89 147.108 128.508 147.218 128.29 147.436L128.126 147.163C128.399 146.945 128.781 146.781 129.217 146.781C129.871 146.781 130.307 147.163 130.307 147.818ZM129.925 148.69V148.254H129.053C128.508 148.254 128.344 148.472 128.344 148.745C128.344 149.072 128.617 149.236 129.053 149.236C129.489 149.29 129.762 149.072 129.925 148.69Z" fill="#263238"/>
<path d="M130.906 149.235L131.07 148.962C131.288 149.126 131.67 149.289 132.051 149.289C132.596 149.289 132.76 149.126 132.76 148.853C132.76 148.144 131.015 148.689 131.015 147.599C131.015 147.162 131.397 146.835 132.106 146.835C132.433 146.835 132.814 146.944 133.087 147.108L132.923 147.38C132.705 147.217 132.378 147.162 132.106 147.162C131.615 147.162 131.397 147.38 131.397 147.599C131.397 148.362 133.141 147.762 133.141 148.853C133.141 149.344 132.705 149.617 131.997 149.617C131.56 149.562 131.124 149.398 130.906 149.235Z" fill="#263238"/>
<path d="M134.832 149.235L134.995 148.962C135.213 149.126 135.595 149.289 135.976 149.289C136.522 149.289 136.685 149.126 136.685 148.853C136.685 148.144 134.941 148.689 134.941 147.599C134.941 147.162 135.322 146.835 136.031 146.835C136.358 146.835 136.74 146.944 137.012 147.108L136.849 147.38C136.631 147.217 136.304 147.162 136.031 147.162C135.54 147.162 135.322 147.38 135.322 147.599C135.322 148.362 137.067 147.762 137.067 148.853C137.067 149.344 136.631 149.617 135.922 149.617C135.486 149.562 135.05 149.398 134.832 149.235Z" fill="#263238"/>
<path d="M140.175 146.781V149.508H139.847V149.017C139.629 149.345 139.302 149.563 138.866 149.563C138.157 149.563 137.721 149.181 137.721 148.418V146.836H138.103V148.363C138.103 148.963 138.43 149.236 138.921 149.236C139.466 149.236 139.847 148.854 139.847 148.254V146.836H140.175V146.781Z" fill="#263238"/>
<path d="M140.938 148.145C140.938 147.327 141.538 146.781 142.355 146.781C142.792 146.781 143.228 146.945 143.446 147.327L143.173 147.49C143.01 147.218 142.683 147.108 142.355 147.108C141.756 147.108 141.32 147.545 141.32 148.145C141.32 148.799 141.756 149.181 142.355 149.181C142.683 149.181 142.955 149.072 143.173 148.799L143.446 148.963C143.228 149.29 142.846 149.508 142.355 149.508C141.538 149.563 140.938 148.963 140.938 148.145Z" fill="#263238"/>
<path d="M143.828 148.145C143.828 147.327 144.427 146.781 145.245 146.781C145.681 146.781 146.117 146.945 146.335 147.327L146.063 147.49C145.899 147.218 145.572 147.108 145.245 147.108C144.645 147.108 144.209 147.545 144.209 148.145C144.209 148.799 144.645 149.181 145.245 149.181C145.572 149.181 145.845 149.072 146.063 148.799L146.335 148.963C146.117 149.29 145.736 149.508 145.245 149.508C144.427 149.563 143.828 148.963 143.828 148.145Z" fill="#263238"/>
<path d="M149.334 148.308H147.044C147.099 148.854 147.535 149.236 148.135 149.236C148.462 149.236 148.789 149.127 148.953 148.854L149.171 149.072C148.953 149.345 148.571 149.508 148.135 149.508C147.262 149.508 146.717 148.908 146.717 148.145C146.717 147.327 147.262 146.781 148.026 146.781C148.789 146.781 149.334 147.327 149.334 148.145C149.334 148.199 149.334 148.254 149.334 148.308ZM147.044 148.036H148.953C148.898 147.49 148.516 147.108 147.971 147.108C147.481 147.108 147.099 147.49 147.044 148.036Z" fill="#263238"/>
<path d="M149.716 149.235L149.879 148.962C150.097 149.126 150.479 149.289 150.861 149.289C151.406 149.289 151.569 149.126 151.569 148.853C151.569 148.144 149.825 148.689 149.825 147.599C149.825 147.162 150.206 146.835 150.915 146.835C151.242 146.835 151.624 146.944 151.897 147.108L151.733 147.38C151.515 147.217 151.188 147.162 150.915 147.162C150.425 147.162 150.206 147.38 150.206 147.599C150.206 148.362 151.951 147.762 151.951 148.853C151.951 149.344 151.515 149.617 150.806 149.617C150.37 149.562 149.934 149.398 149.716 149.235Z" fill="#263238"/>
<path d="M152.224 149.235L152.387 148.962C152.605 149.126 152.987 149.289 153.369 149.289C153.914 149.289 154.077 149.126 154.077 148.853C154.077 148.144 152.333 148.689 152.333 147.599C152.333 147.162 152.714 146.835 153.423 146.835C153.75 146.835 154.132 146.944 154.404 147.108L154.241 147.38C154.023 147.217 153.696 147.162 153.423 147.162C152.932 147.162 152.714 147.38 152.714 147.599C152.714 148.362 154.459 147.762 154.459 148.853C154.459 149.344 154.023 149.617 153.314 149.617C152.878 149.562 152.442 149.398 152.224 149.235Z" fill="#263238"/>
<path d="M155.603 146.508V146.835H156.421V147.162H155.603V149.562H155.222V147.162H154.731V146.835H155.222V146.508C155.222 146.017 155.494 145.69 156.039 145.69C156.257 145.69 156.476 145.744 156.585 145.853L156.476 146.126C156.367 146.017 156.203 146.017 156.094 146.017C155.767 145.962 155.603 146.126 155.603 146.508Z" fill="#263238"/>
<path d="M159.364 146.781V149.508H159.037V149.017C158.819 149.345 158.492 149.563 158.056 149.563C157.347 149.563 156.911 149.181 156.911 148.418V146.836H157.293V148.363C157.293 148.963 157.62 149.236 158.111 149.236C158.656 149.236 159.037 148.854 159.037 148.254V146.836H159.364V146.781Z" fill="#263238"/>
<path d="M160.401 145.69H160.783V149.562H160.401V145.69Z" fill="#263238"/>
<path d="M103.212 132.327H100.922V131.236H106.81V132.327H104.52V138.163H103.212V132.327Z" fill="#A92428"/>
<path d="M112.862 135.163V138.217H111.608V135.327C111.608 134.399 111.117 133.909 110.354 133.909C109.482 133.909 108.882 134.454 108.882 135.49V138.163H107.628V130.8H108.882V133.472C109.263 133.036 109.918 132.818 110.626 132.818C111.935 132.818 112.862 133.527 112.862 135.163Z" fill="#A92428"/>
<path d="M118.913 135.054V138.163H117.768V137.508C117.495 137.945 116.896 138.217 116.078 138.217C114.878 138.217 114.115 137.563 114.115 136.636C114.115 135.763 114.715 135.054 116.296 135.054H117.659V134.999C117.659 134.29 117.223 133.854 116.35 133.854C115.751 133.854 115.151 134.072 114.769 134.399L114.279 133.472C114.824 133.036 115.642 132.818 116.514 132.818C117.986 132.818 118.913 133.527 118.913 135.054ZM117.659 136.527V135.927H116.35C115.533 135.927 115.26 136.254 115.26 136.636C115.26 137.072 115.642 137.345 116.296 137.345C116.896 137.345 117.441 137.072 117.659 136.527Z" fill="#A92428"/>
<path d="M125.673 135.163V138.217H124.419V135.327C124.419 134.399 123.929 133.908 123.165 133.908C122.293 133.908 121.693 134.454 121.693 135.49V138.163H120.439V132.872H121.639V133.581C122.02 133.09 122.675 132.818 123.438 132.818C124.746 132.818 125.673 133.527 125.673 135.163Z" fill="#A92428"/>
<path d="M129.434 135.926L128.507 136.799V138.217H127.253V130.854H128.507V135.327L131.07 132.927H132.542L130.306 135.163L132.705 138.217H131.179L129.434 135.926Z" fill="#A92428"/>
<path d="M141.265 132.872L138.757 138.599C138.267 139.799 137.612 140.181 136.686 140.181C136.14 140.181 135.595 140.017 135.268 139.69L135.759 138.763C135.977 138.981 136.358 139.145 136.686 139.145C137.122 139.145 137.394 138.926 137.612 138.435L137.721 138.217L135.432 132.872H136.74L138.43 136.799L140.12 132.872H141.265Z" fill="#A92428"/>
<path d="M141.483 135.545C141.483 133.963 142.683 132.818 144.318 132.818C145.954 132.818 147.153 133.963 147.153 135.545C147.153 137.127 145.954 138.272 144.318 138.272C142.683 138.272 141.483 137.127 141.483 135.545ZM145.845 135.545C145.845 134.508 145.191 133.908 144.264 133.908C143.392 133.908 142.683 134.563 142.683 135.545C142.683 136.581 143.337 137.181 144.264 137.181C145.191 137.181 145.845 136.527 145.845 135.545Z" fill="#A92428"/>
<path d="M153.423 132.872V138.163H152.223V137.508C151.842 137.999 151.188 138.272 150.533 138.272C149.17 138.272 148.244 137.508 148.244 135.926V132.872H149.498V135.708C149.498 136.69 149.934 137.126 150.751 137.126C151.624 137.126 152.223 136.581 152.223 135.545V132.872H153.423Z" fill="#A92428"/>
<path d="M154.84 137.509C154.84 137.072 155.167 136.745 155.658 136.745C156.094 136.745 156.421 137.072 156.421 137.509C156.421 137.945 156.094 138.272 155.658 138.272C155.167 138.272 154.84 137.89 154.84 137.509ZM154.894 131.236H156.366L156.094 135.872H155.112L154.894 131.236Z" fill="#A92428"/>
<path d="M129.652 120.818C137.541 120.818 143.936 114.42 143.936 106.528C143.936 98.6358 137.541 92.2378 129.652 92.2378C121.764 92.2378 115.369 98.6358 115.369 106.528C115.369 114.42 121.764 120.818 129.652 120.818Z" fill="#A92428"/>
<path d="M136.685 100.528C136.849 100.692 134.177 104.237 130.743 108.546C129.979 109.419 129.271 110.292 128.617 111.11L128.344 111.437L128.017 111.11C125.291 108.328 123.437 106.255 123.601 106.092C123.71 105.983 125.782 107.837 128.617 110.51L128.017 110.564C128.671 109.746 129.38 108.873 130.089 108.001C133.578 103.746 136.522 100.365 136.685 100.528Z" fill="white"/>
<path d="M149.933 100.801C149.497 99.2736 147.535 99.4372 147.535 99.4372L147.589 100.474C148.734 100.255 149.443 101.619 149.443 101.619L149.933 100.801Z" fill="#A92428"/>
<path d="M108.609 103.965C108.173 102.437 106.21 102.601 106.21 102.601L106.264 103.637C107.409 103.419 108.118 104.783 108.118 104.783L108.609 103.965Z" fill="#E0E0E0"/>
<path d="M131.396 83.1836C133.632 83.8927 135.049 81.2746 135.049 81.2746L133.686 80.511C133.032 82.0927 130.742 81.9291 130.742 81.9291L131.396 83.1836Z" fill="#E0E0E0"/>
<path d="M118.803 86.0193C117.768 86.1284 117.604 87.4374 117.604 87.4374L118.313 87.5465C118.313 86.7829 119.294 86.4556 119.294 86.4556L118.803 86.0193Z" fill="#A92428"/>
<path d="M162.199 95.6741C162.363 94.6378 161.109 94.2014 161.109 94.2014L160.836 94.8559C161.6 95.0741 161.654 96.0559 161.654 96.0559L162.199 95.6741Z" fill="#E0E0E0"/>
<path d="M124.964 72.2205C125.128 71.1841 123.874 70.7478 123.874 70.7478L123.601 71.4023C124.364 71.6205 124.419 72.6023 124.419 72.6023L124.964 72.2205Z" fill="#A92428"/>
<path d="M98.9587 89.1292C98.7951 90.7655 100.921 91.1473 100.921 91.1473L101.303 90.0565C99.9945 89.9474 99.831 88.4202 99.831 88.4202L98.9587 89.1292Z" fill="#A92428"/>
<path d="M147.371 83.1833C148.407 83.2378 148.789 81.9833 148.789 81.9833L148.135 81.7651C148.026 82.5287 146.99 82.6924 146.99 82.6924L147.371 83.1833Z" fill="#A92428"/>
<path d="M153.149 87.4921C153.149 87.5467 152.768 87.6012 152.277 87.6012C151.786 87.6012 151.405 87.5467 151.405 87.4921C151.405 87.4376 151.786 87.3831 152.277 87.3831C152.768 87.3831 153.149 87.4376 153.149 87.4921Z" fill="#E0E0E0"/>
<path d="M154.078 85.092C154.132 85.092 154.187 85.4738 154.187 85.9647C154.187 86.4556 154.132 86.8374 154.078 86.8374C154.023 86.8374 153.969 86.4556 153.969 85.9647C153.969 85.4738 154.023 85.092 154.078 85.092Z" fill="#E0E0E0"/>
<path d="M155.058 87.4384C155.058 87.3839 155.44 87.3293 155.93 87.3293C156.421 87.3293 156.803 87.3839 156.803 87.4384C156.803 87.493 156.421 87.5475 155.93 87.5475C155.44 87.493 155.058 87.4384 155.058 87.4384Z" fill="#E0E0E0"/>
<path d="M154.131 89.7835C154.077 89.7835 154.022 89.4017 154.022 88.9108C154.022 88.4199 154.077 88.0381 154.131 88.0381C154.186 88.0381 154.241 88.4199 154.241 88.9108C154.186 89.4017 154.186 89.7835 154.131 89.7835Z" fill="#E0E0E0"/>
<path d="M155.548 88.7463C155.494 88.8009 155.33 88.6373 155.167 88.4191C155.003 88.2009 154.894 88.0373 154.949 87.9827C155.003 87.9282 155.167 88.0918 155.33 88.31C155.439 88.5282 155.548 88.7463 155.548 88.7463Z" fill="#E0E0E0"/>
<path d="M155.44 86.0742C155.494 86.1287 155.331 86.2924 155.167 86.456C155.004 86.6196 154.84 86.7287 154.786 86.7287C154.731 86.6742 154.895 86.5105 155.058 86.3469C155.222 86.1833 155.44 86.0196 155.44 86.0742Z" fill="#E0E0E0"/>
<path d="M153.477 86.7827C153.422 86.8373 153.259 86.7282 153.095 86.6191C152.932 86.4555 152.823 86.3464 152.823 86.2919C152.823 86.2373 153.041 86.3464 153.204 86.4555C153.368 86.5646 153.477 86.7282 153.477 86.7827Z" fill="#E0E0E0"/>
<path d="M153.368 87.9277C153.422 87.9823 153.313 88.1459 153.15 88.3095C152.986 88.4732 152.823 88.5822 152.768 88.5822C152.714 88.5277 152.823 88.3641 152.986 88.2004C153.204 88.0368 153.313 87.9277 153.368 87.9277Z" fill="#E0E0E0"/>
<path d="M105.665 82.5837C105.665 82.6382 105.284 82.6928 104.793 82.6928C104.303 82.6928 103.921 82.6382 103.921 82.5837C103.921 82.5292 104.303 82.4746 104.793 82.4746C105.229 82.5292 105.665 82.5837 105.665 82.5837Z" fill="#A92428"/>
<path d="M106.592 80.2385C106.647 80.2385 106.701 80.6203 106.701 81.1112C106.701 81.6021 106.647 81.9839 106.592 81.9839C106.538 81.9839 106.483 81.6021 106.483 81.1112C106.483 80.6203 106.538 80.2385 106.592 80.2385Z" fill="#A92428"/>
<path d="M107.573 82.5293C107.573 82.4747 107.955 82.4202 108.446 82.4202C108.936 82.4202 109.318 82.4747 109.318 82.5293C109.318 82.5838 108.936 82.6383 108.446 82.6383C107.955 82.6383 107.573 82.5838 107.573 82.5293Z" fill="#A92428"/>
<path d="M106.646 84.9287C106.592 84.9287 106.537 84.5469 106.537 84.056C106.537 83.5651 106.592 83.1833 106.646 83.1833C106.701 83.1833 106.755 83.5651 106.755 84.056C106.701 84.5469 106.701 84.9287 106.646 84.9287Z" fill="#A92428"/>
<path d="M108.065 83.8928C108.01 83.9474 107.846 83.7837 107.683 83.5656C107.519 83.3474 107.41 83.1838 107.465 83.1292C107.519 83.0747 107.683 83.2383 107.846 83.4565C107.956 83.6747 108.065 83.8928 108.065 83.8928Z" fill="#A92428"/>
<path d="M107.954 81.22C108.009 81.2745 107.845 81.4381 107.682 81.6018C107.518 81.7654 107.355 81.8745 107.3 81.8745C107.246 81.8199 107.409 81.6563 107.573 81.4927C107.736 81.2745 107.9 81.1654 107.954 81.22Z" fill="#A92428"/>
<path d="M105.937 81.875C105.882 81.9296 105.719 81.8205 105.555 81.7114C105.392 81.5478 105.283 81.4387 105.283 81.3841C105.337 81.3296 105.501 81.4387 105.664 81.5478C105.882 81.7114 105.991 81.875 105.937 81.875Z" fill="#A92428"/>
<path d="M105.883 83.0745C105.937 83.129 105.828 83.2926 105.665 83.4563C105.501 83.6199 105.338 83.729 105.283 83.729C105.229 83.6744 105.338 83.5108 105.501 83.3472C105.665 83.1835 105.828 83.0745 105.883 83.0745Z" fill="#A92428"/>
<path d="M165.961 59.8941C165.961 59.9486 164.216 60.0577 162.09 60.0577C159.964 60.0577 158.219 60.0032 158.219 59.8941C158.219 59.785 159.964 59.7305 162.09 59.7305C164.271 59.785 165.961 59.8396 165.961 59.8941Z" fill="#263238"/>
<path d="M165.961 61.5311C165.961 61.5856 164.216 61.6947 162.09 61.6947C159.964 61.6947 158.219 61.6401 158.219 61.5311C158.219 61.4765 159.964 61.3674 162.09 61.3674C164.271 61.3674 165.961 61.422 165.961 61.5311Z" fill="#263238"/>
<path d="M165.961 63.1126C165.961 63.1671 164.216 63.2762 162.09 63.2762C159.964 63.2762 158.219 63.2217 158.219 63.1126C158.219 63.0581 159.964 62.949 162.09 62.949C164.271 63.0035 165.961 63.0581 165.961 63.1126Z" fill="#263238"/>
<path d="M120.948 195.011L138.884 195.151L139.061 172.461L121.125 172.321L120.948 195.011Z" fill="#EBEBEB"/>
<path d="M132.051 173.126L131.724 195.052H128.889L129.489 173.126H132.051Z" fill="#FAFAFA"/>
<path d="M110.789 172.962L121.092 173.017L139.029 173.181L121.092 175.526L120.929 194.998L110.625 194.889L110.789 172.962Z" fill="#E0E0E0"/>
<path d="M116.404 173.018L115.968 194.944H112.915L113.406 172.963L116.404 173.018Z" fill="#FAFAFA"/>
<path d="M124.526 166.309C124.526 166.473 124.254 166.582 123.654 166.746C123.109 166.855 122.291 167.018 121.255 167.073C120.765 167.073 120.165 167.073 119.565 167.073C119.238 167.073 118.965 167.018 118.638 166.964C118.311 166.909 117.984 166.855 117.603 166.746C117.384 166.691 117.166 166.582 116.948 166.473C116.73 166.364 116.458 166.146 116.294 165.818C116.076 165.491 116.021 165.109 116.021 164.837C116.021 164.509 116.076 164.291 116.131 164.073C116.294 163.364 116.458 162.6 116.839 161.782C117.003 161.401 117.221 160.964 117.493 160.637C117.657 160.473 117.766 160.31 117.93 160.091C118.093 159.928 118.311 159.764 118.529 159.601C118.747 159.437 119.02 159.328 119.347 159.273C119.674 159.219 120.001 159.219 120.274 159.273C120.874 159.437 121.201 159.71 121.528 159.928C122.618 160.855 123.381 161.891 123.872 162.819C124.363 163.746 124.581 164.619 124.69 165.164C124.744 165.764 124.69 166.091 124.581 166.091C124.308 166.146 123.872 165 122.727 163.528C122.128 162.819 121.364 162 120.437 161.346C120.219 161.182 120.001 161.073 119.892 161.073C119.838 161.073 119.838 161.073 119.783 161.073C119.729 161.073 119.674 161.128 119.62 161.182C119.565 161.237 119.456 161.291 119.402 161.401C119.347 161.51 119.238 161.619 119.129 161.728C118.965 161.946 118.802 162.219 118.693 162.491C118.42 163.091 118.257 163.746 118.093 164.4C118.039 164.564 118.039 164.619 118.039 164.673H117.984C117.93 164.673 117.93 164.728 117.93 164.673L117.984 164.619C117.984 164.619 117.984 164.619 118.039 164.673C118.093 164.728 118.202 164.782 118.311 164.782C118.529 164.891 118.856 164.946 119.129 165C119.402 165.055 119.674 165.109 119.947 165.164C120.492 165.273 120.983 165.328 121.473 165.437C122.4 165.546 123.218 165.655 123.763 165.764C124.254 166.037 124.526 166.2 124.526 166.309Z" fill="#E0E0E0"/>
<path d="M124.2 166.473C124.146 166.2 125.509 165.764 127.58 165.164C128.616 164.837 129.87 164.455 131.124 163.909C131.451 163.8 131.724 163.637 131.887 163.473C131.996 163.418 131.996 163.364 131.996 163.364V163.418C131.996 163.364 131.942 163.255 131.887 163.091C131.778 162.928 131.724 162.709 131.615 162.546C131.451 162.219 131.288 161.891 131.069 161.564C130.851 161.291 130.688 161.019 130.415 160.8C130.306 160.691 130.197 160.582 130.034 160.528C129.925 160.473 129.816 160.364 129.707 160.364C129.488 160.31 129.325 160.255 129.161 160.31C128.998 160.364 128.78 160.473 128.507 160.691C127.471 161.564 126.654 162.491 126.054 163.364C124.854 165.055 124.527 166.418 124.255 166.364C124.146 166.364 124.037 165.982 124.091 165.327C124.146 164.673 124.364 163.746 124.854 162.655C125.345 161.564 126.163 160.419 127.308 159.328C127.635 159.055 128.016 158.728 128.562 158.51C129.107 158.291 129.816 158.346 130.361 158.51C130.633 158.619 130.906 158.728 131.124 158.891C131.342 159.055 131.56 159.164 131.724 159.328C132.105 159.655 132.432 160.037 132.705 160.473C132.978 160.909 133.196 161.291 133.359 161.673C133.468 161.891 133.523 162.055 133.632 162.273C133.741 162.491 133.85 162.709 133.904 163.091C133.959 163.418 133.904 163.909 133.686 164.291C133.468 164.618 133.25 164.837 133.032 165C132.596 165.327 132.16 165.491 131.778 165.6C130.306 166.146 128.943 166.418 127.853 166.527C125.618 166.855 124.2 166.746 124.2 166.473Z" fill="#EBEBEB"/>
<path d="M107.492 172.911L133.879 173.117L133.938 165.59L107.551 165.384L107.492 172.911Z" fill="#E0E0E0"/>
<path d="M117.168 172.999L141.047 173.185L141.106 165.658L117.227 165.472L117.168 172.999Z" fill="#EBEBEB"/>
<path d="M133.795 165.653L133.631 173.18L130.851 173.126L131.069 165.599L133.795 165.653Z" fill="#FAFAFA"/>
<path d="M114.059 165.49L113.787 172.962H110.734L110.897 165.435L114.059 165.49Z" fill="#FAFAFA"/>
<path d="M140.358 194.597L150.553 194.677L150.654 181.805L140.459 181.725L140.358 194.597Z" fill="#EBEBEB"/>
<path d="M146.663 182.18L146.499 194.616H144.864L145.191 182.18H146.663Z" fill="#FAFAFA"/>
<path d="M134.614 182.072L140.447 182.126L150.642 182.235L140.447 183.544L140.338 194.562L134.505 194.508L134.614 182.072Z" fill="#E0E0E0"/>
<path d="M137.776 182.126L137.558 194.562H135.813L136.141 182.126H137.776Z" fill="#FAFAFA"/>
<path d="M142.41 178.307C142.41 178.471 141.756 178.743 140.557 178.798C139.957 178.853 139.303 178.853 138.431 178.634C138.212 178.58 137.885 178.471 137.613 178.089C137.504 177.871 137.449 177.653 137.449 177.434C137.449 177.216 137.449 177.107 137.504 176.944C137.613 176.507 137.722 176.125 137.885 175.634C137.994 175.416 138.103 175.144 138.267 174.925C138.431 174.707 138.594 174.489 138.921 174.325C139.194 174.162 139.63 174.053 140.012 174.162C140.393 174.271 140.611 174.435 140.775 174.598C141.375 175.144 141.865 175.744 142.138 176.289C142.683 177.38 142.628 178.198 142.41 178.198C142.192 178.253 141.92 177.598 141.265 176.834C140.938 176.453 140.502 176.016 139.957 175.634C139.848 175.525 139.739 175.525 139.684 175.525C139.684 175.525 139.684 175.525 139.63 175.58C139.575 175.634 139.466 175.689 139.412 175.853C139.303 175.962 139.248 176.125 139.194 176.289C139.03 176.616 138.976 176.998 138.867 177.38L138.812 177.489C138.812 177.489 138.758 177.489 138.703 177.489C138.649 177.489 138.649 177.489 138.649 177.489C138.594 177.489 138.594 177.489 138.649 177.489C138.649 177.489 138.703 177.434 138.758 177.38L138.812 177.325C138.812 177.325 138.867 177.38 138.921 177.38C139.466 177.598 140.175 177.707 140.666 177.816C141.702 177.98 142.41 178.143 142.41 178.307Z" fill="#E0E0E0"/>
<path d="M142.192 178.416C142.137 178.198 142.901 177.925 144.1 177.543C144.7 177.325 145.354 177.107 146.063 176.78C146.226 176.725 146.39 176.616 146.444 176.561C146.499 176.507 146.499 176.507 146.444 176.561C146.39 176.616 146.39 176.725 146.39 176.725C146.335 176.561 146.281 176.452 146.172 176.289C146.063 176.071 145.954 175.907 145.899 175.743C145.79 175.58 145.681 175.471 145.572 175.362C145.463 175.252 145.299 175.143 145.245 175.143C145.136 175.089 145.136 175.089 145.081 175.089C145.027 175.089 144.918 175.143 144.809 175.252C144.264 175.743 143.773 176.234 143.446 176.671C142.737 177.598 142.519 178.307 142.301 178.307C142.083 178.307 141.919 177.38 142.519 176.125C142.792 175.471 143.228 174.816 143.937 174.162C144.1 173.998 144.373 173.78 144.7 173.671C145.081 173.562 145.518 173.562 145.845 173.671C146.008 173.725 146.172 173.834 146.335 173.889C146.444 173.998 146.608 174.052 146.717 174.162C146.935 174.38 147.153 174.598 147.317 174.871C147.48 175.089 147.589 175.362 147.698 175.58L147.862 175.907C147.916 176.016 147.971 176.18 148.025 176.452C148.08 176.671 148.025 176.998 147.862 177.271C147.753 177.489 147.589 177.652 147.426 177.761C147.153 177.98 146.881 178.034 146.662 178.143C145.79 178.416 145.027 178.58 144.373 178.634C143.01 178.743 142.246 178.634 142.192 178.416Z" fill="#E0E0E0"/>
<path d="M132.758 182.085L147.696 182.201L147.729 177.947L132.791 177.83L132.758 182.085Z" fill="#E0E0E0"/>
<path d="M138.283 182.11L151.803 182.216L151.836 177.961L138.316 177.856L138.283 182.11Z" fill="#EBEBEB"/>
<path d="M147.698 177.926L147.589 182.235L146.008 182.18L146.117 177.926H147.698Z" fill="#FAFAFA"/>
<path d="M136.467 177.872L136.304 182.126L134.614 182.071L134.668 177.817L136.467 177.872Z" fill="#FAFAFA"/>
<path d="M218.245 205.414C219.935 206.123 221.134 207.651 221.734 209.396C222.334 211.087 222.388 212.996 222.225 214.796C221.843 218.287 219.826 221.832 217.7 224.613C214.756 222.05 214.102 217.577 213.883 215.287C213.556 211.632 215.192 204.869 218.245 205.414Z" fill="#A92428"/>
<path d="M221.079 230.34C220.588 228.376 221.406 226.195 222.932 224.831C224.459 223.468 226.585 222.922 228.602 223.086C229.529 223.14 230.565 223.413 231.056 224.177C231.546 224.886 231.492 225.922 231.11 226.686C230.728 227.449 230.02 228.049 229.256 228.486C226.749 230.122 223.968 231.213 221.079 230.34Z" fill="#A92428"/>
<path d="M217.317 241.03C217.317 241.03 217.317 240.757 217.426 240.321C217.535 239.83 217.644 239.176 217.808 238.357C218.135 236.721 218.571 234.43 219.825 232.14C221.079 229.903 222.823 228.212 224.241 227.394C224.949 226.958 225.604 226.74 226.04 226.576C226.258 226.522 226.421 226.467 226.585 226.467C226.694 226.467 226.749 226.413 226.749 226.467C226.749 226.522 225.713 226.685 224.295 227.558C222.878 228.431 221.188 230.067 219.988 232.249C218.734 234.43 218.298 236.721 217.917 238.357C217.753 239.176 217.589 239.83 217.48 240.266C217.426 240.812 217.371 241.03 217.317 241.03Z" fill="#263238"/>
<path d="M217.426 210.65C217.426 210.65 217.426 210.759 217.48 210.977C217.48 211.195 217.535 211.523 217.535 211.85C217.589 212.613 217.644 213.759 217.644 215.177C217.753 217.959 217.808 221.831 217.808 226.086C217.808 230.34 217.699 234.212 217.589 236.994C217.535 238.412 217.48 239.503 217.426 240.321C217.426 240.703 217.371 240.976 217.371 241.194C217.426 240.867 217.317 241.412 217.317 241.194C217.317 240.976 217.317 240.649 217.317 240.267C217.317 239.449 217.371 238.303 217.371 236.94C217.426 234.158 217.535 230.285 217.535 226.031C217.535 221.777 217.535 217.904 217.48 215.122C217.48 213.759 217.426 212.613 217.426 211.795C217.426 211.414 217.426 211.141 217.426 210.868C217.426 210.759 217.426 210.65 217.426 210.65Z" fill="#263238"/>
<path d="M216.009 232.468C215.354 228.268 212.519 224.45 208.649 222.595C207.667 222.104 206.359 221.832 205.596 222.541C204.778 223.25 204.941 224.613 205.378 225.595C207.013 229.849 211.429 232.795 215.954 232.74" fill="#A92428"/>
<path d="M209.14 225.867C209.14 225.867 209.358 225.922 209.74 226.14C209.958 226.249 210.176 226.358 210.449 226.522C210.721 226.686 211.048 226.849 211.321 227.067C211.648 227.286 211.975 227.558 212.357 227.831C212.738 228.104 213.065 228.485 213.447 228.813C214.156 229.576 214.919 230.449 215.519 231.485C216.118 232.522 216.555 233.558 216.882 234.594C217.045 235.085 217.154 235.576 217.209 236.012C217.318 236.449 217.318 236.885 217.372 237.267C217.427 237.649 217.427 238.031 217.427 238.303C217.427 238.63 217.427 238.903 217.427 239.121C217.372 239.558 217.372 239.776 217.372 239.776C217.318 239.776 217.427 238.794 217.263 237.267C217.209 236.885 217.154 236.449 217.045 236.012C216.991 235.576 216.827 235.085 216.664 234.594C216.337 233.613 215.9 232.576 215.301 231.54C214.701 230.504 213.992 229.631 213.283 228.922C212.902 228.54 212.575 228.213 212.248 227.94C211.921 227.613 211.539 227.395 211.266 227.176C209.958 226.304 209.086 225.922 209.14 225.867Z" fill="#263238"/>
</g>
<defs>
<clipPath id="clip0_5679_32375">
<rect width="234.864" height="235.462" fill="white" transform="translate(6.76904 6.7688)"/>
</clipPath>
</defs>
</svg>
