<svg width="20" height="20" viewBox="0 0 20 20" fill="none" xmlns="http://www.w3.org/2000/svg">
<path d="M6.49 17.191C6.514 16.855 6.562 16.52 6.634 16.19C6.697 15.895 6.888 15.06 7.168 13.85L7.175 13.82L7.562 12.152C7.641 11.812 7.702 11.548 7.743 11.46C7.54882 11.0111 7.45202 10.5261 7.459 10.037C7.459 8.7 8.215 7.664 9.195 7.664C9.555 7.658 9.899 7.814 10.137 8.09C10.375 8.365 10.485 8.734 10.439 9.086C10.439 9.539 10.354 9.884 9.986 11.121C9.915 11.359 9.866 11.525 9.82 11.692C9.769 11.88 9.725 12.05 9.688 12.214C9.592 12.6 9.68 13.011 9.925 13.32C10.0439 13.471 10.1973 13.5913 10.3724 13.6706C10.5475 13.75 10.7391 13.7861 10.931 13.776C12.423 13.776 13.531 11.791 13.531 9.228C13.531 7.258 12.241 5.954 10.099 5.954C9.56279 5.93407 9.02828 6.02563 8.52928 6.22289C8.03028 6.42015 7.57764 6.71881 7.2 7.1C6.81426 7.48954 6.50994 7.95197 6.30477 8.46034C6.0996 8.96871 5.9977 9.51284 6.005 10.061C5.98014 10.6518 6.16111 11.2328 6.517 11.705C6.698 11.845 6.767 12.088 6.692 12.295C6.651 12.463 6.552 12.847 6.516 12.975C6.50556 13.0379 6.48061 13.0975 6.44311 13.149C6.40562 13.2006 6.35662 13.2427 6.3 13.272C6.24526 13.3006 6.18449 13.3156 6.12274 13.316C6.061 13.3163 6.00006 13.3019 5.945 13.274C4.785 12.795 4.149 11.496 4.149 9.834C4.149 6.849 6.64 4.25 10.341 4.25C13.476 4.25 15.822 6.579 15.822 9.39C15.822 12.922 13.89 15.494 11.132 15.494C10.7397 15.5054 10.3502 15.4245 9.99488 15.258C9.63953 15.0914 9.32822 14.8438 9.086 14.535L9.043 14.712L8.836 15.564L8.834 15.571C8.688 16.171 8.586 16.588 8.546 16.745C8.44 17.1 8.306 17.448 8.146 17.785C10.1359 18.2587 12.2316 17.9522 14.0025 16.9285C15.7734 15.9047 17.0849 14.2416 17.6674 12.2808C18.2499 10.32 18.0593 8.21056 17.1346 6.38601C16.2099 4.56146 14.6215 3.16041 12.6957 2.47081C10.77 1.78122 8.65322 1.85547 6.78053 2.67831C4.90784 3.50115 3.42147 5.01005 2.62691 6.89492C1.83235 8.77978 1.78996 10.8974 2.50845 12.8125C3.22694 14.7277 4.65174 16.2949 6.49 17.192V17.191ZM10 20C4.477 20 0 15.523 0 10C0 4.477 4.477 0 10 0C15.523 0 20 4.477 20 10C20 15.523 15.523 20 10 20Z" fill="#A92428"/>
</svg>
